<?xml version="1.0" standalone="no"?>
<!DOCTYPE svg PUBLIC "-//W3C//DTD SVG 1.1//EN" "http://www.w3.org/Graphics/SVG/1.1/DTD/svg11.dtd" >
<svg xmlns="http://www.w3.org/2000/svg" xmlns:xlink="http://www.w3.org/1999/xlink" version="1.1">
<metadata>
Created by FontForge 20170731 at Mon Dec 21 13:59:26 2020
 By Aleksey,,,
Copyright 2020 The Plus Jakarta Sans Project Authors (https://github.com/tokotype/PlusJakartaSans)
</metadata>
<defs>
<font id="PlusJakartaSans-Regular" horiz-adv-x="573" >
  <font-face 
    font-family="Plus Jakarta Sans"
    font-weight="400"
    font-stretch="normal"
    units-per-em="1000"
    panose-1="0 0 0 0 0 0 0 0 0 0"
    ascent="800"
    descent="-200"
    x-height="536"
    cap-height="745"
    bbox="-157 -320 1360 1184"
    underline-thickness="40"
    underline-position="-215"
    unicode-range="U+000D-FB02"
  />
<missing-glyph horiz-adv-x="640" 
d="M60 675h520v70h-520v-70zM60 450h520v70h-520v-70zM60 225h520v70h-520v-70zM60 0h520v70h-520v-70z" />
    <glyph glyph-name="fi" unicode="fi" horiz-adv-x="582" 
d="M132 0h75v461h238v-461h75v536h-313v48q0 57 32 80t80 23q5 0 17 -0.5t19 -2.5v68q-8 2 -21 3.5t-23 1.5q-47 0 -88 -20t-66 -58.5t-25 -94.5v-48h-107v-75h107v-461z" />
    <glyph glyph-name="fl" unicode="fl" horiz-adv-x="622" 
d="M132 0h75v461h263v-461h75v757h-75v-221h-263v48q0 57 32 80t80 23q5 0 17 -0.5t19 -2.5v68q-8 2 -21 3.5t-23 1.5q-47 0 -88 -20t-66 -58.5t-25 -94.5v-48h-107v-75h107v-461z" />
    <glyph glyph-name="f_f" unicode="ff" horiz-adv-x="776" 
d="M132 0h75v461h308v-461h75v461h131v75h-131v48q0 57 32 80t80 23q5 0 17 -0.5t19 -2.5v68q-8 2 -21 3.5t-23 1.5q-47 0 -88 -20t-66 -58.5t-25 -94.5v-48h-308v48q0 57 32 80t80 23q5 0 17 -0.5t19 -2.5v68q-8 2 -21 3.5t-23 1.5q-47 0 -88 -20t-66 -58.5t-25 -94.5v-48
h-107v-75h107v-461z" />
    <glyph glyph-name="f_f_i" unicode="ffi" horiz-adv-x="975" 
d="M132 0h75v461h318v-461h75v461h238v-461h75v536h-313v48q0 57 32 80t80 23q5 0 17 -0.5t19 -2.5v68q-8 2 -21 3.5t-23 1.5q-47 0 -88 -20t-66 -58.5t-25 -94.5v-48h-318v48q0 57 32 80t80 23q5 0 17 -0.5t19 -2.5v68q-8 2 -21 3.5t-23 1.5q-47 0 -88 -20t-66 -58.5
t-25 -94.5v-48h-107v-75h107v-461z" />
    <glyph glyph-name="f_f_l" unicode="ffl" horiz-adv-x="1015" 
d="M132 0h75v461h318v-461h75v461h263v-461h75v757h-75v-221h-263v48q0 57 32 80t80 23q5 0 17 -0.5t19 -2.5v68q-8 2 -21 3.5t-23 1.5q-47 0 -88 -20t-66 -58.5t-25 -94.5v-48h-318v48q0 57 32 80t80 23q5 0 17 -0.5t19 -2.5v68q-8 2 -21 3.5t-23 1.5q-47 0 -88 -20
t-66 -58.5t-25 -94.5v-48h-107v-75h107v-461z" />
    <glyph glyph-name=".notdef" horiz-adv-x="640" 
d="M60 675h520v70h-520v-70zM60 450h520v70h-520v-70zM60 225h520v70h-520v-70zM60 0h520v70h-520v-70z" />
    <glyph glyph-name=".null" horiz-adv-x="0" 
 />
    <glyph glyph-name="nonmarkingreturn" horiz-adv-x="333" 
 />
    <glyph glyph-name="NULL" horiz-adv-x="0" 
 />
    <glyph glyph-name="NULL" horiz-adv-x="0" 
 />
    <glyph glyph-name="CR" unicode="&#xd;" horiz-adv-x="170" 
 />
    <glyph glyph-name="space" unicode=" " horiz-adv-x="170" 
 />
    <glyph glyph-name="exclam" unicode="!" horiz-adv-x="282" 
d="M106 214h70l5 531h-80zM101 0h80v110h-80v-110z" />
    <glyph glyph-name="quotedbl" unicode="&#x22;" horiz-adv-x="395" 
d="M95 527h55l12 218h-80zM245 527h55l12 218h-80z" />
    <glyph glyph-name="numbersign" unicode="#" horiz-adv-x="790" 
d="M103 0h80l56 195h210l-56 -195h80l56 195h140v70h-120l62 215h140v70h-120l56 195h-80l-56 -195h-210l56 195h-80l-56 -195h-140v-70h120l-62 -215h-140v-70h120zM259 265l62 215h210l-62 -215h-210z" />
    <glyph glyph-name="dollar" unicode="$" horiz-adv-x="646" 
d="M296 -100h70v89q64 5 112 31.5t75 70.5t27 100q0 74 -45 123t-133 75l-36 11v279q48 -12 83 -44t54 -84l70 28q-20 62 -74.5 110t-132.5 63v93h-70v-88q-61 -3 -108.5 -29.5t-74.5 -71t-27 -101.5q0 -69 42.5 -123t121.5 -77l46 -14v-278q-60 10 -103.5 48.5t-65.5 103.5
l-72 -27q15 -49 49 -91t82.5 -70t109.5 -36v-91zM284 424q-60 18 -89 54.5t-29 82.5q0 54 35.5 87t94.5 37v-265zM384 315q56 -16 86 -46t30 -85q0 -51 -36.5 -83.5t-97.5 -39.5v259z" />
    <glyph glyph-name="percent" unicode="%" horiz-adv-x="974" 
d="M247 367q54 0 98 26.5t70 70.5t26 98t-26 98.5t-70 70.5t-98 26t-98 -26t-70.5 -70.5t-26.5 -98.5t26.5 -98t70.5 -70.5t98 -26.5zM138 0h97l610 745h-97zM247 439q-34 0 -61.5 17.5t-43 46t-15.5 59.5q0 32 15.5 60t43 45.5t61.5 17.5q35 0 61.5 -17.5t42 -45.5
t15.5 -60q0 -31 -15.5 -59.5t-42 -46t-61.5 -17.5zM727 -12q54 0 98 26.5t70 70.5t26 98t-26 98.5t-70 70.5t-98 26t-98 -26t-70.5 -70.5t-26.5 -98.5t26.5 -98t70.5 -70.5t98 -26.5zM727 60q-34 0 -61.5 17.5t-43 46t-15.5 59.5q0 32 15.5 60t43 45.5t61.5 17.5
q35 0 61.5 -17.5t42 -45.5t15.5 -60q0 -31 -15.5 -59.5t-42 -46t-61.5 -17.5z" />
    <glyph glyph-name="ampersand" unicode="&#x26;" horiz-adv-x="734" 
d="M264 -12q54 0 95 17.5t72 44.5t54 56l103 -106h107l-164 172l129 197h-91l-93 -139l-147 154v0q26 16 58.5 43t57 66t24.5 92q0 50 -24 89t-64 61t-88 22q-49 0 -89.5 -22.5t-64.5 -62t-24 -91.5q0 -59 29.5 -105.5t62.5 -82.5l-2 -1q-14 -9 -38.5 -26t-50 -43.5
t-43 -63.5t-17.5 -85q0 -56 27 -98t74 -65t107 -23zM195 584q0 43 27.5 71t70.5 28q42 0 70 -28t28 -70q0 -35 -18 -63t-44.5 -49t-50.5 -36q-31 33 -57 69.5t-26 77.5zM141 176q0 44 20 75t47 52.5t47 33.5l4 3l171 -177q-29 -40 -66.5 -70.5t-97.5 -30.5q-55 0 -90 30
t-35 84z" />
    <glyph glyph-name="quotesingle" unicode="'" horiz-adv-x="245" 
d="M95 527h55l12 218h-80z" />
    <glyph glyph-name="parenleft" unicode="(" horiz-adv-x="295" 
d="M210 -140h65q-72 101 -109.5 214t-37.5 229t37.5 229t109.5 213h-65q-79 -89 -120.5 -201.5t-41.5 -240.5q0 -127 41.5 -240t120.5 -203z" />
    <glyph glyph-name="parenright" unicode=")" horiz-adv-x="295" 
d="M20 -140h65q80 90 121 203t41 240q0 128 -41 240.5t-121 201.5h-65q72 -100 109.5 -213t37.5 -229t-37.5 -229t-109.5 -214z" />
    <glyph glyph-name="asterisk" unicode="*" horiz-adv-x="479" 
d="M152 383l87 114l87 -114l58 42l-86 114l127 43l-22 68l-128 -42v137h-72v-137l-128 42l-22 -68l127 -43l-86 -114z" />
    <glyph glyph-name="plus" unicode="+" horiz-adv-x="606" 
d="M266 0h75v213h212v75h-212v212h-75v-212h-213v-75h213v-213z" />
    <glyph glyph-name="comma" unicode="," horiz-adv-x="270" 
d="M80 -130q100 24 100 156v84h-80v-110h43q-3 -84 -63 -100v-30z" />
    <glyph glyph-name="hyphen" unicode="-" horiz-adv-x="498" 
d="M74 233h350v70h-350v-70z" />
    <glyph glyph-name="period" unicode="." horiz-adv-x="286" 
d="M103 0h80v110h-80v-110z" />
    <glyph glyph-name="slash" unicode="/" horiz-adv-x="429" 
d="M2 -40h87l338 825h-87z" />
    <glyph glyph-name="zero" unicode="0" horiz-adv-x="732" 
d="M367 -12q88 0 154 48t102.5 135t36.5 202t-37 201.5t-103 134.5t-154 48t-154 -48t-103 -134.5t-37 -201.5t37 -201.5t103.5 -135t154.5 -48.5zM367 63q-64 0 -112.5 39t-75.5 109t-27 162q0 93 27 162.5t75 108t112 38.5q65 0 113 -38.5t75 -108t27 -162.5t-27 -162.5
t-75 -108.5t-112 -39z" />
    <glyph glyph-name="one" unicode="1" horiz-adv-x="371" 
d="M181 0h80v745h-220v-70h140v-675z" />
    <glyph glyph-name="two" unicode="2" horiz-adv-x="600" 
d="M58 0h484v70h-369l189 208q55 60 90 105t52.5 84t17.5 81q0 61 -28.5 108t-78.5 74t-117 27q-94 0 -160 -53.5t-86 -144.5l73 -16q16 68 61.5 106t112.5 38q65 0 104 -36t39 -103q0 -42 -19 -78t-57.5 -80t-99.5 -111l-208 -229v-50z" />
    <glyph glyph-name="three" unicode="3" horiz-adv-x="609" 
d="M294 -12q74 0 131 31.5t89 85t32 119.5q0 63 -27 111.5t-74.5 78t-109.5 36.5l179 225v70h-433v-70h343l-201 -255l16 -35q10 2 25.5 3t28.5 1q74 0 123.5 -42.5t49.5 -122.5q0 -79 -48.5 -122.5t-123.5 -43.5q-63 0 -112 33.5t-72 91.5l-64 -30q29 -77 95 -121t153 -44z
" />
    <glyph glyph-name="four" unicode="4" horiz-adv-x="630" 
d="M425 0h70v176h91v65h-91v504h-70l-379 -504v-65h379v-176zM425 241h-296l296 395v-395z" />
    <glyph glyph-name="five" unicode="5" horiz-adv-x="616" 
d="M302 -12q72 0 128.5 32t89 87.5t32.5 124.5q0 68 -31.5 123.5t-86.5 89t-127 33.5q-37 0 -73 -10.5t-67 -32.5l34 241h321v70h-377l-56 -405l63 -12q19 32 60.5 54.5t90.5 22.5q48 0 86 -22.5t60.5 -61.5t22.5 -90q0 -49 -22 -88.5t-60.5 -62.5t-87.5 -23
q-61 0 -113.5 33.5t-75.5 91.5l-61 -30q29 -76 96 -120.5t154 -44.5z" />
    <glyph glyph-name="six" unicode="6" horiz-adv-x="597" 
d="M300 -12q69 0 123 31t85.5 84.5t31.5 120.5q0 70 -30.5 123t-82.5 83.5t-117 30.5q-27 0 -50 -5t-42 -17l234 306h-96l-210 -279q-86 -115 -86 -232q0 -72 31 -127.5t85 -87t124 -31.5zM300 58q-46 0 -82 21.5t-57 59.5t-21 85q0 48 20.5 85t57 58.5t82.5 21.5
q47 0 83 -21.5t56.5 -58.5t20.5 -85q0 -47 -21 -85t-57 -59.5t-82 -21.5z" />
    <glyph glyph-name="seven" unicode="7" horiz-adv-x="543" 
d="M79 0h84l335 676v70h-455v-70h372z" />
    <glyph glyph-name="eight" unicode="8" horiz-adv-x="628" 
d="M314 -12q72 0 128.5 29.5t89 81t32.5 116.5q0 64 -34 117t-93 79q40 25 63.5 64.5t23.5 89.5q0 56 -27.5 99.5t-74.5 68t-108 24.5q-60 0 -107.5 -25.5t-75.5 -68.5t-28 -98q0 -46 22.5 -87t65.5 -67q-59 -26 -93 -79t-34 -117q0 -65 32.5 -116.5t89 -81t128.5 -29.5z
M314 442q-55 0 -93 34t-38 89t38 88.5t93 33.5t92.5 -33.5t37.5 -88.5t-37.5 -89t-92.5 -34zM314 58q-76 0 -123 43.5t-47 113.5q0 71 47 114t123 43q77 0 123.5 -43t46.5 -114q0 -70 -46.5 -113.5t-123.5 -43.5z" />
    <glyph glyph-name="nine" unicode="9" horiz-adv-x="597" 
d="M145 0h96l210 279q86 115 86 232q0 72 -31 127.5t-85 87t-124 31.5q-68 0 -122.5 -31t-86 -84t-31.5 -121q0 -69 30.5 -122.5t82.5 -84t117 -30.5q27 0 50 5t42 17zM297 356q-46 0 -82.5 21.5t-57 59t-20.5 84.5q0 48 21 85.5t57 59t82 21.5t82 -21.5t57 -59t21 -85.5
q0 -47 -20.5 -84.5t-56.5 -59t-83 -21.5z" />
    <glyph glyph-name="colon" unicode=":" horiz-adv-x="286" 
d="M103 426h80v110h-80v-110zM103 0h80v110h-80v-110z" />
    <glyph glyph-name="semicolon" unicode=";" horiz-adv-x="306" 
d="M123 426h80v110h-80v-110zM103 -130q100 24 100 156v84h-80v-110h43q-3 -84 -63 -100v-30z" />
    <glyph glyph-name="less" unicode="&#x3c;" horiz-adv-x="554" 
d="M482 39v81l-323 148l323 148v81l-410 -195v-68z" />
    <glyph glyph-name="equal" unicode="=" horiz-adv-x="670" 
d="M110 331h450v75h-450v-75zM110 96h450v75h-450v-75z" />
    <glyph glyph-name="greater" unicode="&#x3e;" horiz-adv-x="537" 
d="M72 39l410 195v68l-410 195v-81l323 -148l-323 -148v-81z" />
    <glyph glyph-name="question" unicode="?" horiz-adv-x="499" 
d="M167 214h80v10q0 47 25 82.5t58 68.5q29 29 58 58.5t48 64.5t19 80q0 48 -25.5 88.5t-71 65.5t-105.5 25q-85 0 -144.5 -50t-73.5 -133l71 -15q11 58 51 93t96 35q59 0 90.5 -33.5t31.5 -75.5q0 -49 -30 -85.5t-68 -72.5q-27 -25 -52 -53.5t-41.5 -63t-16.5 -79.5v-10z
M170 0h80v110h-80v-110z" />
    <glyph glyph-name="at" unicode="@" horiz-adv-x="929" 
d="M482 -70q112 0 197 48l-32 60q-70 -38 -163 -38q-77 0 -140 27t-108.5 74.5t-70 110t-24.5 134.5q0 74 25.5 136t71.5 108t108.5 71.5t135.5 25.5q75 0 137 -26t107 -72t70 -108t25 -134q0 -70 -23.5 -105t-65.5 -35q-28 0 -44.5 17t-16.5 54v276h-65v-56
q-25 31 -63.5 48.5t-83.5 17.5q-58 0 -104.5 -28.5t-73.5 -76.5t-27 -109t27 -109t73.5 -76t104.5 -28q46 0 84.5 18t62.5 53q16 -33 50.5 -52t74.5 -19q78 0 121.5 59t43.5 153q0 80 -30.5 153t-86 130.5t-131.5 91t-166 33.5q-87 0 -163 -31.5t-132.5 -87.5t-88.5 -131
t-32 -162t31.5 -162.5t88.5 -132.5t132.5 -88.5t163.5 -31.5zM462 207q-38 0 -68 19t-47.5 51.5t-17.5 72.5q0 62 37.5 102t95.5 40t96 -39.5t38 -101.5q0 -41 -17.5 -73.5t-47.5 -51.5t-69 -19z" />
    <glyph glyph-name="A" unicode="A" horiz-adv-x="652" 
d="M11 0h84l65 182h333l64 -182h84l-272 745h-86zM186 257l140 394l139 -394h-279z" />
    <glyph glyph-name="B" unicode="B" horiz-adv-x="693" 
d="M88 0h314q109 0 172.5 58.5t63.5 158.5q0 59 -30.5 108t-84.5 76q85 51 85 157q0 84 -56 135.5t-151 51.5h-313v-745zM168 430v240h227q60 0 96.5 -29.5t36.5 -85.5q0 -55 -36.5 -90t-96.5 -35h-227zM168 75v283h234q71 0 113.5 -38.5t42.5 -103.5q0 -66 -42.5 -103.5
t-113.5 -37.5h-234z" />
    <glyph glyph-name="C" unicode="C" horiz-adv-x="781" 
d="M428 -12q76 0 136.5 27t102 69.5t59.5 88.5l-75 33q-28 -65 -85.5 -104t-137.5 -39q-82 0 -146 38.5t-100 108.5t-36 162q0 93 36 162.5t100 108.5t146 39q80 0 137.5 -39.5t85.5 -104.5l75 33q-18 47 -59.5 89.5t-102 69.5t-136.5 27q-79 0 -145 -28.5t-114.5 -80.5
t-75.5 -122t-27 -154t27 -154t75.5 -121.5t114.5 -80t145 -28.5z" />
    <glyph glyph-name="D" unicode="D" horiz-adv-x="742" 
d="M88 0h245q111 0 193 46t127 130t45 197q0 114 -45 197.5t-127 129t-193 45.5h-245v-745zM168 75v595h165q85 0 148 -36.5t98 -103t35 -157.5t-34.5 -158t-97.5 -103.5t-149 -36.5h-165z" />
    <glyph glyph-name="E" unicode="E" horiz-adv-x="612" 
d="M88 0h480v75h-400v261h380v75h-380v259h400v75h-480v-745z" />
    <glyph glyph-name="F" unicode="F" horiz-adv-x="581" 
d="M88 0h80v336h350v75h-350v259h380v75h-460v-745z" />
    <glyph glyph-name="G" unicode="G" horiz-adv-x="821" 
d="M428 -12q71 0 132.5 24.5t107.5 69.5t72 106.5t26 134.5v62h-338v-70h258v-5q0 -72 -34 -127.5t-92.5 -87.5t-131.5 -32q-82 0 -146 38.5t-100 108.5t-36 162q0 93 36 162.5t100 108.5t146 39t140 -39t86 -107l72 35q-18 47 -59.5 89.5t-102 69.5t-136.5 27
q-79 0 -145 -28.5t-114.5 -80.5t-75.5 -122t-27 -154t27 -154t75.5 -121.5t114.5 -80t145 -28.5z" />
    <glyph glyph-name="H" unicode="H" horiz-adv-x="736" 
d="M88 0h80v335h400v-335h80v745h-80v-335h-400v335h-80v-745z" />
    <glyph glyph-name="I" unicode="I" horiz-adv-x="256" 
d="M88 0h80v745h-80v-745z" />
    <glyph glyph-name="J" unicode="J" horiz-adv-x="383" 
d="M55 0h40q92 0 146 55.5t54 149.5v540h-80v-540q0 -58 -32 -91.5t-88 -33.5h-40v-80z" />
    <glyph glyph-name="K" unicode="K" horiz-adv-x="654" 
d="M88 0h80v225l125 142l254 -367h96l-295 430l277 315h-100l-357 -406v406h-80v-745z" />
    <glyph glyph-name="L" unicode="L" horiz-adv-x="531" 
d="M88 0h410v75h-330v670h-80v-745z" />
    <glyph glyph-name="M" unicode="M" horiz-adv-x="836" 
d="M88 0h80v591l248 -361h4l248 359v-589h80v745h-70l-260 -378l-260 378h-70v-745z" />
    <glyph glyph-name="N" unicode="N" horiz-adv-x="736" 
d="M88 0h80v592l410 -592h70v745h-80v-588l-410 588h-70v-745z" />
    <glyph glyph-name="O" unicode="O" horiz-adv-x="878" 
d="M439 -12q78 0 145.5 28.5t118.5 80t80 122t29 154.5t-29 154t-80 121.5t-118.5 80t-145.5 28.5t-145.5 -28t-118.5 -79.5t-80 -122t-29 -154.5t29 -154.5t80 -122t118.5 -80t145.5 -28.5zM439 63q-86 0 -152 42t-103.5 112.5t-37.5 155.5q0 63 21.5 119t60.5 99t92.5 67
t118.5 24t118.5 -24t92.5 -67t60.5 -99t21.5 -119q0 -85 -37.5 -155.5t-103.5 -112.5t-152 -42z" />
    <glyph glyph-name="P" unicode="P" horiz-adv-x="643" 
d="M88 0h80v290h176q74 0 128.5 28.5t85 79.5t30.5 119t-30.5 119.5t-85.5 80t-128 28.5h-256v-745zM168 365v305h180q72 0 116 -40.5t44 -111.5t-44 -112t-116 -41h-180z" />
    <glyph glyph-name="Q" unicode="Q" horiz-adv-x="878" 
d="M439 -12q75 0 143 28l72 -106h91l-96 141q74 50 118.5 133.5t44.5 188.5q0 84 -29 154t-80 121.5t-118.5 80t-145.5 28.5t-145.5 -28t-118.5 -79.5t-80 -122t-29 -154.5t29 -154.5t80 -122t118.5 -80t145.5 -28.5zM439 63q-86 0 -152 42t-103.5 112.5t-37.5 155.5
q0 63 21.5 119t60.5 99t92.5 67t118.5 24t118.5 -24t92.5 -67t60.5 -99t21.5 -119q0 -81 -34 -149t-93 -109l-125 183h-91l149 -218q-47 -17 -99 -17z" />
    <glyph glyph-name="R" unicode="R" horiz-adv-x="641" 
d="M88 0h80v290h182l164 -290h94l-174 303q71 23 112.5 79t41.5 135q0 68 -30.5 119.5t-85.5 80t-128 28.5h-256v-745zM168 365v305h180q72 0 116 -40.5t44 -111.5t-44 -112t-116 -41h-180z" />
    <glyph glyph-name="S" unicode="S" horiz-adv-x="646" 
d="M339 -12q71 0 125.5 26t85 71.5t30.5 105.5q0 74 -45 123t-133 75l-118 35q-60 18 -89 54.5t-29 82.5q0 57 40 90.5t104 33.5q68 0 118.5 -34t74.5 -100l70 28q-16 49 -53 89t-90.5 64.5t-120.5 24.5q-64 0 -114.5 -26t-79.5 -71.5t-29 -104.5q0 -69 42.5 -123t121.5 -77
l134 -40q56 -16 86 -46t30 -85q0 -56 -44.5 -90t-116.5 -34q-76 0 -131 39.5t-81 115.5l-72 -27q17 -55 57 -100.5t98 -72.5t129 -27z" />
    <glyph glyph-name="T" unicode="T" horiz-adv-x="512" 
d="M217 0h80v670h204v75h-490v-75h206v-670z" />
    <glyph glyph-name="U" unicode="U" horiz-adv-x="700" 
d="M350 -12q80 0 139.5 33t92.5 90.5t33 131.5v502h-80v-502q0 -81 -51 -130.5t-134 -49.5q-82 0 -133.5 49.5t-51.5 130.5v502h-80v-502q0 -74 33 -131.5t93 -90.5t139 -33z" />
    <glyph glyph-name="V" unicode="V" horiz-adv-x="652" 
d="M284 0h84l273 745h-84l-231 -651l-232 651h-83z" />
    <glyph glyph-name="W" unicode="W" horiz-adv-x="984" 
d="M225 0h85l182 638l182 -638h85l214 745h-81l-177 -635l-180 635h-85l-181 -637l-177 637h-81z" />
    <glyph glyph-name="X" unicode="X" horiz-adv-x="597" 
d="M11 0h88l199 311l198 -311h90l-243 380l234 365h-90l-189 -297l-189 297h-90l234 -365z" />
    <glyph glyph-name="Y" unicode="Y" horiz-adv-x="623" 
d="M272 0h80v346l260 399h-89l-211 -323l-212 323h-89l261 -399v-346z" />
    <glyph glyph-name="Z" unicode="Z" horiz-adv-x="584" 
d="M22 0h540v75h-434l425 616v54h-506v-75h401l-426 -616v-54z" />
    <glyph glyph-name="bracketleft" unicode="[" horiz-adv-x="315" 
d="M88 -140h200v70h-120v745h120v70h-200v-885z" />
    <glyph glyph-name="backslash" unicode="\" horiz-adv-x="429" 
d="M340 -40h87l-338 825h-87z" />
    <glyph glyph-name="bracketright" unicode="]" horiz-adv-x="315" 
d="M27 -140h200v885h-200v-70h120v-745h-120v-70z" />
    <glyph glyph-name="asciicircum" unicode="^" horiz-adv-x="504" 
d="M48 425h86l119 227l117 -227h86l-169 320h-70z" />
    <glyph glyph-name="underscore" unicode="_" horiz-adv-x="598" 
d="M74 -70h450v70h-450v-70z" />
    <glyph glyph-name="grave" unicode="`" horiz-adv-x="360" 
d="M194 640h63l-78 144h-76z" />
    <glyph glyph-name="a" unicode="a" horiz-adv-x="572" 
d="M232 -12q62 0 112 25t76 64v-77h75v368q0 53 -25.5 93.5t-71 63.5t-104.5 23q-45 0 -87 -16.5t-74.5 -44.5t-47.5 -62l68 -37q18 39 55 63.5t86 24.5q56 0 91 -30t35 -78v-28l-194 -32q-89 -15 -130 -61t-41 -108q0 -44 23 -78t63 -53.5t91 -19.5zM135 142q0 37 25.5 64
t83.5 37l176 29v-40q0 -49 -23 -89t-64 -63.5t-96 -23.5q-45 0 -73.5 25t-28.5 61z" />
    <glyph glyph-name="b" unicode="b" horiz-adv-x="667" 
d="M348 -12q76 0 135.5 36.5t94 100t34.5 143.5q0 81 -34.5 144t-94 99.5t-135.5 36.5q-63 0 -113 -25t-83 -68v302h-75v-757h75v87q30 -47 82 -73t114 -26zM344 63q-54 0 -97.5 27t-69 73.5t-25.5 104.5t25.5 104.5t69 73.5t97.5 27t96.5 -27t67 -73t24.5 -105
q0 -58 -24.5 -104.5t-67 -73.5t-96.5 -27z" />
    <glyph glyph-name="c" unicode="c" horiz-adv-x="600" 
d="M322 -12q50 0 94 18t78 49t51 70l-68 37q-21 -45 -61.5 -72t-93.5 -27t-95.5 27t-67 73.5t-24.5 104.5q0 59 24.5 105.5t67 73t95.5 26.5t94 -27t61 -70l68 35q-17 40 -51 70.5t-78 48.5t-94 18q-79 0 -139 -36.5t-94 -99.5t-34 -143t34 -143.5t94 -100.5t139 -37z" />
    <glyph glyph-name="d" unicode="d" horiz-adv-x="667" 
d="M319 -12q62 0 114 26t82 73v-87h75v757h-75v-302q-33 43 -83 68t-113 25q-76 0 -135.5 -36.5t-94 -99.5t-34.5 -144q0 -80 34.5 -143.5t94.5 -100t135 -36.5zM323 63q-54 0 -96.5 27t-67 73.5t-24.5 104.5q0 59 24.5 105t67.5 73t96 27q54 0 97.5 -27t69 -73.5
t25.5 -104.5t-25.5 -104.5t-69 -73.5t-97.5 -27z" />
    <glyph glyph-name="e" unicode="e" horiz-adv-x="615" 
d="M321 -12q55 0 100.5 18.5t78.5 49t49 66.5l-64 34q-25 -42 -65 -70t-99 -28q-48 0 -90 23t-68.5 64.5t-28.5 99.5h422q2 13 3 25.5t1 22.5q0 48 -17 93.5t-49 82t-77.5 58t-103.5 21.5q-73 0 -131.5 -36t-92.5 -98.5t-34 -143.5t35 -145t95.5 -100.5t135.5 -36.5z
M313 478q45 0 82.5 -21t60 -57.5t23.5 -84.5h-343q6 50 31.5 86.5t63.5 56.5t82 20z" />
    <glyph glyph-name="f" unicode="f" horiz-adv-x="393" 
d="M132 0h75v461h131v75h-131v48q0 57 32 80t80 23q5 0 17 -0.5t19 -2.5v68q-8 2 -21 3.5t-23 1.5q-47 0 -88 -20t-66 -58.5t-25 -94.5v-48h-107v-75h107v-461z" />
    <glyph glyph-name="g" unicode="g" horiz-adv-x="662" 
d="M331 -220q74 0 131.5 31.5t90 86t32.5 123.5v515h-75v-81q-32 43 -82 68t-109 25q-76 0 -135.5 -36t-94 -97t-34.5 -137q0 -75 34.5 -136.5t94.5 -97.5t135 -36q59 0 110 26t81 73v-86q0 -54 -25 -91t-66 -56t-90 -19q-64 0 -105 28t-57 66l-69 -37q27 -58 88.5 -95
t144.5 -37zM323 83q-54 0 -96.5 26.5t-67 71t-24.5 97.5q0 54 24.5 98t67.5 70.5t96 26.5q52 0 94 -26.5t67.5 -71t25.5 -97.5t-25.5 -97.5t-67.5 -71t-94 -26.5z" />
    <glyph glyph-name="h" unicode="h" 
d="M77 0h75v319q0 72 40.5 113t100.5 41t99.5 -40.5t39.5 -113.5v-319h75v348q0 57 -26.5 102.5t-72 71.5t-102.5 26q-50 0 -90 -21t-64 -57v287h-75v-757z" />
    <glyph glyph-name="i" unicode="i" horiz-adv-x="229" 
d="M77 635h75v110h-75v-110zM77 0h75v536h-75v-536z" />
    <glyph glyph-name="j" unicode="j" horiz-adv-x="229" 
d="M77 635h75v110h-75v-110zM-23 -220q48 0 87.5 19.5t63.5 57.5t24 93v586h-75v-586q0 -50 -28.5 -75t-69.5 -25q-21 0 -42 3v-69q8 -2 20.5 -3t19.5 -1z" />
    <glyph glyph-name="k" unicode="k" horiz-adv-x="548" 
d="M77 0h75v161l102 105l193 -266h90l-229 321l210 215h-97l-269 -272v493h-75v-757z" />
    <glyph glyph-name="l" unicode="l" horiz-adv-x="229" 
d="M77 0h75v757h-75v-757z" />
    <glyph glyph-name="m" unicode="m" horiz-adv-x="908" 
d="M77 0h75v319q0 72 39 113t97 41t96 -40.5t38 -113.5v-319h75v319q0 72 39 113t97 41t96 -40.5t38 -113.5v-319h75v348q0 57 -27.5 102.5t-73 71.5t-99.5 26t-99.5 -26t-69.5 -76q-25 46 -71 74t-101 28q-46 0 -85.5 -20.5t-63.5 -57.5v66h-75v-536z" />
    <glyph glyph-name="n" unicode="n" 
d="M77 0h75v319q0 72 40 113t101 41q62 0 100.5 -40.5t38.5 -113.5v-319h75v348q0 57 -26.5 102.5t-72 71.5t-102.5 26q-50 0 -90 -21t-64 -57v66h-75v-536z" />
    <glyph glyph-name="o" unicode="o" horiz-adv-x="655" 
d="M328 -12q75 0 136.5 36t98.5 99.5t37 145.5q0 81 -35.5 144t-97 99t-139.5 36t-139.5 -36.5t-97.5 -99.5t-36 -143q0 -81 36.5 -144.5t98.5 -100t138 -36.5zM328 63q-54 0 -97.5 27t-69.5 74t-26 105t26 104t69.5 73t97.5 27t97.5 -27t69 -73t25.5 -104t-25.5 -105
t-69 -74t-97.5 -27z" />
    <glyph glyph-name="p" unicode="p" horiz-adv-x="667" 
d="M77 -200h75v287q30 -47 82 -73t114 -26q76 0 135.5 36.5t94 100t34.5 143.5q0 81 -34.5 144t-94 99.5t-135.5 36.5q-63 0 -113 -25t-83 -68v81h-75v-736zM344 63q-54 0 -97.5 27t-69 73.5t-25.5 104.5t25.5 104.5t69 73.5t97.5 27t96.5 -27t67 -73t24.5 -105
q0 -58 -24.5 -104.5t-67 -73.5t-96.5 -27z" />
    <glyph glyph-name="q" unicode="q" horiz-adv-x="667" 
d="M515 -200h75v736h-75v-81q-33 43 -83 68t-113 25q-76 0 -135.5 -36.5t-94 -99.5t-34.5 -144q0 -80 34.5 -143.5t94.5 -100t135 -36.5q62 0 114 26t82 73v-287zM323 63q-54 0 -96.5 27t-67 73.5t-24.5 104.5q0 59 24.5 105t67.5 73t96 27q54 0 97.5 -27t69 -73.5
t25.5 -104.5t-25.5 -104.5t-69 -73.5t-97.5 -27z" />
    <glyph glyph-name="r" unicode="r" horiz-adv-x="338" 
d="M77 0h75v330q0 66 35 102t93 36h47v75h-34q-49 0 -84.5 -17t-56.5 -48v58h-75v-536z" />
    <glyph glyph-name="s" unicode="s" horiz-adv-x="509" 
d="M263 -12q56 0 99 19.5t67.5 54.5t24.5 79q0 54 -36.5 94t-101.5 59l-89 26q-14 4 -32.5 12t-32.5 24t-14 43q0 35 27 58t72 23q46 0 83.5 -25.5t57.5 -70.5l64 30q-23 63 -78.5 98.5t-123.5 35.5q-50 0 -91 -19t-65 -54t-24 -82q0 -50 33 -88t107 -59l77 -22
q16 -4 37 -13t37 -25.5t16 -44.5q0 -38 -33 -61.5t-81 -23.5q-50 0 -91.5 29t-64.5 78l-63 -30q26 -67 84 -106t135 -39z" />
    <glyph glyph-name="t" unicode="t" horiz-adv-x="388" 
d="M282 -6q9 0 24 1t27 4v68q-8 -1 -19 -2t-19 -1q-50 0 -69 26t-19 66v305h118v75h-118v124h-75v-45q0 -34 -20 -56.5t-54 -22.5h-25v-75h99v-305q0 -78 39 -120t111 -42z" />
    <glyph glyph-name="u" unicode="u" 
d="M267 -12q50 0 90 21t64 57v-66h75v536h-75v-319q0 -72 -39.5 -113t-101.5 -41q-61 0 -100 39.5t-39 104.5v329h-75v-338q0 -62 26.5 -109.5t72.5 -74t102 -26.5z" />
    <glyph glyph-name="v" unicode="v" horiz-adv-x="517" 
d="M220 0h75l211 536h-85l-163 -434l-163 434h-84z" />
    <glyph glyph-name="w" unicode="w" horiz-adv-x="797" 
d="M195 0h75l129 424l128 -424h75l184 536h-84l-137 -421l-129 421h-75l-128 -421l-137 421h-85z" />
    <glyph glyph-name="x" unicode="x" horiz-adv-x="487" 
d="M11 0h93l140 204l140 -204h92l-187 268l187 268h-92l-140 -204l-140 204h-92l187 -268z" />
    <glyph glyph-name="y" unicode="y" horiz-adv-x="536" 
d="M88 -220q53 0 90 21.5t61.5 56.5t40.5 74l245 605h-83l-175 -443l-175 443h-81l214 -537l-19 -46q-25 -58 -51 -78.5t-75 -20.5q-16 0 -31.5 2.5t-25.5 3.5v-70q16 -6 32.5 -8.5t32.5 -2.5z" />
    <glyph glyph-name="z" unicode="z" horiz-adv-x="449" 
d="M22 0h405v75h-302l300 396v65h-386v-75h284l-301 -396v-65z" />
    <glyph glyph-name="braceleft" unicode="{" horiz-adv-x="317" 
d="M256 -140h34v70h-34q-30 0 -47.5 20t-16.5 51v191q3 68 -48 110q53 45 48 112v190q-1 32 16.5 51.5t47.5 19.5h34v70h-34q-64 0 -104 -38.5t-40 -102.5v-194q0 -33 -15.5 -53t-48.5 -20h-28v-70h28q33 0 48.5 -20t15.5 -53v-193q0 -64 40 -102.5t104 -38.5z" />
    <glyph glyph-name="bar" unicode="|" horiz-adv-x="300" 
d="M110 -190h80v1035h-80v-1035z" />
    <glyph glyph-name="braceright" unicode="}" horiz-adv-x="317" 
d="M27 -140h34q65 0 104.5 38.5t39.5 102.5v193q0 33 15.5 53t48.5 20h28v70h-28q-33 0 -48.5 20t-15.5 53v194q0 64 -39.5 102.5t-104.5 38.5h-34v-70h34q30 0 48 -19.5t16 -51.5v-190q-5 -67 48 -112q-51 -42 -48 -110v-191q2 -31 -16 -51t-48 -20h-34v-70z" />
    <glyph glyph-name="asciitilde" unicode="~" horiz-adv-x="618" 
d="M407 220q54 0 86 35t38 102h-67q-6 -35 -23 -51t-43 -16q-24 0 -43.5 10.5t-39 24.5t-43 24.5t-56.5 10.5q-54 0 -89 -34.5t-41 -102.5h67q11 67 72 67q24 0 43.5 -10.5t39 -24.5t43 -24.5t56.5 -10.5z" />
    <glyph glyph-name="uni00A0" unicode="&#xa0;" horiz-adv-x="170" 
 />
    <glyph glyph-name="exclamdown" unicode="&#xa1;" horiz-adv-x="282" 
d="M101 426h80v110h-80v-110zM101 -209h80l-5 531h-70z" />
    <glyph glyph-name="cent" unicode="&#xa2;" horiz-adv-x="600" 
d="M280 0h70v95q66 7 118.5 44.5t76.5 90.5l-68 37q-18 -39 -51 -64.5t-76 -32.5v406q43 -7 76 -32.5t51 -62.5l68 35q-24 54 -76.5 91t-118.5 44v94h-70v-95q-67 -9 -118 -47t-79 -97t-28 -132t28 -132t79 -97.5t118 -48.5v-96zM135 373q0 76 40.5 130.5t104.5 69.5v-400
q-64 15 -104.5 69.5t-40.5 130.5z" />
    <glyph glyph-name="sterling" unicode="&#xa3;" horiz-adv-x="643" 
d="M44 0h519v70h-339v276h169v65h-169v129q0 69 39.5 108t109.5 39q63 0 104.5 -36t48.5 -104l73 16q-11 91 -73 142.5t-153 51.5q-68 0 -120 -27.5t-80.5 -76t-28.5 -113.5v-129h-100v-65h100v-276h-100v-70z" />
    <glyph glyph-name="currency" unicode="&#xa4;" horiz-adv-x="588" 
d="M104 30l76 76q26 -19 55.5 -28t58.5 -9q32 0 61 10t53 27l76 -76l49 49l-76 76q17 24 27 53t10 61t-10 60.5t-27 53.5l76 76l-49 49l-76 -76q-52 37 -114 37q-31 0 -60 -10t-54 -27l-76 76l-49 -49l76 -76q-17 -25 -27 -54t-10 -60t10 -60.5t27 -53.5l-76 -76zM294 145
q-34 0 -62.5 16.5t-45.5 45t-17 62.5q0 35 17 63t45.5 45t62.5 17t62 -17t45 -45t17 -63q0 -34 -17 -62.5t-45 -45t-62 -16.5z" />
    <glyph glyph-name="yen" unicode="&#xa5;" horiz-adv-x="623" 
d="M137 153h135v-153h80v153h134v65h-134v90h134v65h-116l242 372h-89l-211 -323l-212 323h-89l243 -372h-117v-65h135v-90h-135v-65z" />
    <glyph glyph-name="brokenbar" unicode="&#xa6;" horiz-adv-x="300" 
d="M110 428h80v417h-80v-417zM110 -190h80v418h-80v-418z" />
    <glyph glyph-name="section" unicode="&#xa7;" horiz-adv-x="529" 
d="M274 -105q59 0 104 21t70.5 57.5t25.5 82.5q0 43 -22.5 78t-63.5 58q40 21 63 56t23 79q0 57 -38.5 99t-106.5 62l-94 28q-16 5 -35.5 13.5t-34 25.5t-14.5 45q0 38 29 62.5t77 24.5t87.5 -27t61.5 -74l65 31q-24 65 -82 102.5t-129 37.5q-52 0 -95 -20.5t-68.5 -57
t-25.5 -85.5q0 -41 21 -74.5t67 -56.5q-40 -20 -64 -56.5t-24 -83.5q0 -52 35 -91.5t112 -62.5l82 -24q18 -5 40.5 -15t38.5 -27.5t16 -46.5q0 -40 -35 -65.5t-86 -25.5q-53 0 -96.5 30.5t-68.5 82.5l-65 -31q27 -70 87.5 -111t142.5 -41zM235 245q-16 5 -35.5 15t-34 29
t-14.5 50q0 37 23 63.5t63 32.5l63 -19q18 -5 40.5 -16.5t38.5 -31t16 -51.5q0 -36 -22.5 -61t-57.5 -35z" />
    <glyph glyph-name="dieresis" unicode="&#xa8;" horiz-adv-x="486" 
d="M161 660q24 0 40.5 16.5t16.5 41.5q0 24 -16.5 40.5t-40.5 16.5q-25 0 -41.5 -16.5t-16.5 -40.5q0 -25 16.5 -41.5t41.5 -16.5zM326 660q24 0 40.5 16.5t16.5 41.5q0 24 -16.5 40.5t-40.5 16.5q-25 0 -41.5 -16.5t-16.5 -40.5q0 -25 16.5 -41.5t41.5 -16.5z" />
    <glyph glyph-name="copyright" unicode="&#xa9;" horiz-adv-x="895" 
d="M448 -12q79 0 148.5 29.5t122.5 82.5t83 122.5t30 150.5q0 79 -29.5 148.5t-82.5 122.5t-122.5 83t-149.5 30q-81 0 -150.5 -30t-122.5 -83t-82.5 -122.5t-29.5 -148.5q0 -80 29.5 -150t82.5 -123t123 -82.5t150 -29.5zM448 58q-66 0 -123.5 24t-100.5 67t-67 100.5
t-24 123.5t24 123t67 100t100.5 67t123.5 24t123 -24.5t100 -67.5t67 -100t24 -122q0 -66 -24 -123.5t-67 -100.5t-100 -67t-123 -24zM454 163q64 0 109 31.5t61 73.5l-62 30q-13 -31 -41 -51t-67 -20q-58 0 -95 40.5t-37 105.5t37 105t95 40q41 0 68.5 -21t39.5 -50l62 30
q-16 42 -61 73.5t-109 31.5q-58 0 -103.5 -27t-72 -74t-26.5 -108q0 -60 26.5 -107.5t72 -75t103.5 -27.5z" />
    <glyph glyph-name="ordfeminine" unicode="&#xaa;" horiz-adv-x="455" 
d="M183 361q41 0 73 14.5t52 39.5v-46h70v255q0 58 -41.5 94.5t-108.5 36.5q-50 0 -94 -25t-61 -68l62 -31q11 26 35.5 42.5t55.5 16.5q35 0 57 -18.5t22 -47.5v-15l-124 -21q-62 -10 -94 -41.5t-32 -78.5q0 -48 35.5 -77.5t92.5 -29.5zM132 471q0 23 15 38.5t49 21.5
l109 18v-22q0 -45 -31 -76t-81 -31q-26 0 -43.5 14.5t-17.5 36.5z" />
    <glyph glyph-name="guillemotleft" unicode="&#xab;" horiz-adv-x="540" 
d="M181 79h90l-152 190l152 190h-90l-152 -190zM421 79h90l-152 190l152 190h-90l-152 -190z" />
    <glyph glyph-name="logicalnot" unicode="&#xac;" horiz-adv-x="676" 
d="M491 40h75v248h-500v-75h425v-173z" />
    <glyph glyph-name="uni00AD" unicode="&#xad;" horiz-adv-x="498" 
d="M74 233h350v70h-350v-70z" />
    <glyph glyph-name="registered" unicode="&#xae;" horiz-adv-x="639" 
d="M320 272q71 0 129 34.5t92.5 93t34.5 128.5q0 71 -34.5 129t-92.5 92.5t-129 34.5t-129.5 -34.5t-93 -92.5t-34.5 -129q0 -70 34.5 -128.5t93 -93t129.5 -34.5zM320 330q-56 0 -101 26.5t-71.5 71.5t-26.5 100t26.5 100t71.5 71.5t101 26.5q55 0 99.5 -26.5t71.5 -71.5
t27 -100q0 -56 -27 -101t-71.5 -71t-99.5 -26zM222 394h58v95h45l54 -95h65l-63 106q46 23 46 77q0 42 -27 64.5t-69 22.5h-109v-270zM280 541v71h51q17 0 27 -10t10 -25t-10 -25.5t-27 -10.5h-51z" />
    <glyph glyph-name="macron" unicode="&#xaf;" horiz-adv-x="466" 
d="M103 670h260v60h-260v-60z" />
    <glyph glyph-name="degree" unicode="&#xb0;" horiz-adv-x="482" 
d="M241 440q46 0 82 20.5t57 56.5t21 81t-21 81t-57 57t-82 21q-45 0 -81.5 -21t-57.5 -57t-21 -81t21 -81t57.5 -56.5t81.5 -20.5zM240 502q-40 0 -68 26.5t-28 69.5q0 44 28 70.5t68 26.5t69 -26.5t29 -70.5q0 -43 -29 -69.5t-69 -26.5z" />
    <glyph glyph-name="plusminus" unicode="&#xb1;" horiz-adv-x="606" 
d="M266 145h75v173h212v75h-212v172h-75v-172h-213v-75h213v-173zM53 0h500v75h-500v-75z" />
    <glyph glyph-name="uni00B2" unicode="&#xb2;" horiz-adv-x="427" 
d="M40 223h345v66h-242l128 137q47 50 75 91t28 90q0 64 -45 105t-118 41q-64 0 -112.5 -36.5t-62.5 -100.5l68 -19q11 42 39 64.5t68 22.5q38 0 62 -21.5t24 -61.5q0 -24 -11 -45.5t-36 -50t-67 -73.5l-143 -154v-55z" />
    <glyph glyph-name="uni00B3" unicode="&#xb3;" horiz-adv-x="436" 
d="M213 215q53 0 94.5 22.5t65 61t23.5 87.5q0 64 -38 105.5t-100 49.5l116 141v63h-312v-66h226l-138 -166l17 -35q21 7 46 7q47 0 76.5 -26.5t29.5 -73.5q0 -48 -29.5 -75t-76.5 -27q-39 0 -69 21.5t-44 58.5l-65 -26q17 -56 66.5 -89t111.5 -33z" />
    <glyph glyph-name="acute" unicode="&#xb4;" horiz-adv-x="360" 
d="M103 640h63l91 144h-76z" />
    <glyph glyph-name="uni00B5" unicode="&#xb5;" 
d="M66 -140h75v171q26 -20 58 -31.5t68 -11.5q50 0 90 20.5t64 58.5v-67h75v536h-75v-319q0 -72 -39.5 -113t-101.5 -41q-61 0 -100 39.5t-39 104.5v329h-75v-676z" />
    <glyph glyph-name="paragraph" unicode="&#xb6;" horiz-adv-x="398" 
d="M208 -100h80v845h-80q-45 0 -81 -21.5t-57.5 -58t-21.5 -81.5q0 -44 21.5 -81t57.5 -58.5t81 -21.5v-523z" />
    <glyph glyph-name="periodcentered" unicode="&#xb7;" horiz-adv-x="286" 
d="M103 213h80v110h-80v-110z" />
    <glyph glyph-name="cedilla" unicode="&#xb8;" horiz-adv-x="386" 
d="M178 -200q50 0 77.5 25.5t27.5 62.5q0 32 -22.5 52t-56.5 20q-11 0 -21 -2l6 62h-51l-12 -104l20 -8q20 10 41 10q36 0 36 -33q0 -39 -49 -39q-12 0 -28 2.5t-31 8.5l-12 -42q14 -7 35 -11t40 -4z" />
    <glyph glyph-name="uni00B9" unicode="&#xb9;" horiz-adv-x="302" 
d="M120 223h77v522h-176v-67h99v-455z" />
    <glyph glyph-name="ordmasculine" unicode="&#xba;" horiz-adv-x="503" 
d="M252 361q54 0 98.5 25.5t71 69.5t26.5 102q0 57 -26 101.5t-70.5 70t-99.5 25.5t-99.5 -25.5t-71 -70t-26.5 -101.5t26.5 -101.5t71.5 -70t99 -25.5zM252 430q-52 0 -86 37t-34 91q0 55 34 91.5t86 36.5q50 0 84.5 -36.5t34.5 -91.5t-34.5 -91.5t-84.5 -36.5z" />
    <glyph glyph-name="guillemotright" unicode="&#xbb;" horiz-adv-x="540" 
d="M269 79h90l152 190l-152 190h-90l152 -190zM29 79h90l152 190l-152 190h-90l152 -190z" />
    <glyph glyph-name="onequarter" unicode="&#xbc;" horiz-adv-x="891" 
d="M101 328h72v417h-152v-62h80v-355zM121 0h82l446 745h-82zM722 0h70v93h60v60h-60v264h-74l-191 -264v-60h195v-93zM722 153h-124l124 174v-174z" />
    <glyph glyph-name="onehalf" unicode="&#xbd;" horiz-adv-x="852" 
d="M101 328h72v417h-152v-62h80v-355zM121 0h82l446 745h-82zM531 0h279v62h-184l99 105q32 35 55 67.5t23 72.5q0 51 -37 84t-97 33q-50 0 -90 -29t-51 -79l64 -20q8 31 29 47t48 16t44.5 -15.5t17.5 -43.5q0 -26 -20 -52t-66 -74l-114 -120v-54z" />
    <glyph glyph-name="threequarters" unicode="&#xbe;" horiz-adv-x="982" 
d="M180 321q43 0 76.5 18.5t53 50.5t19.5 71q0 50 -28.5 83t-75.5 40l87 103v58h-254v-61h173l-108 -126l16 -34q18 8 41 8q35 0 56 -19t21 -53t-21.5 -54t-55.5 -20q-28 0 -50 15.5t-33 43.5l-62 -23q13 -46 53.5 -73.5t91.5 -27.5zM212 0h82l446 745h-82zM813 0h70v93h60
v60h-60v264h-74l-191 -264v-60h195v-93zM813 153h-124l124 174v-174z" />
    <glyph glyph-name="questiondown" unicode="&#xbf;" horiz-adv-x="499" 
d="M249 426h80v110h-80v-110zM246 -221q86 0 145.5 50.5t72.5 132.5l-71 15q-11 -58 -51 -93t-96 -35q-58 0 -90 33.5t-32 75.5q0 50 30.5 86t67.5 72q27 26 52.5 54t41.5 62.5t16 79.5v10h-80v-10q0 -46 -25 -82t-58 -69q-29 -29 -58 -58.5t-48 -64.5t-19 -80
q0 -47 25.5 -88t71 -66t105.5 -25z" />
    <glyph glyph-name="Agrave" unicode="&#xc0;" horiz-adv-x="652" 
d="M11 0h84l65 182h333l64 -182h84l-272 745h-86zM186 257l140 394l139 -394h-279zM294 849h63l-78 144h-76z" />
    <glyph glyph-name="Aacute" unicode="&#xc1;" horiz-adv-x="652" 
d="M11 0h84l65 182h333l64 -182h84l-272 745h-86zM186 257l140 394l139 -394h-279zM294 849h63l91 144h-76z" />
    <glyph glyph-name="Acircumflex" unicode="&#xc2;" horiz-adv-x="652" 
d="M11 0h84l65 182h333l64 -182h84l-272 745h-86zM186 257l140 394l139 -394h-279zM176 849h68l81 103l83 -103h68l-114 144h-74z" />
    <glyph glyph-name="Atilde" unicode="&#xc3;" horiz-adv-x="652" 
d="M11 0h84l65 182h333l64 -182h84l-272 745h-86zM186 257l140 394l139 -394h-279zM386 889q35 0 57 26t23 71h-54q-1 -18 -9 -29t-24 -11q-18 0 -32 11t-32 22.5t-48 11.5q-34 0 -56.5 -26t-24.5 -71h54q2 22 11 31t22 9q19 0 33 -11.5t32 -22.5t48 -11z" />
    <glyph glyph-name="Adieresis" unicode="&#xc4;" horiz-adv-x="652" 
d="M11 0h84l65 182h333l64 -182h84l-272 745h-86zM186 257l140 394l139 -394h-279zM244 869q24 0 40.5 16.5t16.5 41.5q0 24 -16.5 40.5t-40.5 16.5q-25 0 -41.5 -16.5t-16.5 -40.5q0 -25 16.5 -41.5t41.5 -16.5zM409 869q24 0 40.5 16.5t16.5 41.5q0 24 -16.5 40.5
t-40.5 16.5q-25 0 -41.5 -16.5t-16.5 -40.5q0 -25 16.5 -41.5t41.5 -16.5z" />
    <glyph glyph-name="Aring" unicode="&#xc5;" horiz-adv-x="652" 
d="M11 0h84l65 182h333l64 -182h84l-272 745h-86zM186 257l140 394l139 -394h-279zM326 799q51 0 85.5 34.5t34.5 84.5q0 51 -34.5 85.5t-85.5 34.5q-52 0 -86.5 -34.5t-34.5 -85.5q0 -50 34.5 -84.5t86.5 -34.5zM325 852q-28 0 -47 18.5t-19 47.5q0 30 19 48.5t47 18.5
q27 0 46.5 -18.5t19.5 -48.5q0 -29 -19.5 -47.5t-46.5 -18.5z" />
    <glyph glyph-name="AE" unicode="&#xc6;" horiz-adv-x="985" 
d="M11 0h84l65 182h301v-182h480v75h-400v261h380v75h-380v259h400v75h-658zM186 257l147 413h128v-413h-275z" />
    <glyph glyph-name="Ccedilla" unicode="&#xc7;" horiz-adv-x="781" 
d="M428 -12q76 0 136.5 27t102 69.5t59.5 88.5l-75 33q-28 -65 -85.5 -104t-137.5 -39q-82 0 -146 38.5t-100 108.5t-36 162q0 93 36 162.5t100 108.5t146 39q80 0 137.5 -39.5t85.5 -104.5l75 33q-18 47 -59.5 89.5t-102 69.5t-136.5 27q-79 0 -145 -28.5t-114.5 -80.5
t-75.5 -122t-27 -154t27 -154t75.5 -121.5t114.5 -80t145 -28.5zM405 -220q50 0 77.5 25.5t27.5 62.5q0 32 -22.5 52t-56.5 20q-11 0 -21 -2l6 62h-51l-12 -104l20 -8q20 10 41 10q36 0 36 -33q0 -39 -49 -39q-12 0 -28 2.5t-31 8.5l-12 -42q14 -7 35 -11t40 -4z" />
    <glyph glyph-name="Egrave" unicode="&#xc8;" horiz-adv-x="612" 
d="M88 0h480v75h-400v261h380v75h-380v259h400v75h-480v-745zM296 849h63l-78 144h-76z" />
    <glyph glyph-name="Eacute" unicode="&#xc9;" horiz-adv-x="612" 
d="M88 0h480v75h-400v261h380v75h-380v259h400v75h-480v-745zM296 849h63l91 144h-76z" />
    <glyph glyph-name="Ecircumflex" unicode="&#xca;" horiz-adv-x="612" 
d="M88 0h480v75h-400v261h380v75h-380v259h400v75h-480v-745zM178 849h68l81 103l83 -103h68l-114 144h-74z" />
    <glyph glyph-name="Edieresis" unicode="&#xcb;" horiz-adv-x="612" 
d="M88 0h480v75h-400v261h380v75h-380v259h400v75h-480v-745zM246 869q24 0 40.5 16.5t16.5 41.5q0 24 -16.5 40.5t-40.5 16.5q-25 0 -41.5 -16.5t-16.5 -40.5q0 -25 16.5 -41.5t41.5 -16.5zM411 869q24 0 40.5 16.5t16.5 41.5q0 24 -16.5 40.5t-40.5 16.5
q-25 0 -41.5 -16.5t-16.5 -40.5q0 -25 16.5 -41.5t41.5 -16.5z" />
    <glyph glyph-name="Igrave" unicode="&#xcc;" horiz-adv-x="256" 
d="M88 0h80v745h-80v-745zM96 849h63l-78 144h-76z" />
    <glyph glyph-name="Iacute" unicode="&#xcd;" horiz-adv-x="256" 
d="M88 0h80v745h-80v-745zM96 849h63l91 144h-76z" />
    <glyph glyph-name="Icircumflex" unicode="&#xce;" horiz-adv-x="256" 
d="M88 0h80v745h-80v-745zM-22 849h68l81 103l83 -103h68l-114 144h-74z" />
    <glyph glyph-name="Idieresis" unicode="&#xcf;" horiz-adv-x="256" 
d="M88 0h80v745h-80v-745zM46 869q24 0 40.5 16.5t16.5 41.5q0 24 -16.5 40.5t-40.5 16.5q-25 0 -41.5 -16.5t-16.5 -40.5q0 -25 16.5 -41.5t41.5 -16.5zM211 869q24 0 40.5 16.5t16.5 41.5q0 24 -16.5 40.5t-40.5 16.5q-25 0 -41.5 -16.5t-16.5 -40.5q0 -25 16.5 -41.5
t41.5 -16.5z" />
    <glyph glyph-name="Eth" unicode="&#xd0;" horiz-adv-x="742" 
d="M88 0h245q111 0 193 46t127 130t45 197q0 114 -45 197.5t-127 129t-193 45.5h-245v-340h-85v-65h85v-340zM168 75v265h185v65h-185v265h165q85 0 148 -36.5t98 -103t35 -157.5t-34.5 -158t-97.5 -103.5t-149 -36.5h-165z" />
    <glyph glyph-name="Ntilde" unicode="&#xd1;" horiz-adv-x="736" 
d="M88 0h80v592l410 -592h70v745h-80v-588l-410 588h-70v-745zM428 889q35 0 57 26t23 71h-54q-1 -18 -9 -29t-24 -11q-18 0 -32 11t-32 22.5t-48 11.5q-34 0 -56.5 -26t-24.5 -71h54q2 22 11 31t22 9q19 0 33 -11.5t32 -22.5t48 -11z" />
    <glyph glyph-name="Ograve" unicode="&#xd2;" horiz-adv-x="878" 
d="M439 -12q78 0 145.5 28.5t118.5 80t80 122t29 154.5t-29 154t-80 121.5t-118.5 80t-145.5 28.5t-145.5 -28t-118.5 -79.5t-80 -122t-29 -154.5t29 -154.5t80 -122t118.5 -80t145.5 -28.5zM439 63q-86 0 -152 42t-103.5 112.5t-37.5 155.5q0 63 21.5 119t60.5 99t92.5 67
t118.5 24t118.5 -24t92.5 -67t60.5 -99t21.5 -119q0 -85 -37.5 -155.5t-103.5 -112.5t-152 -42zM407 849h63l-78 144h-76z" />
    <glyph glyph-name="Oacute" unicode="&#xd3;" horiz-adv-x="878" 
d="M439 -12q78 0 145.5 28.5t118.5 80t80 122t29 154.5t-29 154t-80 121.5t-118.5 80t-145.5 28.5t-145.5 -28t-118.5 -79.5t-80 -122t-29 -154.5t29 -154.5t80 -122t118.5 -80t145.5 -28.5zM439 63q-86 0 -152 42t-103.5 112.5t-37.5 155.5q0 63 21.5 119t60.5 99t92.5 67
t118.5 24t118.5 -24t92.5 -67t60.5 -99t21.5 -119q0 -85 -37.5 -155.5t-103.5 -112.5t-152 -42zM407 849h63l91 144h-76z" />
    <glyph glyph-name="Ocircumflex" unicode="&#xd4;" horiz-adv-x="878" 
d="M439 -12q78 0 145.5 28.5t118.5 80t80 122t29 154.5t-29 154t-80 121.5t-118.5 80t-145.5 28.5t-145.5 -28t-118.5 -79.5t-80 -122t-29 -154.5t29 -154.5t80 -122t118.5 -80t145.5 -28.5zM439 63q-86 0 -152 42t-103.5 112.5t-37.5 155.5q0 63 21.5 119t60.5 99t92.5 67
t118.5 24t118.5 -24t92.5 -67t60.5 -99t21.5 -119q0 -85 -37.5 -155.5t-103.5 -112.5t-152 -42zM289 849h68l81 103l83 -103h68l-114 144h-74z" />
    <glyph glyph-name="Otilde" unicode="&#xd5;" horiz-adv-x="878" 
d="M439 -12q78 0 145.5 28.5t118.5 80t80 122t29 154.5t-29 154t-80 121.5t-118.5 80t-145.5 28.5t-145.5 -28t-118.5 -79.5t-80 -122t-29 -154.5t29 -154.5t80 -122t118.5 -80t145.5 -28.5zM439 63q-86 0 -152 42t-103.5 112.5t-37.5 155.5q0 63 21.5 119t60.5 99t92.5 67
t118.5 24t118.5 -24t92.5 -67t60.5 -99t21.5 -119q0 -85 -37.5 -155.5t-103.5 -112.5t-152 -42zM499 889q35 0 57 26t23 71h-54q-1 -18 -9 -29t-24 -11q-18 0 -32 11t-32 22.5t-48 11.5q-34 0 -56.5 -26t-24.5 -71h54q2 22 11 31t22 9q19 0 33 -11.5t32 -22.5t48 -11z" />
    <glyph glyph-name="Odieresis" unicode="&#xd6;" horiz-adv-x="878" 
d="M439 -12q78 0 145.5 28.5t118.5 80t80 122t29 154.5t-29 154t-80 121.5t-118.5 80t-145.5 28.5t-145.5 -28t-118.5 -79.5t-80 -122t-29 -154.5t29 -154.5t80 -122t118.5 -80t145.5 -28.5zM439 63q-86 0 -152 42t-103.5 112.5t-37.5 155.5q0 63 21.5 119t60.5 99t92.5 67
t118.5 24t118.5 -24t92.5 -67t60.5 -99t21.5 -119q0 -85 -37.5 -155.5t-103.5 -112.5t-152 -42zM357 869q24 0 40.5 16.5t16.5 41.5q0 24 -16.5 40.5t-40.5 16.5q-25 0 -41.5 -16.5t-16.5 -40.5q0 -25 16.5 -41.5t41.5 -16.5zM522 869q24 0 40.5 16.5t16.5 41.5
q0 24 -16.5 40.5t-40.5 16.5q-25 0 -41.5 -16.5t-16.5 -40.5q0 -25 16.5 -41.5t41.5 -16.5z" />
    <glyph glyph-name="multiply" unicode="&#xd7;" horiz-adv-x="552" 
d="M111 0l165 165l165 -165l53 53l-165 165l164 164l-53 53l-164 -164l-164 164l-53 -53l164 -164l-165 -165z" />
    <glyph glyph-name="Oslash" unicode="&#xd8;" horiz-adv-x="878" 
d="M83 0h91l47 57q46 -33 101.5 -51t116.5 -18q78 0 145.5 28.5t118.5 80t80 122t29 154.5q0 81 -27.5 150t-75.5 120l85 102h-91l-47 -56q-46 32 -101 50t-116 18q-78 0 -145.5 -28t-118.5 -79.5t-80 -122t-29 -154.5q0 -82 27.5 -151t75.5 -119zM146 373q0 63 21.5 119
t60.5 99t92.5 67t118.5 24q48 0 90.5 -14t77.5 -39l-388 -465q-35 41 -54 95t-19 114zM439 63q-48 0 -91 14t-77 39l387 466q35 -42 54.5 -95.5t19.5 -113.5q0 -86 -37.5 -156t-103.5 -112t-152 -42z" />
    <glyph glyph-name="Ugrave" unicode="&#xd9;" horiz-adv-x="700" 
d="M350 -12q80 0 139.5 33t92.5 90.5t33 131.5v502h-80v-502q0 -81 -51 -130.5t-134 -49.5q-82 0 -133.5 49.5t-51.5 130.5v502h-80v-502q0 -74 33 -131.5t93 -90.5t139 -33zM318 849h63l-78 144h-76z" />
    <glyph glyph-name="Uacute" unicode="&#xda;" horiz-adv-x="700" 
d="M350 -12q80 0 139.5 33t92.5 90.5t33 131.5v502h-80v-502q0 -81 -51 -130.5t-134 -49.5q-82 0 -133.5 49.5t-51.5 130.5v502h-80v-502q0 -74 33 -131.5t93 -90.5t139 -33zM318 849h63l91 144h-76z" />
    <glyph glyph-name="Ucircumflex" unicode="&#xdb;" horiz-adv-x="700" 
d="M350 -12q80 0 139.5 33t92.5 90.5t33 131.5v502h-80v-502q0 -81 -51 -130.5t-134 -49.5q-82 0 -133.5 49.5t-51.5 130.5v502h-80v-502q0 -74 33 -131.5t93 -90.5t139 -33zM200 849h68l81 103l83 -103h68l-114 144h-74z" />
    <glyph glyph-name="Udieresis" unicode="&#xdc;" horiz-adv-x="700" 
d="M350 -12q80 0 139.5 33t92.5 90.5t33 131.5v502h-80v-502q0 -81 -51 -130.5t-134 -49.5q-82 0 -133.5 49.5t-51.5 130.5v502h-80v-502q0 -74 33 -131.5t93 -90.5t139 -33zM268 869q24 0 40.5 16.5t16.5 41.5q0 24 -16.5 40.5t-40.5 16.5q-25 0 -41.5 -16.5t-16.5 -40.5
q0 -25 16.5 -41.5t41.5 -16.5zM433 869q24 0 40.5 16.5t16.5 41.5q0 24 -16.5 40.5t-40.5 16.5q-25 0 -41.5 -16.5t-16.5 -40.5q0 -25 16.5 -41.5t41.5 -16.5z" />
    <glyph glyph-name="Yacute" unicode="&#xdd;" horiz-adv-x="623" 
d="M272 0h80v346l260 399h-89l-211 -323l-212 323h-89l261 -399v-346zM280 849h63l91 144h-76z" />
    <glyph glyph-name="Thorn" unicode="&#xde;" horiz-adv-x="635" 
d="M80 0h80v145h176q74 0 128.5 28.5t85 79.5t30.5 119t-30.5 119.5t-85.5 80t-128 28.5h-176v145h-80v-745zM160 220v305h180q72 0 116 -40.5t44 -111.5t-44 -112t-116 -41h-180z" />
    <glyph glyph-name="germandbls" unicode="&#xdf;" horiz-adv-x="603" 
d="M88 -150h75v690q0 68 40.5 107.5t102.5 39.5q59 0 95.5 -35t36.5 -91q0 -57 -37 -94t-95 -37h-53v-70h59q71 0 113.5 -40t42.5 -105t-42.5 -105t-113.5 -40h-59v-70h59q72 0 125 26.5t82 75t29 113.5q0 127 -121 183q43 22 67 66.5t24 101.5q0 58 -26.5 100.5t-74 66.5
t-110.5 24t-112.5 -26.5t-78 -75t-28.5 -115.5v-690z" />
    <glyph glyph-name="agrave" unicode="&#xe0;" horiz-adv-x="572" 
d="M232 -12q62 0 112 25t76 64v-77h75v368q0 53 -25.5 93.5t-71 63.5t-104.5 23q-45 0 -87 -16.5t-74.5 -44.5t-47.5 -62l68 -37q18 39 55 63.5t86 24.5q56 0 91 -30t35 -78v-28l-194 -32q-89 -15 -130 -61t-41 -108q0 -44 23 -78t63 -53.5t91 -19.5zM135 142q0 37 25.5 64
t83.5 37l176 29v-40q0 -49 -23 -89t-64 -63.5t-96 -23.5q-45 0 -73.5 25t-28.5 61zM254 640h63l-78 144h-76z" />
    <glyph glyph-name="aacute" unicode="&#xe1;" horiz-adv-x="572" 
d="M232 -12q62 0 112 25t76 64v-77h75v368q0 53 -25.5 93.5t-71 63.5t-104.5 23q-45 0 -87 -16.5t-74.5 -44.5t-47.5 -62l68 -37q18 39 55 63.5t86 24.5q56 0 91 -30t35 -78v-28l-194 -32q-89 -15 -130 -61t-41 -108q0 -44 23 -78t63 -53.5t91 -19.5zM135 142q0 37 25.5 64
t83.5 37l176 29v-40q0 -49 -23 -89t-64 -63.5t-96 -23.5q-45 0 -73.5 25t-28.5 61zM254 640h63l91 144h-76z" />
    <glyph glyph-name="acircumflex" unicode="&#xe2;" horiz-adv-x="572" 
d="M232 -12q62 0 112 25t76 64v-77h75v368q0 53 -25.5 93.5t-71 63.5t-104.5 23q-45 0 -87 -16.5t-74.5 -44.5t-47.5 -62l68 -37q18 39 55 63.5t86 24.5q56 0 91 -30t35 -78v-28l-194 -32q-89 -15 -130 -61t-41 -108q0 -44 23 -78t63 -53.5t91 -19.5zM135 142q0 37 25.5 64
t83.5 37l176 29v-40q0 -49 -23 -89t-64 -63.5t-96 -23.5q-45 0 -73.5 25t-28.5 61zM136 640h68l81 103l83 -103h68l-114 144h-74z" />
    <glyph glyph-name="atilde" unicode="&#xe3;" horiz-adv-x="572" 
d="M232 -12q62 0 112 25t76 64v-77h75v368q0 53 -25.5 93.5t-71 63.5t-104.5 23q-45 0 -87 -16.5t-74.5 -44.5t-47.5 -62l68 -37q18 39 55 63.5t86 24.5q56 0 91 -30t35 -78v-28l-194 -32q-89 -15 -130 -61t-41 -108q0 -44 23 -78t63 -53.5t91 -19.5zM135 142q0 37 25.5 64
t83.5 37l176 29v-40q0 -49 -23 -89t-64 -63.5t-96 -23.5q-45 0 -73.5 25t-28.5 61zM346 680q35 0 57 26t23 71h-54q-1 -18 -9 -29t-24 -11q-18 0 -32 11t-32 22.5t-48 11.5q-34 0 -56.5 -26t-24.5 -71h54q2 22 11 31t22 9q19 0 33 -11.5t32 -22.5t48 -11z" />
    <glyph glyph-name="adieresis" unicode="&#xe4;" horiz-adv-x="572" 
d="M232 -12q62 0 112 25t76 64v-77h75v368q0 53 -25.5 93.5t-71 63.5t-104.5 23q-45 0 -87 -16.5t-74.5 -44.5t-47.5 -62l68 -37q18 39 55 63.5t86 24.5q56 0 91 -30t35 -78v-28l-194 -32q-89 -15 -130 -61t-41 -108q0 -44 23 -78t63 -53.5t91 -19.5zM135 142q0 37 25.5 64
t83.5 37l176 29v-40q0 -49 -23 -89t-64 -63.5t-96 -23.5q-45 0 -73.5 25t-28.5 61zM204 660q24 0 40.5 16.5t16.5 41.5q0 24 -16.5 40.5t-40.5 16.5q-25 0 -41.5 -16.5t-16.5 -40.5q0 -25 16.5 -41.5t41.5 -16.5zM369 660q24 0 40.5 16.5t16.5 41.5q0 24 -16.5 40.5
t-40.5 16.5q-25 0 -41.5 -16.5t-16.5 -40.5q0 -25 16.5 -41.5t41.5 -16.5z" />
    <glyph glyph-name="aring" unicode="&#xe5;" horiz-adv-x="572" 
d="M232 -12q62 0 112 25t76 64v-77h75v368q0 53 -25.5 93.5t-71 63.5t-104.5 23q-45 0 -87 -16.5t-74.5 -44.5t-47.5 -62l68 -37q18 39 55 63.5t86 24.5q56 0 91 -30t35 -78v-28l-194 -32q-89 -15 -130 -61t-41 -108q0 -44 23 -78t63 -53.5t91 -19.5zM135 142q0 37 25.5 64
t83.5 37l176 29v-40q0 -49 -23 -89t-64 -63.5t-96 -23.5q-45 0 -73.5 25t-28.5 61zM286 590q51 0 85.5 34.5t34.5 84.5q0 51 -34.5 85.5t-85.5 34.5q-52 0 -86.5 -34.5t-34.5 -85.5q0 -50 34.5 -84.5t86.5 -34.5zM285 643q-28 0 -47 18.5t-19 47.5q0 30 19 48.5t47 18.5
q27 0 46.5 -18.5t19.5 -48.5q0 -29 -19.5 -47.5t-46.5 -18.5z" />
    <glyph glyph-name="ae" unicode="&#xe6;" horiz-adv-x="983" 
d="M232 -12q62 0 112 25.5t76 64.5v-78h75v76q36 -42 85.5 -65t108.5 -23q55 0 100.5 18.5t78.5 49t49 66.5l-64 34q-25 -42 -65 -70t-99 -28q-48 0 -90 23t-68.5 65t-28.5 99h422q2 13 3 25.5t1 22.5q0 48 -17 93.5t-49 82t-77.5 58t-103.5 21.5q-63 0 -116 -27t-87 -75
q-23 47 -71.5 74.5t-112.5 27.5q-45 0 -87 -16.5t-74.5 -44.5t-47.5 -62l68 -37q18 39 55 63.5t86 24.5q56 0 91 -30t35 -78v-28l-194 -32q-89 -15 -130 -61t-41 -108q0 -44 23 -78t63 -53.5t91 -19.5zM504 315q6 50 31.5 86.5t64 56.5t81.5 20q45 0 83 -21t60.5 -57.5
t22.5 -84.5h-343zM237 56q-45 0 -73.5 25t-28.5 61q0 37 25.5 64t83.5 37l176 29v-40q0 -49 -23 -89t-64 -63.5t-96 -23.5z" />
    <glyph glyph-name="ccedilla" unicode="&#xe7;" horiz-adv-x="600" 
d="M322 -12q50 0 94 18t78 49t51 70l-68 37q-21 -45 -61.5 -72t-93.5 -27t-95.5 27t-67 73.5t-24.5 104.5q0 59 24.5 105.5t67 73t95.5 26.5t94 -27t61 -70l68 35q-17 40 -51 70.5t-78 48.5t-94 18q-79 0 -139 -36.5t-94 -99.5t-34 -143t34 -143.5t94 -100.5t139 -37z
M336 -220q50 0 77.5 25.5t27.5 62.5q0 32 -22.5 52t-56.5 20q-11 0 -21 -2l6 62h-51l-12 -104l20 -8q20 10 41 10q36 0 36 -33q0 -39 -49 -39q-12 0 -28 2.5t-31 8.5l-12 -42q14 -7 35 -11t40 -4z" />
    <glyph glyph-name="egrave" unicode="&#xe8;" horiz-adv-x="615" 
d="M321 -12q55 0 100.5 18.5t78.5 49t49 66.5l-64 34q-25 -42 -65 -70t-99 -28q-48 0 -90 23t-68.5 64.5t-28.5 99.5h422q2 13 3 25.5t1 22.5q0 48 -17 93.5t-49 82t-77.5 58t-103.5 21.5q-73 0 -131.5 -36t-92.5 -98.5t-34 -143.5t35 -145t95.5 -100.5t135.5 -36.5z
M313 478q45 0 82.5 -21t60 -57.5t23.5 -84.5h-343q6 50 31.5 86.5t63.5 56.5t82 20zM276 640h63l-78 144h-76z" />
    <glyph glyph-name="eacute" unicode="&#xe9;" horiz-adv-x="615" 
d="M321 -12q55 0 100.5 18.5t78.5 49t49 66.5l-64 34q-25 -42 -65 -70t-99 -28q-48 0 -90 23t-68.5 64.5t-28.5 99.5h422q2 13 3 25.5t1 22.5q0 48 -17 93.5t-49 82t-77.5 58t-103.5 21.5q-73 0 -131.5 -36t-92.5 -98.5t-34 -143.5t35 -145t95.5 -100.5t135.5 -36.5z
M313 478q45 0 82.5 -21t60 -57.5t23.5 -84.5h-343q6 50 31.5 86.5t63.5 56.5t82 20zM276 640h63l91 144h-76z" />
    <glyph glyph-name="ecircumflex" unicode="&#xea;" horiz-adv-x="615" 
d="M321 -12q55 0 100.5 18.5t78.5 49t49 66.5l-64 34q-25 -42 -65 -70t-99 -28q-48 0 -90 23t-68.5 64.5t-28.5 99.5h422q2 13 3 25.5t1 22.5q0 48 -17 93.5t-49 82t-77.5 58t-103.5 21.5q-73 0 -131.5 -36t-92.5 -98.5t-34 -143.5t35 -145t95.5 -100.5t135.5 -36.5z
M313 478q45 0 82.5 -21t60 -57.5t23.5 -84.5h-343q6 50 31.5 86.5t63.5 56.5t82 20zM158 640h68l81 103l83 -103h68l-114 144h-74z" />
    <glyph glyph-name="edieresis" unicode="&#xeb;" horiz-adv-x="615" 
d="M321 -12q55 0 100.5 18.5t78.5 49t49 66.5l-64 34q-25 -42 -65 -70t-99 -28q-48 0 -90 23t-68.5 64.5t-28.5 99.5h422q2 13 3 25.5t1 22.5q0 48 -17 93.5t-49 82t-77.5 58t-103.5 21.5q-73 0 -131.5 -36t-92.5 -98.5t-34 -143.5t35 -145t95.5 -100.5t135.5 -36.5z
M313 478q45 0 82.5 -21t60 -57.5t23.5 -84.5h-343q6 50 31.5 86.5t63.5 56.5t82 20zM226 660q24 0 40.5 16.5t16.5 41.5q0 24 -16.5 40.5t-40.5 16.5q-25 0 -41.5 -16.5t-16.5 -40.5q0 -25 16.5 -41.5t41.5 -16.5zM391 660q24 0 40.5 16.5t16.5 41.5q0 24 -16.5 40.5
t-40.5 16.5q-25 0 -41.5 -16.5t-16.5 -40.5q0 -25 16.5 -41.5t41.5 -16.5z" />
    <glyph glyph-name="igrave" unicode="&#xec;" horiz-adv-x="199" 
d="M62 0h75v536h-75v-536zM67 640h63l-78 144h-76z" />
    <glyph glyph-name="iacute" unicode="&#xed;" horiz-adv-x="199" 
d="M62 0h75v536h-75v-536zM67 640h63l91 144h-76z" />
    <glyph glyph-name="icircumflex" unicode="&#xee;" horiz-adv-x="199" 
d="M62 0h75v536h-75v-536zM-51 640h68l81 103l83 -103h68l-114 144h-74z" />
    <glyph glyph-name="idieresis" unicode="&#xef;" horiz-adv-x="199" 
d="M62 0h75v536h-75v-536zM17 660q24 0 40.5 16.5t16.5 41.5q0 24 -16.5 40.5t-40.5 16.5q-25 0 -41.5 -16.5t-16.5 -40.5q0 -25 16.5 -41.5t41.5 -16.5zM182 660q24 0 40.5 16.5t16.5 41.5q0 24 -16.5 40.5t-40.5 16.5q-25 0 -41.5 -16.5t-16.5 -40.5q0 -25 16.5 -41.5
t41.5 -16.5z" />
    <glyph glyph-name="eth" unicode="&#xf0;" horiz-adv-x="655" 
d="M334 -12q72 0 132.5 33t97 105t36.5 188q0 100 -31 195t-93 164l64 23v60l-109 -40q-46 37 -104.5 58t-128.5 21q-66 0 -138 -24l16 -67q60 21 119 21q41 0 79.5 -10.5t71.5 -29.5l-104 -38v-59l159 58q37 -33 62.5 -77t36.5 -95q-36 36 -83 50t-90 14
q-78 0 -139.5 -35.5t-97 -97.5t-35.5 -140q0 -79 36 -141.5t99 -99t144 -36.5zM328 63q-52 0 -96 26.5t-70.5 72t-26.5 102.5q0 56 25 101t68.5 71.5t99.5 26.5q57 0 100 -26.5t67.5 -71t24.5 -99.5q0 -57 -25.5 -103t-69 -73t-97.5 -27z" />
    <glyph glyph-name="ntilde" unicode="&#xf1;" 
d="M77 0h75v319q0 72 40 113t101 41q62 0 100.5 -40.5t38.5 -113.5v-319h75v348q0 57 -26.5 102.5t-72 71.5t-102.5 26q-50 0 -90 -21t-64 -57v66h-75v-536zM347 680q35 0 57 26t23 71h-54q-1 -18 -9 -29t-24 -11q-18 0 -32 11t-32 22.5t-48 11.5q-34 0 -56.5 -26t-24.5 -71
h54q2 22 11 31t22 9q19 0 33 -11.5t32 -22.5t48 -11z" />
    <glyph glyph-name="ograve" unicode="&#xf2;" horiz-adv-x="655" 
d="M328 -12q75 0 136.5 36t98.5 99.5t37 145.5q0 81 -35.5 144t-97 99t-139.5 36t-139.5 -36.5t-97.5 -99.5t-36 -143q0 -81 36.5 -144.5t98.5 -100t138 -36.5zM328 63q-54 0 -97.5 27t-69.5 74t-26 105t26 104t69.5 73t97.5 27t97.5 -27t69 -73t25.5 -104t-25.5 -105
t-69 -74t-97.5 -27zM296 640h63l-78 144h-76z" />
    <glyph glyph-name="oacute" unicode="&#xf3;" horiz-adv-x="655" 
d="M328 -12q75 0 136.5 36t98.5 99.5t37 145.5q0 81 -35.5 144t-97 99t-139.5 36t-139.5 -36.5t-97.5 -99.5t-36 -143q0 -81 36.5 -144.5t98.5 -100t138 -36.5zM328 63q-54 0 -97.5 27t-69.5 74t-26 105t26 104t69.5 73t97.5 27t97.5 -27t69 -73t25.5 -104t-25.5 -105
t-69 -74t-97.5 -27zM296 640h63l91 144h-76z" />
    <glyph glyph-name="ocircumflex" unicode="&#xf4;" horiz-adv-x="655" 
d="M328 -12q75 0 136.5 36t98.5 99.5t37 145.5q0 81 -35.5 144t-97 99t-139.5 36t-139.5 -36.5t-97.5 -99.5t-36 -143q0 -81 36.5 -144.5t98.5 -100t138 -36.5zM328 63q-54 0 -97.5 27t-69.5 74t-26 105t26 104t69.5 73t97.5 27t97.5 -27t69 -73t25.5 -104t-25.5 -105
t-69 -74t-97.5 -27zM178 640h68l81 103l83 -103h68l-114 144h-74z" />
    <glyph glyph-name="otilde" unicode="&#xf5;" horiz-adv-x="655" 
d="M328 -12q75 0 136.5 36t98.5 99.5t37 145.5q0 81 -35.5 144t-97 99t-139.5 36t-139.5 -36.5t-97.5 -99.5t-36 -143q0 -81 36.5 -144.5t98.5 -100t138 -36.5zM328 63q-54 0 -97.5 27t-69.5 74t-26 105t26 104t69.5 73t97.5 27t97.5 -27t69 -73t25.5 -104t-25.5 -105
t-69 -74t-97.5 -27zM388 680q35 0 57 26t23 71h-54q-1 -18 -9 -29t-24 -11q-18 0 -32 11t-32 22.5t-48 11.5q-34 0 -56.5 -26t-24.5 -71h54q2 22 11 31t22 9q19 0 33 -11.5t32 -22.5t48 -11z" />
    <glyph glyph-name="odieresis" unicode="&#xf6;" horiz-adv-x="655" 
d="M328 -12q75 0 136.5 36t98.5 99.5t37 145.5q0 81 -35.5 144t-97 99t-139.5 36t-139.5 -36.5t-97.5 -99.5t-36 -143q0 -81 36.5 -144.5t98.5 -100t138 -36.5zM328 63q-54 0 -97.5 27t-69.5 74t-26 105t26 104t69.5 73t97.5 27t97.5 -27t69 -73t25.5 -104t-25.5 -105
t-69 -74t-97.5 -27zM246 660q24 0 40.5 16.5t16.5 41.5q0 24 -16.5 40.5t-40.5 16.5q-25 0 -41.5 -16.5t-16.5 -40.5q0 -25 16.5 -41.5t41.5 -16.5zM411 660q24 0 40.5 16.5t16.5 41.5q0 24 -16.5 40.5t-40.5 16.5q-25 0 -41.5 -16.5t-16.5 -40.5q0 -25 16.5 -41.5
t41.5 -16.5z" />
    <glyph glyph-name="divide" unicode="&#xf7;" horiz-adv-x="614" 
d="M265 397h80v103h-80v-103zM55 213h500v75h-500v-75zM265 0h80v103h-80v-103z" />
    <glyph glyph-name="oslash" unicode="&#xf8;" horiz-adv-x="655" 
d="M62 0h85l28 34q33 -22 71.5 -34t81.5 -12q75 0 136.5 36t98.5 99.5t37 145.5q0 57 -18.5 106t-51.5 85l63 76h-85l-27 -33q-33 22 -71.5 33.5t-81.5 11.5q-78 0 -139.5 -36.5t-97.5 -99.5t-36 -143q0 -57 19 -106t52 -86zM135 269q0 58 26 104t69.5 73t97.5 27
q56 0 102 -30l-253 -305q-20 27 -31 60t-11 71zM328 63q-57 0 -103 31l253 304q20 -26 31 -59t11 -70q0 -58 -25.5 -105t-69 -74t-97.5 -27z" />
    <glyph glyph-name="ugrave" unicode="&#xf9;" 
d="M267 -12q50 0 90 21t64 57v-66h75v536h-75v-319q0 -72 -39.5 -113t-101.5 -41q-61 0 -100 39.5t-39 104.5v329h-75v-338q0 -62 26.5 -109.5t72.5 -74t102 -26.5zM255 640h63l-78 144h-76z" />
    <glyph glyph-name="uacute" unicode="&#xfa;" 
d="M267 -12q50 0 90 21t64 57v-66h75v536h-75v-319q0 -72 -39.5 -113t-101.5 -41q-61 0 -100 39.5t-39 104.5v329h-75v-338q0 -62 26.5 -109.5t72.5 -74t102 -26.5zM255 640h63l91 144h-76z" />
    <glyph glyph-name="ucircumflex" unicode="&#xfb;" 
d="M267 -12q50 0 90 21t64 57v-66h75v536h-75v-319q0 -72 -39.5 -113t-101.5 -41q-61 0 -100 39.5t-39 104.5v329h-75v-338q0 -62 26.5 -109.5t72.5 -74t102 -26.5zM137 640h68l81 103l83 -103h68l-114 144h-74z" />
    <glyph glyph-name="udieresis" unicode="&#xfc;" 
d="M267 -12q50 0 90 21t64 57v-66h75v536h-75v-319q0 -72 -39.5 -113t-101.5 -41q-61 0 -100 39.5t-39 104.5v329h-75v-338q0 -62 26.5 -109.5t72.5 -74t102 -26.5zM205 660q24 0 40.5 16.5t16.5 41.5q0 24 -16.5 40.5t-40.5 16.5q-25 0 -41.5 -16.5t-16.5 -40.5
q0 -25 16.5 -41.5t41.5 -16.5zM370 660q24 0 40.5 16.5t16.5 41.5q0 24 -16.5 40.5t-40.5 16.5q-25 0 -41.5 -16.5t-16.5 -40.5q0 -25 16.5 -41.5t41.5 -16.5z" />
    <glyph glyph-name="yacute" unicode="&#xfd;" horiz-adv-x="536" 
d="M88 -220q53 0 90 21.5t61.5 56.5t40.5 74l245 605h-83l-175 -443l-175 443h-81l214 -537l-19 -46q-25 -58 -51 -78.5t-75 -20.5q-16 0 -31.5 2.5t-25.5 3.5v-70q16 -6 32.5 -8.5t32.5 -2.5zM236 640h63l91 144h-76z" />
    <glyph glyph-name="thorn" unicode="&#xfe;" horiz-adv-x="667" 
d="M77 -200h75v287q30 -47 82 -73t114 -26q76 0 135.5 36.5t94 100t34.5 143.5q0 81 -34.5 144t-94 99.5t-135.5 36.5q-63 0 -113 -25t-83 -68v290h-75v-945zM344 63q-54 0 -97.5 27t-69 73.5t-25.5 104.5t25.5 104.5t69 73.5t97.5 27t96.5 -27t67 -73t24.5 -105
q0 -58 -24.5 -104.5t-67 -73.5t-96.5 -27z" />
    <glyph glyph-name="ydieresis" unicode="&#xff;" horiz-adv-x="536" 
d="M88 -220q53 0 90 21.5t61.5 56.5t40.5 74l245 605h-83l-175 -443l-175 443h-81l214 -537l-19 -46q-25 -58 -51 -78.5t-75 -20.5q-16 0 -31.5 2.5t-25.5 3.5v-70q16 -6 32.5 -8.5t32.5 -2.5zM186 660q24 0 40.5 16.5t16.5 41.5q0 24 -16.5 40.5t-40.5 16.5
q-25 0 -41.5 -16.5t-16.5 -40.5q0 -25 16.5 -41.5t41.5 -16.5zM351 660q24 0 40.5 16.5t16.5 41.5q0 24 -16.5 40.5t-40.5 16.5q-25 0 -41.5 -16.5t-16.5 -40.5q0 -25 16.5 -41.5t41.5 -16.5z" />
    <glyph glyph-name="Amacron" unicode="&#x100;" horiz-adv-x="652" 
d="M11 0h84l65 182h333l64 -182h84l-272 745h-86zM186 257l140 394l139 -394h-279zM196 879h260v60h-260v-60z" />
    <glyph glyph-name="amacron" unicode="&#x101;" horiz-adv-x="572" 
d="M232 -12q62 0 112 25t76 64v-77h75v368q0 53 -25.5 93.5t-71 63.5t-104.5 23q-45 0 -87 -16.5t-74.5 -44.5t-47.5 -62l68 -37q18 39 55 63.5t86 24.5q56 0 91 -30t35 -78v-28l-194 -32q-89 -15 -130 -61t-41 -108q0 -44 23 -78t63 -53.5t91 -19.5zM135 142q0 37 25.5 64
t83.5 37l176 29v-40q0 -49 -23 -89t-64 -63.5t-96 -23.5q-45 0 -73.5 25t-28.5 61zM156 670h260v60h-260v-60z" />
    <glyph glyph-name="Abreve" unicode="&#x102;" horiz-adv-x="652" 
d="M11 0h84l65 182h333l64 -182h84l-272 745h-86zM186 257l140 394l139 -394h-279zM325 849q38 0 69.5 18.5t50 49.5t18.5 68h-54q0 -34 -25 -59t-59 -25t-58 25t-24 59h-55q0 -37 18.5 -68t49.5 -49.5t69 -18.5z" />
    <glyph glyph-name="abreve" unicode="&#x103;" horiz-adv-x="572" 
d="M232 -12q62 0 112 25t76 64v-77h75v368q0 53 -25.5 93.5t-71 63.5t-104.5 23q-45 0 -87 -16.5t-74.5 -44.5t-47.5 -62l68 -37q18 39 55 63.5t86 24.5q56 0 91 -30t35 -78v-28l-194 -32q-89 -15 -130 -61t-41 -108q0 -44 23 -78t63 -53.5t91 -19.5zM135 142q0 37 25.5 64
t83.5 37l176 29v-40q0 -49 -23 -89t-64 -63.5t-96 -23.5q-45 0 -73.5 25t-28.5 61zM285 640q38 0 69.5 18.5t50 49.5t18.5 68h-54q0 -34 -25 -59t-59 -25t-58 25t-24 59h-55q0 -37 18.5 -68t49.5 -49.5t69 -18.5z" />
    <glyph glyph-name="Aogonek" unicode="&#x104;" horiz-adv-x="652" 
d="M11 0h84l65 182h333l64 -182h84l-272 745h-86zM186 257l140 394l139 -394h-279zM578 -170q26 0 51.5 9.5t47.5 28.5l-25 37q-16 -12 -34 -19.5t-36 -7.5q-23 0 -37 12.5t-14 34.5q0 54 83 90v15h-31q-51 -18 -77.5 -48.5t-26.5 -67.5q0 -38 28 -61t71 -23z" />
    <glyph glyph-name="aogonek" unicode="&#x105;" horiz-adv-x="572" 
d="M232 -12q62 0 112 25t76 64v-77h75v368q0 53 -25.5 93.5t-71 63.5t-104.5 23q-45 0 -87 -16.5t-74.5 -44.5t-47.5 -62l68 -37q18 39 55 63.5t86 24.5q56 0 91 -30t35 -78v-28l-194 -32q-89 -15 -130 -61t-41 -108q0 -44 23 -78t63 -53.5t91 -19.5zM135 142q0 37 25.5 64
t83.5 37l176 29v-40q0 -49 -23 -89t-64 -63.5t-96 -23.5q-45 0 -73.5 25t-28.5 61zM457 -160q26 0 51.5 9.5t47.5 28.5l-25 37q-16 -12 -34 -19.5t-36 -7.5q-23 0 -37 12.5t-14 34.5q0 54 83 90v15h-31q-51 -18 -77.5 -48.5t-26.5 -67.5q0 -38 28 -61t71 -23z" />
    <glyph glyph-name="Cacute" unicode="&#x106;" horiz-adv-x="781" 
d="M428 -12q76 0 136.5 27t102 69.5t59.5 88.5l-75 33q-28 -65 -85.5 -104t-137.5 -39q-82 0 -146 38.5t-100 108.5t-36 162q0 93 36 162.5t100 108.5t146 39q80 0 137.5 -39.5t85.5 -104.5l75 33q-18 47 -59.5 89.5t-102 69.5t-136.5 27q-79 0 -145 -28.5t-114.5 -80.5
t-75.5 -122t-27 -154t27 -154t75.5 -121.5t114.5 -80t145 -28.5zM359 849h63l91 144h-76z" />
    <glyph glyph-name="cacute" unicode="&#x107;" horiz-adv-x="600" 
d="M322 -12q50 0 94 18t78 49t51 70l-68 37q-21 -45 -61.5 -72t-93.5 -27t-95.5 27t-67 73.5t-24.5 104.5q0 59 24.5 105.5t67 73t95.5 26.5t94 -27t61 -70l68 35q-17 40 -51 70.5t-78 48.5t-94 18q-79 0 -139 -36.5t-94 -99.5t-34 -143t34 -143.5t94 -100.5t139 -37z
M290 640h63l91 144h-76z" />
    <glyph glyph-name="Ccircumflex" unicode="&#x108;" horiz-adv-x="781" 
d="M428 -12q76 0 136.5 27t102 69.5t59.5 88.5l-75 33q-28 -65 -85.5 -104t-137.5 -39q-82 0 -146 38.5t-100 108.5t-36 162q0 93 36 162.5t100 108.5t146 39q80 0 137.5 -39.5t85.5 -104.5l75 33q-18 47 -59.5 89.5t-102 69.5t-136.5 27q-79 0 -145 -28.5t-114.5 -80.5
t-75.5 -122t-27 -154t27 -154t75.5 -121.5t114.5 -80t145 -28.5zM241 849h68l81 103l83 -103h68l-114 144h-74z" />
    <glyph glyph-name="ccircumflex" unicode="&#x109;" horiz-adv-x="600" 
d="M322 -12q50 0 94 18t78 49t51 70l-68 37q-21 -45 -61.5 -72t-93.5 -27t-95.5 27t-67 73.5t-24.5 104.5q0 59 24.5 105.5t67 73t95.5 26.5t94 -27t61 -70l68 35q-17 40 -51 70.5t-78 48.5t-94 18q-79 0 -139 -36.5t-94 -99.5t-34 -143t34 -143.5t94 -100.5t139 -37z
M172 640h68l81 103l83 -103h68l-114 144h-74z" />
    <glyph glyph-name="Cdotaccent" unicode="&#x10a;" horiz-adv-x="781" 
d="M428 -12q76 0 136.5 27t102 69.5t59.5 88.5l-75 33q-28 -65 -85.5 -104t-137.5 -39q-82 0 -146 38.5t-100 108.5t-36 162q0 93 36 162.5t100 108.5t146 39q80 0 137.5 -39.5t85.5 -104.5l75 33q-18 47 -59.5 89.5t-102 69.5t-136.5 27q-79 0 -145 -28.5t-114.5 -80.5
t-75.5 -122t-27 -154t27 -154t75.5 -121.5t114.5 -80t145 -28.5zM391 869q24 0 40.5 16.5t16.5 41.5q0 24 -16.5 40.5t-40.5 16.5q-25 0 -41.5 -16.5t-16.5 -40.5q0 -25 16.5 -41.5t41.5 -16.5z" />
    <glyph glyph-name="cdotaccent" unicode="&#x10b;" horiz-adv-x="600" 
d="M322 -12q50 0 94 18t78 49t51 70l-68 37q-21 -45 -61.5 -72t-93.5 -27t-95.5 27t-67 73.5t-24.5 104.5q0 59 24.5 105.5t67 73t95.5 26.5t94 -27t61 -70l68 35q-17 40 -51 70.5t-78 48.5t-94 18q-79 0 -139 -36.5t-94 -99.5t-34 -143t34 -143.5t94 -100.5t139 -37z
M322 660q24 0 40.5 16.5t16.5 41.5q0 24 -16.5 40.5t-40.5 16.5q-25 0 -41.5 -16.5t-16.5 -40.5q0 -25 16.5 -41.5t41.5 -16.5z" />
    <glyph glyph-name="Ccaron" unicode="&#x10c;" horiz-adv-x="781" 
d="M428 -12q76 0 136.5 27t102 69.5t59.5 88.5l-75 33q-28 -65 -85.5 -104t-137.5 -39q-82 0 -146 38.5t-100 108.5t-36 162q0 93 36 162.5t100 108.5t146 39q80 0 137.5 -39.5t85.5 -104.5l75 33q-18 47 -59.5 89.5t-102 69.5t-136.5 27q-79 0 -145 -28.5t-114.5 -80.5
t-75.5 -122t-27 -154t27 -154t75.5 -121.5t114.5 -80t145 -28.5zM353 849h74l114 144h-68l-83 -103l-81 103h-68z" />
    <glyph glyph-name="ccaron" unicode="&#x10d;" horiz-adv-x="600" 
d="M322 -12q50 0 94 18t78 49t51 70l-68 37q-21 -45 -61.5 -72t-93.5 -27t-95.5 27t-67 73.5t-24.5 104.5q0 59 24.5 105.5t67 73t95.5 26.5t94 -27t61 -70l68 35q-17 40 -51 70.5t-78 48.5t-94 18q-79 0 -139 -36.5t-94 -99.5t-34 -143t34 -143.5t94 -100.5t139 -37z
M284 640h74l114 144h-68l-83 -103l-81 103h-68z" />
    <glyph glyph-name="Dcaron" unicode="&#x10e;" horiz-adv-x="742" 
d="M88 0h245q111 0 193 46t127 130t45 197q0 114 -45 197.5t-127 129t-193 45.5h-245v-745zM168 75v595h165q85 0 148 -36.5t98 -103t35 -157.5t-34.5 -158t-97.5 -103.5t-149 -36.5h-165zM344 849h74l114 144h-68l-83 -103l-81 103h-68z" />
    <glyph glyph-name="dcaron" unicode="&#x10f;" horiz-adv-x="782" 
d="M319 -12q62 0 114 26t82 73v-87h75v757h-75v-302q-33 43 -83 68t-113 25q-76 0 -135.5 -36.5t-94 -99.5t-34.5 -144q0 -80 34.5 -143.5t94.5 -100t135 -36.5zM323 63q-54 0 -96.5 27t-67 73.5t-24.5 104.5q0 59 24.5 105t67.5 73t96 27q54 0 97.5 -27t69 -73.5
t25.5 -104.5t-25.5 -104.5t-69 -73.5t-97.5 -27zM700 659h55l12 184h-80z" />
    <glyph glyph-name="Dcroat" unicode="&#x110;" horiz-adv-x="742" 
d="M88 0h245q111 0 193 46t127 130t45 197q0 114 -45 197.5t-127 129t-193 45.5h-245v-340h-85v-65h85v-340zM168 75v265h185v65h-185v265h165q85 0 148 -36.5t98 -103t35 -157.5t-34.5 -158t-97.5 -103.5t-149 -36.5h-165z" />
    <glyph glyph-name="dcroat" unicode="&#x111;" horiz-adv-x="667" 
d="M319 -12q62 0 114 26t82 73v-87h75v607h88v65h-88v85h-75v-85h-87v-65h87v-152q-33 43 -83 68t-113 25q-76 0 -135.5 -36.5t-94 -99.5t-34.5 -144q0 -80 34.5 -143.5t94.5 -100t135 -36.5zM323 63q-54 0 -96.5 27t-67 73.5t-24.5 104.5q0 59 24.5 105t67.5 73t96 27
q54 0 97.5 -27t69 -73.5t25.5 -104.5t-25.5 -104.5t-69 -73.5t-97.5 -27z" />
    <glyph glyph-name="Emacron" unicode="&#x112;" horiz-adv-x="612" 
d="M88 0h480v75h-400v261h380v75h-380v259h400v75h-480v-745zM198 879h260v60h-260v-60z" />
    <glyph glyph-name="emacron" unicode="&#x113;" horiz-adv-x="615" 
d="M321 -12q55 0 100.5 18.5t78.5 49t49 66.5l-64 34q-25 -42 -65 -70t-99 -28q-48 0 -90 23t-68.5 64.5t-28.5 99.5h422q2 13 3 25.5t1 22.5q0 48 -17 93.5t-49 82t-77.5 58t-103.5 21.5q-73 0 -131.5 -36t-92.5 -98.5t-34 -143.5t35 -145t95.5 -100.5t135.5 -36.5z
M313 478q45 0 82.5 -21t60 -57.5t23.5 -84.5h-343q6 50 31.5 86.5t63.5 56.5t82 20zM178 670h260v60h-260v-60z" />
    <glyph glyph-name="Ebreve" unicode="&#x114;" horiz-adv-x="612" 
d="M88 0h480v75h-400v261h380v75h-380v259h400v75h-480v-745zM327 849q38 0 69.5 18.5t50 49.5t18.5 68h-54q0 -34 -25 -59t-59 -25t-58 25t-24 59h-55q0 -37 18.5 -68t49.5 -49.5t69 -18.5z" />
    <glyph glyph-name="ebreve" unicode="&#x115;" horiz-adv-x="615" 
d="M321 -12q55 0 100.5 18.5t78.5 49t49 66.5l-64 34q-25 -42 -65 -70t-99 -28q-48 0 -90 23t-68.5 64.5t-28.5 99.5h422q2 13 3 25.5t1 22.5q0 48 -17 93.5t-49 82t-77.5 58t-103.5 21.5q-73 0 -131.5 -36t-92.5 -98.5t-34 -143.5t35 -145t95.5 -100.5t135.5 -36.5z
M313 478q45 0 82.5 -21t60 -57.5t23.5 -84.5h-343q6 50 31.5 86.5t63.5 56.5t82 20zM307 640q38 0 69.5 18.5t50 49.5t18.5 68h-54q0 -34 -25 -59t-59 -25t-58 25t-24 59h-55q0 -37 18.5 -68t49.5 -49.5t69 -18.5z" />
    <glyph glyph-name="Edotaccent" unicode="&#x116;" horiz-adv-x="612" 
d="M88 0h480v75h-400v261h380v75h-380v259h400v75h-480v-745zM328 869q24 0 40.5 16.5t16.5 41.5q0 24 -16.5 40.5t-40.5 16.5q-25 0 -41.5 -16.5t-16.5 -40.5q0 -25 16.5 -41.5t41.5 -16.5z" />
    <glyph glyph-name="edotaccent" unicode="&#x117;" horiz-adv-x="615" 
d="M321 -12q55 0 100.5 18.5t78.5 49t49 66.5l-64 34q-25 -42 -65 -70t-99 -28q-48 0 -90 23t-68.5 64.5t-28.5 99.5h422q2 13 3 25.5t1 22.5q0 48 -17 93.5t-49 82t-77.5 58t-103.5 21.5q-73 0 -131.5 -36t-92.5 -98.5t-34 -143.5t35 -145t95.5 -100.5t135.5 -36.5z
M313 478q45 0 82.5 -21t60 -57.5t23.5 -84.5h-343q6 50 31.5 86.5t63.5 56.5t82 20zM308 660q24 0 40.5 16.5t16.5 41.5q0 24 -16.5 40.5t-40.5 16.5q-25 0 -41.5 -16.5t-16.5 -40.5q0 -25 16.5 -41.5t41.5 -16.5z" />
    <glyph glyph-name="Eogonek" unicode="&#x118;" horiz-adv-x="612" 
d="M88 0h480v75h-400v261h380v75h-380v259h400v75h-480v-745zM507 -170q26 0 51.5 9.5t47.5 28.5l-25 37q-16 -12 -34 -19.5t-36 -7.5q-23 0 -37 12.5t-14 34.5q0 54 83 90v15h-31q-51 -18 -77.5 -48.5t-26.5 -67.5q0 -38 28 -61t71 -23z" />
    <glyph glyph-name="eogonek" unicode="&#x119;" horiz-adv-x="615" 
d="M321 -12q55 0 100.5 18.5t78.5 49t49 66.5l-64 34q-25 -42 -65 -70t-99 -28q-48 0 -90 23t-68.5 64.5t-28.5 99.5h422q2 13 3 25.5t1 22.5q0 48 -17 93.5t-49 82t-77.5 58t-103.5 21.5q-73 0 -131.5 -36t-92.5 -98.5t-34 -143.5t35 -145t95.5 -100.5t135.5 -36.5z
M313 478q45 0 82.5 -21t60 -57.5t23.5 -84.5h-343q6 50 31.5 86.5t63.5 56.5t82 20zM300 -160q26 0 51.5 9.5t47.5 28.5l-25 37q-16 -12 -34 -19.5t-36 -7.5q-23 0 -37 12.5t-14 34.5q0 54 83 90v15h-31q-51 -18 -77.5 -48.5t-26.5 -67.5q0 -38 28 -61t71 -23z" />
    <glyph glyph-name="Ecaron" unicode="&#x11a;" horiz-adv-x="612" 
d="M88 0h480v75h-400v261h380v75h-380v259h400v75h-480v-745zM290 849h74l114 144h-68l-83 -103l-81 103h-68z" />
    <glyph glyph-name="ecaron" unicode="&#x11b;" horiz-adv-x="615" 
d="M321 -12q55 0 100.5 18.5t78.5 49t49 66.5l-64 34q-25 -42 -65 -70t-99 -28q-48 0 -90 23t-68.5 64.5t-28.5 99.5h422q2 13 3 25.5t1 22.5q0 48 -17 93.5t-49 82t-77.5 58t-103.5 21.5q-73 0 -131.5 -36t-92.5 -98.5t-34 -143.5t35 -145t95.5 -100.5t135.5 -36.5z
M313 478q45 0 82.5 -21t60 -57.5t23.5 -84.5h-343q6 50 31.5 86.5t63.5 56.5t82 20zM270 640h74l114 144h-68l-83 -103l-81 103h-68z" />
    <glyph glyph-name="Gcircumflex" unicode="&#x11c;" horiz-adv-x="821" 
d="M428 -12q71 0 132.5 24.5t107.5 69.5t72 106.5t26 134.5v62h-338v-70h258v-5q0 -72 -34 -127.5t-92.5 -87.5t-131.5 -32q-82 0 -146 38.5t-100 108.5t-36 162q0 93 36 162.5t100 108.5t146 39t140 -39t86 -107l72 35q-18 47 -59.5 89.5t-102 69.5t-136.5 27
q-79 0 -145 -28.5t-114.5 -80.5t-75.5 -122t-27 -154t27 -154t75.5 -121.5t114.5 -80t145 -28.5zM261 849h68l81 103l83 -103h68l-114 144h-74z" />
    <glyph glyph-name="gcircumflex" unicode="&#x11d;" horiz-adv-x="662" 
d="M331 -220q74 0 131.5 31.5t90 86t32.5 123.5v515h-75v-81q-32 43 -82 68t-109 25q-76 0 -135.5 -36t-94 -97t-34.5 -137q0 -75 34.5 -136.5t94.5 -97.5t135 -36q59 0 110 26t81 73v-86q0 -54 -25 -91t-66 -56t-90 -19q-64 0 -105 28t-57 66l-69 -37q27 -58 88.5 -95
t144.5 -37zM323 83q-54 0 -96.5 26.5t-67 71t-24.5 97.5q0 54 24.5 98t67.5 70.5t96 26.5q52 0 94 -26.5t67.5 -71t25.5 -97.5t-25.5 -97.5t-67.5 -71t-94 -26.5zM181 640h68l81 103l83 -103h68l-114 144h-74z" />
    <glyph glyph-name="Gbreve" unicode="&#x11e;" horiz-adv-x="821" 
d="M428 -12q71 0 132.5 24.5t107.5 69.5t72 106.5t26 134.5v62h-338v-70h258v-5q0 -72 -34 -127.5t-92.5 -87.5t-131.5 -32q-82 0 -146 38.5t-100 108.5t-36 162q0 93 36 162.5t100 108.5t146 39t140 -39t86 -107l72 35q-18 47 -59.5 89.5t-102 69.5t-136.5 27
q-79 0 -145 -28.5t-114.5 -80.5t-75.5 -122t-27 -154t27 -154t75.5 -121.5t114.5 -80t145 -28.5zM410 849q38 0 69.5 18.5t50 49.5t18.5 68h-54q0 -34 -25 -59t-59 -25t-58 25t-24 59h-55q0 -37 18.5 -68t49.5 -49.5t69 -18.5z" />
    <glyph glyph-name="gbreve" unicode="&#x11f;" horiz-adv-x="662" 
d="M331 -220q74 0 131.5 31.5t90 86t32.5 123.5v515h-75v-81q-32 43 -82 68t-109 25q-76 0 -135.5 -36t-94 -97t-34.5 -137q0 -75 34.5 -136.5t94.5 -97.5t135 -36q59 0 110 26t81 73v-86q0 -54 -25 -91t-66 -56t-90 -19q-64 0 -105 28t-57 66l-69 -37q27 -58 88.5 -95
t144.5 -37zM323 83q-54 0 -96.5 26.5t-67 71t-24.5 97.5q0 54 24.5 98t67.5 70.5t96 26.5q52 0 94 -26.5t67.5 -71t25.5 -97.5t-25.5 -97.5t-67.5 -71t-94 -26.5zM330 640q38 0 69.5 18.5t50 49.5t18.5 68h-54q0 -34 -25 -59t-59 -25t-58 25t-24 59h-55q0 -37 18.5 -68
t49.5 -49.5t69 -18.5z" />
    <glyph glyph-name="Gdotaccent" unicode="&#x120;" horiz-adv-x="821" 
d="M428 -12q71 0 132.5 24.5t107.5 69.5t72 106.5t26 134.5v62h-338v-70h258v-5q0 -72 -34 -127.5t-92.5 -87.5t-131.5 -32q-82 0 -146 38.5t-100 108.5t-36 162q0 93 36 162.5t100 108.5t146 39t140 -39t86 -107l72 35q-18 47 -59.5 89.5t-102 69.5t-136.5 27
q-79 0 -145 -28.5t-114.5 -80.5t-75.5 -122t-27 -154t27 -154t75.5 -121.5t114.5 -80t145 -28.5zM411 869q24 0 40.5 16.5t16.5 41.5q0 24 -16.5 40.5t-40.5 16.5q-25 0 -41.5 -16.5t-16.5 -40.5q0 -25 16.5 -41.5t41.5 -16.5z" />
    <glyph glyph-name="gdotaccent" unicode="&#x121;" horiz-adv-x="662" 
d="M331 -220q74 0 131.5 31.5t90 86t32.5 123.5v515h-75v-81q-32 43 -82 68t-109 25q-76 0 -135.5 -36t-94 -97t-34.5 -137q0 -75 34.5 -136.5t94.5 -97.5t135 -36q59 0 110 26t81 73v-86q0 -54 -25 -91t-66 -56t-90 -19q-64 0 -105 28t-57 66l-69 -37q27 -58 88.5 -95
t144.5 -37zM323 83q-54 0 -96.5 26.5t-67 71t-24.5 97.5q0 54 24.5 98t67.5 70.5t96 26.5q52 0 94 -26.5t67.5 -71t25.5 -97.5t-25.5 -97.5t-67.5 -71t-94 -26.5zM331 660q24 0 40.5 16.5t16.5 41.5q0 24 -16.5 40.5t-40.5 16.5q-25 0 -41.5 -16.5t-16.5 -40.5
q0 -25 16.5 -41.5t41.5 -16.5z" />
    <glyph glyph-name="uni0122" unicode="&#x122;" horiz-adv-x="821" 
d="M428 -12q71 0 132.5 24.5t107.5 69.5t72 106.5t26 134.5v62h-338v-70h258v-5q0 -72 -34 -127.5t-92.5 -87.5t-131.5 -32q-82 0 -146 38.5t-100 108.5t-36 162q0 93 36 162.5t100 108.5t146 39t140 -39t86 -107l72 35q-18 47 -59.5 89.5t-102 69.5t-136.5 27
q-79 0 -145 -28.5t-114.5 -80.5t-75.5 -122t-27 -154t27 -154t75.5 -121.5t114.5 -80t145 -28.5zM361 -320q100 24 100 156v84h-80v-110h43q-3 -84 -63 -100v-30z" />
    <glyph glyph-name="uni0123" unicode="&#x123;" horiz-adv-x="662" 
d="M331 -220q74 0 131.5 31.5t90 86t32.5 123.5v515h-75v-81q-32 43 -82 68t-109 25q-76 0 -135.5 -36t-94 -97t-34.5 -137q0 -75 34.5 -136.5t94.5 -97.5t135 -36q59 0 110 26t81 73v-86q0 -54 -25 -91t-66 -56t-90 -19q-64 0 -105 28t-57 66l-69 -37q27 -58 88.5 -95
t144.5 -37zM323 83q-54 0 -96.5 26.5t-67 71t-24.5 97.5q0 54 24.5 98t67.5 70.5t96 26.5q52 0 94 -26.5t67.5 -71t25.5 -97.5t-25.5 -97.5t-67.5 -71t-94 -26.5zM291 636h80v110h-43q2 34 17.5 58t45.5 32v30q-49 -12 -74.5 -50t-25.5 -96v-84z" />
    <glyph glyph-name="Hcircumflex" unicode="&#x124;" horiz-adv-x="736" 
d="M88 0h80v335h400v-335h80v745h-80v-335h-400v335h-80v-745zM218 849h68l81 103l83 -103h68l-114 144h-74z" />
    <glyph glyph-name="hcircumflex" unicode="&#x125;" 
d="M77 0h75v319q0 72 40.5 113t100.5 41t99.5 -40.5t39.5 -113.5v-319h75v348q0 57 -26.5 102.5t-72 71.5t-102.5 26q-50 0 -90 -21t-64 -57v287h-75v-757zM-35 849h68l81 103l83 -103h68l-114 144h-74z" />
    <glyph glyph-name="Hbar" unicode="&#x126;" horiz-adv-x="736" 
d="M88 0h80v335h400v-335h80v563h70v65h-70v117h-80v-117h-400v117h-80v-117h-70v-65h70v-563zM168 410v153h400v-153h-400z" />
    <glyph glyph-name="hbar" unicode="&#x127;" 
d="M77 0h75v319q0 72 40.5 113t100.5 41t99.5 -40.5t39.5 -113.5v-319h75v348q0 57 -26.5 102.5t-72 71.5t-102.5 26q-50 0 -90 -21t-64 -57v137h88v65h-88v85h-75v-85h-87v-65h87v-607z" />
    <glyph glyph-name="Itilde" unicode="&#x128;" horiz-adv-x="256" 
d="M88 0h80v745h-80v-745zM188 889q35 0 57 26t23 71h-54q-1 -18 -9 -29t-24 -11q-18 0 -32 11t-32 22.5t-48 11.5q-34 0 -56.5 -26t-24.5 -71h54q2 22 11 31t22 9q19 0 33 -11.5t32 -22.5t48 -11z" />
    <glyph glyph-name="itilde" unicode="&#x129;" horiz-adv-x="199" 
d="M62 0h75v536h-75v-536zM159 680q35 0 57 26t23 71h-54q-1 -18 -9 -29t-24 -11q-18 0 -32 11t-32 22.5t-48 11.5q-34 0 -56.5 -26t-24.5 -71h54q2 22 11 31t22 9q19 0 33 -11.5t32 -22.5t48 -11z" />
    <glyph glyph-name="Imacron" unicode="&#x12a;" horiz-adv-x="256" 
d="M88 0h80v745h-80v-745zM-2 879h260v60h-260v-60z" />
    <glyph glyph-name="imacron" unicode="&#x12b;" horiz-adv-x="199" 
d="M62 0h75v536h-75v-536zM-31 670h260v60h-260v-60z" />
    <glyph glyph-name="Ibreve" unicode="&#x12c;" horiz-adv-x="256" 
d="M88 0h80v745h-80v-745zM127 849q38 0 69.5 18.5t50 49.5t18.5 68h-54q0 -34 -25 -59t-59 -25t-58 25t-24 59h-55q0 -37 18.5 -68t49.5 -49.5t69 -18.5z" />
    <glyph glyph-name="ibreve" unicode="&#x12d;" horiz-adv-x="199" 
d="M62 0h75v536h-75v-536zM98 640q38 0 69.5 18.5t50 49.5t18.5 68h-54q0 -34 -25 -59t-59 -25t-58 25t-24 59h-55q0 -37 18.5 -68t49.5 -49.5t69 -18.5z" />
    <glyph glyph-name="Iogonek" unicode="&#x12e;" horiz-adv-x="256" 
d="M88 0h80v745h-80v-745zM107 -170q26 0 51.5 9.5t47.5 28.5l-25 37q-16 -12 -34 -19.5t-36 -7.5q-23 0 -37 12.5t-14 34.5q0 54 83 90v15h-31q-51 -18 -77.5 -48.5t-26.5 -67.5q0 -38 28 -61t71 -23z" />
    <glyph glyph-name="iogonek" unicode="&#x12f;" horiz-adv-x="199" 
d="M62 0h75v536h-75v-536zM99 660q24 0 40.5 16.5t16.5 41.5q0 24 -16.5 40.5t-40.5 16.5q-25 0 -41.5 -16.5t-16.5 -40.5q0 -25 16.5 -41.5t41.5 -16.5zM79 -160q26 0 51.5 9.5t47.5 28.5l-25 37q-16 -12 -34 -19.5t-36 -7.5q-23 0 -37 12.5t-14 34.5q0 54 83 90v15h-31
q-51 -18 -77.5 -48.5t-26.5 -67.5q0 -38 28 -61t71 -23z" />
    <glyph glyph-name="Idotaccent" unicode="&#x130;" horiz-adv-x="256" 
d="M88 0h80v745h-80v-745zM128 869q24 0 40.5 16.5t16.5 41.5q0 24 -16.5 40.5t-40.5 16.5q-25 0 -41.5 -16.5t-16.5 -40.5q0 -25 16.5 -41.5t41.5 -16.5z" />
    <glyph glyph-name="dotlessi" unicode="&#x131;" horiz-adv-x="199" 
d="M62 0h75v536h-75v-536z" />
    <glyph glyph-name="Jcircumflex" unicode="&#x134;" horiz-adv-x="383" 
d="M55 0h40q92 0 146 55.5t54 149.5v540h-80v-540q0 -58 -32 -91.5t-88 -33.5h-40v-80zM105 849h68l81 103l83 -103h68l-114 144h-74z" />
    <glyph glyph-name="jcircumflex" unicode="&#x135;" horiz-adv-x="229" 
d="M-23 -220q48 0 87.5 19.5t63.5 57.5t24 93v586h-75v-586q0 -50 -28.5 -75t-69.5 -25q-21 0 -42 3v-69q8 -2 20.5 -3t19.5 -1zM-35 640h68l81 103l83 -103h68l-114 144h-74z" />
    <glyph glyph-name="uni0136" unicode="&#x136;" horiz-adv-x="654" 
d="M88 0h80v225l125 142l254 -367h96l-295 430l277 315h-100l-357 -406v406h-80v-745zM277 -320q100 24 100 156v84h-80v-110h43q-3 -84 -63 -100v-30z" />
    <glyph glyph-name="uni0137" unicode="&#x137;" horiz-adv-x="548" 
d="M77 0h75v161l102 105l193 -266h90l-229 321l210 215h-97l-269 -272v493h-75v-757zM224 -320q100 24 100 156v84h-80v-110h43q-3 -84 -63 -100v-30z" />
    <glyph glyph-name="kgreenlandic" unicode="&#x138;" horiz-adv-x="548" 
d="M77 0h75v247h117l178 -247h90l-201 285l169 251h-91l-144 -214h-118v214h-75v-536z" />
    <glyph glyph-name="Lacute" unicode="&#x139;" horiz-adv-x="531" 
d="M88 0h410v75h-330v670h-80v-745zM96 849h63l91 144h-76z" />
    <glyph glyph-name="lacute" unicode="&#x13a;" horiz-adv-x="229" 
d="M77 0h75v757h-75v-757zM83 849h63l91 144h-76z" />
    <glyph glyph-name="uni013B" unicode="&#x13b;" horiz-adv-x="531" 
d="M88 0h410v75h-330v670h-80v-745zM243 -320q100 24 100 156v84h-80v-110h43q-3 -84 -63 -100v-30z" />
    <glyph glyph-name="uni013C" unicode="&#x13c;" horiz-adv-x="229" 
d="M77 0h75v757h-75v-757zM65 -320q100 24 100 156v84h-80v-110h43q-3 -84 -63 -100v-30z" />
    <glyph glyph-name="Lcaron" unicode="&#x13d;" horiz-adv-x="618" 
d="M88 0h410v75h-330v670h-80v-745zM416 561h55l12 184h-80z" />
    <glyph glyph-name="lcaron" unicode="&#x13e;" horiz-adv-x="344" 
d="M77 0h75v757h-75v-757zM262 659h55l12 184h-80z" />
    <glyph glyph-name="Ldot" unicode="&#x13f;" horiz-adv-x="531" 
d="M88 0h410v75h-330v670h-80v-745zM334 315q24 0 40.5 16.5t16.5 41.5q0 24 -16.5 40.5t-40.5 16.5q-25 0 -41.5 -16.5t-16.5 -40.5q0 -25 16.5 -41.5t41.5 -16.5z" />
    <glyph glyph-name="ldot" unicode="&#x140;" horiz-adv-x="376" 
d="M77 0h75v757h-75v-757zM280 315q24 0 40.5 16.5t16.5 41.5q0 24 -16.5 40.5t-40.5 16.5q-25 0 -41.5 -16.5t-16.5 -40.5q0 -25 16.5 -41.5t41.5 -16.5z" />
    <glyph glyph-name="Lslash" unicode="&#x141;" horiz-adv-x="531" 
d="M88 0h410v75h-330v276l110 37v70l-110 -37v324h-80v-350l-110 -37v-70l110 37v-325z" />
    <glyph glyph-name="lslash" unicode="&#x142;" horiz-adv-x="229" 
d="M77 0h75v372l88 35v70l-88 -35v315h-75v-345l-87 -35v-70l87 35v-342z" />
    <glyph glyph-name="Nacute" unicode="&#x143;" horiz-adv-x="736" 
d="M88 0h80v592l410 -592h70v745h-80v-588l-410 588h-70v-745zM336 849h63l91 144h-76z" />
    <glyph glyph-name="nacute" unicode="&#x144;" 
d="M77 0h75v319q0 72 40 113t101 41q62 0 100.5 -40.5t38.5 -113.5v-319h75v348q0 57 -26.5 102.5t-72 71.5t-102.5 26q-50 0 -90 -21t-64 -57v66h-75v-536zM255 640h63l91 144h-76z" />
    <glyph glyph-name="uni0145" unicode="&#x145;" horiz-adv-x="736" 
d="M88 0h80v592l410 -592h70v745h-80v-588l-410 588h-70v-745zM318 -320q100 24 100 156v84h-80v-110h43q-3 -84 -63 -100v-30z" />
    <glyph glyph-name="uni0146" unicode="&#x146;" 
d="M77 0h75v319q0 72 40 113t101 41q62 0 100.5 -40.5t38.5 -113.5v-319h75v348q0 57 -26.5 102.5t-72 71.5t-102.5 26q-50 0 -90 -21t-64 -57v66h-75v-536zM237 -320q100 24 100 156v84h-80v-110h43q-3 -84 -63 -100v-30z" />
    <glyph glyph-name="Ncaron" unicode="&#x147;" horiz-adv-x="736" 
d="M88 0h80v592l410 -592h70v745h-80v-588l-410 588h-70v-745zM330 849h74l114 144h-68l-83 -103l-81 103h-68z" />
    <glyph glyph-name="ncaron" unicode="&#x148;" 
d="M77 0h75v319q0 72 40 113t101 41q62 0 100.5 -40.5t38.5 -113.5v-319h75v348q0 57 -26.5 102.5t-72 71.5t-102.5 26q-50 0 -90 -21t-64 -57v66h-75v-536zM249 640h74l114 144h-68l-83 -103l-81 103h-68z" />
    <glyph glyph-name="Eng" unicode="&#x14a;" horiz-adv-x="736" 
d="M473 -220q48 0 87.5 19.5t63.5 57.5t24 93v795h-80v-588l-410 588h-70v-745h80v593l400 -581v-62q0 -50 -26 -72.5t-67 -22.5q-21 0 -42 3v-74q8 -2 20.5 -3t19.5 -1z" />
    <glyph glyph-name="eng" unicode="&#x14b;" horiz-adv-x="600" 
d="M320 -220q48 0 87.5 19.5t63.5 57.5t24 93v398q0 57 -26.5 102.5t-72 71.5t-102.5 26q-50 0 -90 -21t-64 -57v66h-75v-536h75v319q0 72 40 113t101 41q62 0 100.5 -40.5t38.5 -113.5v-369q0 -50 -28.5 -75t-69.5 -25q-21 0 -42 3v-69q8 -2 20.5 -3t19.5 -1z" />
    <glyph glyph-name="Omacron" unicode="&#x14c;" horiz-adv-x="878" 
d="M439 -12q78 0 145.5 28.5t118.5 80t80 122t29 154.5t-29 154t-80 121.5t-118.5 80t-145.5 28.5t-145.5 -28t-118.5 -79.5t-80 -122t-29 -154.5t29 -154.5t80 -122t118.5 -80t145.5 -28.5zM439 63q-86 0 -152 42t-103.5 112.5t-37.5 155.5q0 63 21.5 119t60.5 99t92.5 67
t118.5 24t118.5 -24t92.5 -67t60.5 -99t21.5 -119q0 -85 -37.5 -155.5t-103.5 -112.5t-152 -42zM309 879h260v60h-260v-60z" />
    <glyph glyph-name="omacron" unicode="&#x14d;" horiz-adv-x="655" 
d="M328 -12q75 0 136.5 36t98.5 99.5t37 145.5q0 81 -35.5 144t-97 99t-139.5 36t-139.5 -36.5t-97.5 -99.5t-36 -143q0 -81 36.5 -144.5t98.5 -100t138 -36.5zM328 63q-54 0 -97.5 27t-69.5 74t-26 105t26 104t69.5 73t97.5 27t97.5 -27t69 -73t25.5 -104t-25.5 -105
t-69 -74t-97.5 -27zM198 670h260v60h-260v-60z" />
    <glyph glyph-name="Obreve" unicode="&#x14e;" horiz-adv-x="878" 
d="M439 -12q78 0 145.5 28.5t118.5 80t80 122t29 154.5t-29 154t-80 121.5t-118.5 80t-145.5 28.5t-145.5 -28t-118.5 -79.5t-80 -122t-29 -154.5t29 -154.5t80 -122t118.5 -80t145.5 -28.5zM439 63q-86 0 -152 42t-103.5 112.5t-37.5 155.5q0 63 21.5 119t60.5 99t92.5 67
t118.5 24t118.5 -24t92.5 -67t60.5 -99t21.5 -119q0 -85 -37.5 -155.5t-103.5 -112.5t-152 -42zM438 849q38 0 69.5 18.5t50 49.5t18.5 68h-54q0 -34 -25 -59t-59 -25t-58 25t-24 59h-55q0 -37 18.5 -68t49.5 -49.5t69 -18.5z" />
    <glyph glyph-name="obreve" unicode="&#x14f;" horiz-adv-x="655" 
d="M328 -12q75 0 136.5 36t98.5 99.5t37 145.5q0 81 -35.5 144t-97 99t-139.5 36t-139.5 -36.5t-97.5 -99.5t-36 -143q0 -81 36.5 -144.5t98.5 -100t138 -36.5zM328 63q-54 0 -97.5 27t-69.5 74t-26 105t26 104t69.5 73t97.5 27t97.5 -27t69 -73t25.5 -104t-25.5 -105
t-69 -74t-97.5 -27zM327 640q38 0 69.5 18.5t50 49.5t18.5 68h-54q0 -34 -25 -59t-59 -25t-58 25t-24 59h-55q0 -37 18.5 -68t49.5 -49.5t69 -18.5z" />
    <glyph glyph-name="Ohungarumlaut" unicode="&#x150;" horiz-adv-x="878" 
d="M439 -12q78 0 145.5 28.5t118.5 80t80 122t29 154.5t-29 154t-80 121.5t-118.5 80t-145.5 28.5t-145.5 -28t-118.5 -79.5t-80 -122t-29 -154.5t29 -154.5t80 -122t118.5 -80t145.5 -28.5zM439 63q-86 0 -152 42t-103.5 112.5t-37.5 155.5q0 63 21.5 119t60.5 99t92.5 67
t118.5 24t118.5 -24t92.5 -67t60.5 -99t21.5 -119q0 -85 -37.5 -155.5t-103.5 -112.5t-152 -42zM337 849h63l91 144h-76zM477 849h63l91 144h-76z" />
    <glyph glyph-name="ohungarumlaut" unicode="&#x151;" horiz-adv-x="655" 
d="M328 -12q75 0 136.5 36t98.5 99.5t37 145.5q0 81 -35.5 144t-97 99t-139.5 36t-139.5 -36.5t-97.5 -99.5t-36 -143q0 -81 36.5 -144.5t98.5 -100t138 -36.5zM328 63q-54 0 -97.5 27t-69.5 74t-26 105t26 104t69.5 73t97.5 27t97.5 -27t69 -73t25.5 -104t-25.5 -105
t-69 -74t-97.5 -27zM226 640h63l91 144h-76zM366 640h63l91 144h-76z" />
    <glyph glyph-name="OE" unicode="&#x152;" horiz-adv-x="1261" 
d="M439 -12q91 0 169 39.5t129 108.5v-136h480v75h-400v261h380v75h-380v259h400v75h-480v-136q-51 69 -129 108.5t-169 39.5q-78 0 -145.5 -28t-118.5 -79.5t-80 -122t-29 -154.5t29 -154.5t80 -122t118.5 -80t145.5 -28.5zM439 63q-86 0 -152 42t-103.5 112.5t-37.5 155.5
q0 63 21.5 119t60.5 99t92.5 67t118.5 24t118.5 -24t92.5 -67t60.5 -99t21.5 -119q0 -85 -37.5 -155.5t-103.5 -112.5t-152 -42z" />
    <glyph glyph-name="oe" unicode="&#x153;" horiz-adv-x="1085" 
d="M328 -12q74 0 136 36t98 98q34 -62 94 -98t135 -36q55 0 100.5 18.5t78.5 49t49 66.5l-64 34q-25 -42 -65 -70t-99 -28q-48 0 -90 23t-68.5 65t-28.5 99h422q2 13 3 25.5t1 22.5q0 48 -17 93.5t-49 82t-77.5 58t-103.5 21.5q-72 0 -130 -35t-92 -96q-34 60 -95.5 95.5
t-137.5 35.5q-78 0 -139.5 -36.5t-97.5 -99.5t-36 -143q0 -81 36.5 -144.5t98.5 -100t138 -36.5zM606 315q6 50 31.5 86.5t64 56.5t81.5 20q45 0 83 -21t60.5 -57.5t22.5 -84.5h-343zM328 63q-54 0 -97.5 27t-69.5 74t-26 105t26 104t69.5 73t97.5 27t97.5 -27t69 -73
t25.5 -104t-25.5 -105t-69 -74t-97.5 -27z" />
    <glyph glyph-name="Racute" unicode="&#x154;" horiz-adv-x="641" 
d="M88 0h80v290h182l164 -290h94l-174 303q71 23 112.5 79t41.5 135q0 68 -30.5 119.5t-85.5 80t-128 28.5h-256v-745zM168 365v305h180q72 0 116 -40.5t44 -111.5t-44 -112t-116 -41h-180zM283 849h63l91 144h-76z" />
    <glyph glyph-name="racute" unicode="&#x155;" horiz-adv-x="338" 
d="M77 0h75v330q0 66 35 102t93 36h47v75h-34q-49 0 -84.5 -17t-56.5 -48v58h-75v-536zM170 640h63l91 144h-76z" />
    <glyph glyph-name="uni0156" unicode="&#x156;" horiz-adv-x="641" 
d="M88 0h80v290h182l164 -290h94l-174 303q71 23 112.5 79t41.5 135q0 68 -30.5 119.5t-85.5 80t-128 28.5h-256v-745zM168 365v305h180q72 0 116 -40.5t44 -111.5t-44 -112t-116 -41h-180zM265 -320q100 24 100 156v84h-80v-110h43q-3 -84 -63 -100v-30z" />
    <glyph glyph-name="uni0157" unicode="&#x157;" horiz-adv-x="338" 
d="M77 0h75v330q0 66 35 102t93 36h47v75h-34q-49 0 -84.5 -17t-56.5 -48v58h-75v-536zM65 -320q100 24 100 156v84h-80v-110h43q-3 -84 -63 -100v-30z" />
    <glyph glyph-name="Rcaron" unicode="&#x158;" horiz-adv-x="641" 
d="M88 0h80v290h182l164 -290h94l-174 303q71 23 112.5 79t41.5 135q0 68 -30.5 119.5t-85.5 80t-128 28.5h-256v-745zM168 365v305h180q72 0 116 -40.5t44 -111.5t-44 -112t-116 -41h-180zM277 849h74l114 144h-68l-83 -103l-81 103h-68z" />
    <glyph glyph-name="rcaron" unicode="&#x159;" horiz-adv-x="338" 
d="M77 0h75v330q0 66 35 102t93 36h47v75h-34q-49 0 -84.5 -17t-56.5 -48v58h-75v-536zM164 640h74l114 144h-68l-83 -103l-81 103h-68z" />
    <glyph glyph-name="Sacute" unicode="&#x15a;" horiz-adv-x="646" 
d="M339 -12q71 0 125.5 26t85 71.5t30.5 105.5q0 74 -45 123t-133 75l-118 35q-60 18 -89 54.5t-29 82.5q0 57 40 90.5t104 33.5q68 0 118.5 -34t74.5 -100l70 28q-16 49 -53 89t-90.5 64.5t-120.5 24.5q-64 0 -114.5 -26t-79.5 -71.5t-29 -104.5q0 -69 42.5 -123t121.5 -77
l134 -40q56 -16 86 -46t30 -85q0 -56 -44.5 -90t-116.5 -34q-76 0 -131 39.5t-81 115.5l-72 -27q17 -55 57 -100.5t98 -72.5t129 -27zM291 849h63l91 144h-76z" />
    <glyph glyph-name="sacute" unicode="&#x15b;" horiz-adv-x="509" 
d="M263 -12q56 0 99 19.5t67.5 54.5t24.5 79q0 54 -36.5 94t-101.5 59l-89 26q-14 4 -32.5 12t-32.5 24t-14 43q0 35 27 58t72 23q46 0 83.5 -25.5t57.5 -70.5l64 30q-23 63 -78.5 98.5t-123.5 35.5q-50 0 -91 -19t-65 -54t-24 -82q0 -50 33 -88t107 -59l77 -22
q16 -4 37 -13t37 -25.5t16 -44.5q0 -38 -33 -61.5t-81 -23.5q-50 0 -91.5 29t-64.5 78l-63 -30q26 -67 84 -106t135 -39zM223 640h63l91 144h-76z" />
    <glyph glyph-name="Scircumflex" unicode="&#x15c;" horiz-adv-x="646" 
d="M339 -12q71 0 125.5 26t85 71.5t30.5 105.5q0 74 -45 123t-133 75l-118 35q-60 18 -89 54.5t-29 82.5q0 57 40 90.5t104 33.5q68 0 118.5 -34t74.5 -100l70 28q-16 49 -53 89t-90.5 64.5t-120.5 24.5q-64 0 -114.5 -26t-79.5 -71.5t-29 -104.5q0 -69 42.5 -123t121.5 -77
l134 -40q56 -16 86 -46t30 -85q0 -56 -44.5 -90t-116.5 -34q-76 0 -131 39.5t-81 115.5l-72 -27q17 -55 57 -100.5t98 -72.5t129 -27zM173 849h68l81 103l83 -103h68l-114 144h-74z" />
    <glyph glyph-name="scircumflex" unicode="&#x15d;" horiz-adv-x="509" 
d="M263 -12q56 0 99 19.5t67.5 54.5t24.5 79q0 54 -36.5 94t-101.5 59l-89 26q-14 4 -32.5 12t-32.5 24t-14 43q0 35 27 58t72 23q46 0 83.5 -25.5t57.5 -70.5l64 30q-23 63 -78.5 98.5t-123.5 35.5q-50 0 -91 -19t-65 -54t-24 -82q0 -50 33 -88t107 -59l77 -22
q16 -4 37 -13t37 -25.5t16 -44.5q0 -38 -33 -61.5t-81 -23.5q-50 0 -91.5 29t-64.5 78l-63 -30q26 -67 84 -106t135 -39zM105 640h68l81 103l83 -103h68l-114 144h-74z" />
    <glyph glyph-name="Scedilla" unicode="&#x15e;" horiz-adv-x="646" 
d="M339 -12q71 0 125.5 26t85 71.5t30.5 105.5q0 74 -45 123t-133 75l-118 35q-60 18 -89 54.5t-29 82.5q0 57 40 90.5t104 33.5q68 0 118.5 -34t74.5 -100l70 28q-16 49 -53 89t-90.5 64.5t-120.5 24.5q-64 0 -114.5 -26t-79.5 -71.5t-29 -104.5q0 -69 42.5 -123t121.5 -77
l134 -40q56 -16 86 -46t30 -85q0 -56 -44.5 -90t-116.5 -34q-76 0 -131 39.5t-81 115.5l-72 -27q17 -55 57 -100.5t98 -72.5t129 -27zM337 -220q50 0 77.5 25.5t27.5 62.5q0 32 -22.5 52t-56.5 20q-11 0 -21 -2l6 62h-51l-12 -104l20 -8q20 10 41 10q36 0 36 -33
q0 -39 -49 -39q-12 0 -28 2.5t-31 8.5l-12 -42q14 -7 35 -11t40 -4z" />
    <glyph glyph-name="scedilla" unicode="&#x15f;" horiz-adv-x="509" 
d="M263 -12q56 0 99 19.5t67.5 54.5t24.5 79q0 54 -36.5 94t-101.5 59l-89 26q-14 4 -32.5 12t-32.5 24t-14 43q0 35 27 58t72 23q46 0 83.5 -25.5t57.5 -70.5l64 30q-23 63 -78.5 98.5t-123.5 35.5q-50 0 -91 -19t-65 -54t-24 -82q0 -50 33 -88t107 -59l77 -22
q16 -4 37 -13t37 -25.5t16 -44.5q0 -38 -33 -61.5t-81 -23.5q-50 0 -91.5 29t-64.5 78l-63 -30q26 -67 84 -106t135 -39zM269 -220q50 0 77.5 25.5t27.5 62.5q0 32 -22.5 52t-56.5 20q-11 0 -21 -2l6 62h-51l-12 -104l20 -8q20 10 41 10q36 0 36 -33q0 -39 -49 -39
q-12 0 -28 2.5t-31 8.5l-12 -42q14 -7 35 -11t40 -4z" />
    <glyph glyph-name="Scaron" unicode="&#x160;" horiz-adv-x="646" 
d="M339 -12q71 0 125.5 26t85 71.5t30.5 105.5q0 74 -45 123t-133 75l-118 35q-60 18 -89 54.5t-29 82.5q0 57 40 90.5t104 33.5q68 0 118.5 -34t74.5 -100l70 28q-16 49 -53 89t-90.5 64.5t-120.5 24.5q-64 0 -114.5 -26t-79.5 -71.5t-29 -104.5q0 -69 42.5 -123t121.5 -77
l134 -40q56 -16 86 -46t30 -85q0 -56 -44.5 -90t-116.5 -34q-76 0 -131 39.5t-81 115.5l-72 -27q17 -55 57 -100.5t98 -72.5t129 -27zM285 849h74l114 144h-68l-83 -103l-81 103h-68z" />
    <glyph glyph-name="scaron" unicode="&#x161;" horiz-adv-x="509" 
d="M263 -12q56 0 99 19.5t67.5 54.5t24.5 79q0 54 -36.5 94t-101.5 59l-89 26q-14 4 -32.5 12t-32.5 24t-14 43q0 35 27 58t72 23q46 0 83.5 -25.5t57.5 -70.5l64 30q-23 63 -78.5 98.5t-123.5 35.5q-50 0 -91 -19t-65 -54t-24 -82q0 -50 33 -88t107 -59l77 -22
q16 -4 37 -13t37 -25.5t16 -44.5q0 -38 -33 -61.5t-81 -23.5q-50 0 -91.5 29t-64.5 78l-63 -30q26 -67 84 -106t135 -39zM217 640h74l114 144h-68l-83 -103l-81 103h-68z" />
    <glyph glyph-name="uni0162" unicode="&#x162;" horiz-adv-x="512" 
d="M217 0h80v670h204v75h-490v-75h206v-670zM270 -220q50 0 77.5 25.5t27.5 62.5q0 32 -22.5 52t-56.5 20q-11 0 -21 -2l6 62h-51l-12 -104l20 -8q20 10 41 10q36 0 36 -33q0 -39 -49 -39q-12 0 -28 2.5t-31 8.5l-12 -42q14 -7 35 -11t40 -4z" />
    <glyph glyph-name="uni0163" unicode="&#x163;" horiz-adv-x="388" 
d="M282 -6q9 0 24 1t27 4v68q-8 -1 -19 -2t-19 -1q-50 0 -69 26t-19 66v305h118v75h-118v124h-75v-45q0 -34 -20 -56.5t-54 -22.5h-25v-75h99v-305q0 -78 39 -120t111 -42zM288 -220q50 0 77.5 25.5t27.5 62.5q0 32 -22.5 52t-56.5 20q-11 0 -21 -2l6 62h-51l-12 -104l20 -8
q20 10 41 10q36 0 36 -33q0 -39 -49 -39q-12 0 -28 2.5t-31 8.5l-12 -42q14 -7 35 -11t40 -4z" />
    <glyph glyph-name="Tcaron" unicode="&#x164;" horiz-adv-x="512" 
d="M217 0h80v670h204v75h-490v-75h206v-670zM218 849h74l114 144h-68l-83 -103l-81 103h-68z" />
    <glyph glyph-name="tcaron" unicode="&#x165;" horiz-adv-x="394" 
d="M282 -6q9 0 24 1t27 4v68q-8 -1 -19 -2t-19 -1q-50 0 -69 26t-19 66v305h118v75h-118v124h-75v-45q0 -34 -20 -56.5t-54 -22.5h-25v-75h99v-305q0 -78 39 -120t111 -42zM299 659h55l12 184h-80z" />
    <glyph glyph-name="Tbar" unicode="&#x166;" horiz-adv-x="512" 
d="M217 0h80v340h134v65h-134v265h204v75h-490v-75h206v-265h-136v-65h136v-340z" />
    <glyph glyph-name="tbar" unicode="&#x167;" horiz-adv-x="388" 
d="M36 230h96v-74q0 -78 39 -120t111 -42q9 0 24 1t27 4v68q-8 -1 -19 -2t-19 -1q-50 0 -69 26t-19 66v74h121v75h-121v156h118v75h-118v124h-75v-45q0 -34 -20 -56.5t-54 -22.5h-25v-75h99v-156h-96v-75z" />
    <glyph glyph-name="Utilde" unicode="&#x168;" horiz-adv-x="700" 
d="M350 -12q80 0 139.5 33t92.5 90.5t33 131.5v502h-80v-502q0 -81 -51 -130.5t-134 -49.5q-82 0 -133.5 49.5t-51.5 130.5v502h-80v-502q0 -74 33 -131.5t93 -90.5t139 -33zM410 889q35 0 57 26t23 71h-54q-1 -18 -9 -29t-24 -11q-18 0 -32 11t-32 22.5t-48 11.5
q-34 0 -56.5 -26t-24.5 -71h54q2 22 11 31t22 9q19 0 33 -11.5t32 -22.5t48 -11z" />
    <glyph glyph-name="utilde" unicode="&#x169;" 
d="M267 -12q50 0 90 21t64 57v-66h75v536h-75v-319q0 -72 -39.5 -113t-101.5 -41q-61 0 -100 39.5t-39 104.5v329h-75v-338q0 -62 26.5 -109.5t72.5 -74t102 -26.5zM347 680q35 0 57 26t23 71h-54q-1 -18 -9 -29t-24 -11q-18 0 -32 11t-32 22.5t-48 11.5q-34 0 -56.5 -26
t-24.5 -71h54q2 22 11 31t22 9q19 0 33 -11.5t32 -22.5t48 -11z" />
    <glyph glyph-name="Umacron" unicode="&#x16a;" horiz-adv-x="700" 
d="M350 -12q80 0 139.5 33t92.5 90.5t33 131.5v502h-80v-502q0 -81 -51 -130.5t-134 -49.5q-82 0 -133.5 49.5t-51.5 130.5v502h-80v-502q0 -74 33 -131.5t93 -90.5t139 -33zM220 879h260v60h-260v-60z" />
    <glyph glyph-name="umacron" unicode="&#x16b;" 
d="M267 -12q50 0 90 21t64 57v-66h75v536h-75v-319q0 -72 -39.5 -113t-101.5 -41q-61 0 -100 39.5t-39 104.5v329h-75v-338q0 -62 26.5 -109.5t72.5 -74t102 -26.5zM157 670h260v60h-260v-60z" />
    <glyph glyph-name="Ubreve" unicode="&#x16c;" horiz-adv-x="700" 
d="M350 -12q80 0 139.5 33t92.5 90.5t33 131.5v502h-80v-502q0 -81 -51 -130.5t-134 -49.5q-82 0 -133.5 49.5t-51.5 130.5v502h-80v-502q0 -74 33 -131.5t93 -90.5t139 -33zM349 849q38 0 69.5 18.5t50 49.5t18.5 68h-54q0 -34 -25 -59t-59 -25t-58 25t-24 59h-55
q0 -37 18.5 -68t49.5 -49.5t69 -18.5z" />
    <glyph glyph-name="ubreve" unicode="&#x16d;" 
d="M267 -12q50 0 90 21t64 57v-66h75v536h-75v-319q0 -72 -39.5 -113t-101.5 -41q-61 0 -100 39.5t-39 104.5v329h-75v-338q0 -62 26.5 -109.5t72.5 -74t102 -26.5zM286 640q38 0 69.5 18.5t50 49.5t18.5 68h-54q0 -34 -25 -59t-59 -25t-58 25t-24 59h-55q0 -37 18.5 -68
t49.5 -49.5t69 -18.5z" />
    <glyph glyph-name="Uring" unicode="&#x16e;" horiz-adv-x="700" 
d="M350 -12q80 0 139.5 33t92.5 90.5t33 131.5v502h-80v-502q0 -81 -51 -130.5t-134 -49.5q-82 0 -133.5 49.5t-51.5 130.5v502h-80v-502q0 -74 33 -131.5t93 -90.5t139 -33zM350 799q51 0 85.5 34.5t34.5 84.5q0 51 -34.5 85.5t-85.5 34.5q-52 0 -86.5 -34.5t-34.5 -85.5
q0 -50 34.5 -84.5t86.5 -34.5zM349 852q-28 0 -47 18.5t-19 47.5q0 30 19 48.5t47 18.5q27 0 46.5 -18.5t19.5 -48.5q0 -29 -19.5 -47.5t-46.5 -18.5z" />
    <glyph glyph-name="uring" unicode="&#x16f;" 
d="M267 -12q50 0 90 21t64 57v-66h75v536h-75v-319q0 -72 -39.5 -113t-101.5 -41q-61 0 -100 39.5t-39 104.5v329h-75v-338q0 -62 26.5 -109.5t72.5 -74t102 -26.5zM287 590q51 0 85.5 34.5t34.5 84.5q0 51 -34.5 85.5t-85.5 34.5q-52 0 -86.5 -34.5t-34.5 -85.5
q0 -50 34.5 -84.5t86.5 -34.5zM286 643q-28 0 -47 18.5t-19 47.5q0 30 19 48.5t47 18.5q27 0 46.5 -18.5t19.5 -48.5q0 -29 -19.5 -47.5t-46.5 -18.5z" />
    <glyph glyph-name="Uhungarumlaut" unicode="&#x170;" horiz-adv-x="700" 
d="M350 -12q80 0 139.5 33t92.5 90.5t33 131.5v502h-80v-502q0 -81 -51 -130.5t-134 -49.5q-82 0 -133.5 49.5t-51.5 130.5v502h-80v-502q0 -74 33 -131.5t93 -90.5t139 -33zM248 849h63l91 144h-76zM388 849h63l91 144h-76z" />
    <glyph glyph-name="uhungarumlaut" unicode="&#x171;" 
d="M267 -12q50 0 90 21t64 57v-66h75v536h-75v-319q0 -72 -39.5 -113t-101.5 -41q-61 0 -100 39.5t-39 104.5v329h-75v-338q0 -62 26.5 -109.5t72.5 -74t102 -26.5zM185 640h63l91 144h-76zM325 640h63l91 144h-76z" />
    <glyph glyph-name="Uogonek" unicode="&#x172;" horiz-adv-x="700" 
d="M350 -12q80 0 139.5 33t92.5 90.5t33 131.5v502h-80v-502q0 -81 -51 -130.5t-134 -49.5q-82 0 -133.5 49.5t-51.5 130.5v502h-80v-502q0 -74 33 -131.5t93 -90.5t139 -33zM379 -170q26 0 51.5 9.5t47.5 28.5l-25 37q-16 -12 -34 -19.5t-36 -7.5q-23 0 -37 12.5t-14 34.5
q0 54 83 90v15h-31q-51 -18 -77.5 -48.5t-26.5 -67.5q0 -38 28 -61t71 -23z" />
    <glyph glyph-name="uogonek" unicode="&#x173;" 
d="M267 -12q50 0 90 21t64 57v-66h75v536h-75v-319q0 -72 -39.5 -113t-101.5 -41q-61 0 -100 39.5t-39 104.5v329h-75v-338q0 -62 26.5 -109.5t72.5 -74t102 -26.5zM457 -160q26 0 51.5 9.5t47.5 28.5l-25 37q-16 -12 -34 -19.5t-36 -7.5q-23 0 -37 12.5t-14 34.5
q0 54 83 90v15h-31q-51 -18 -77.5 -48.5t-26.5 -67.5q0 -38 28 -61t71 -23z" />
    <glyph glyph-name="Wcircumflex" unicode="&#x174;" horiz-adv-x="984" 
d="M225 0h85l182 638l182 -638h85l214 745h-81l-177 -635l-180 635h-85l-181 -637l-177 637h-81zM342 849h68l81 103l83 -103h68l-114 144h-74z" />
    <glyph glyph-name="wcircumflex" unicode="&#x175;" horiz-adv-x="797" 
d="M195 0h75l129 424l128 -424h75l184 536h-84l-137 -421l-129 421h-75l-128 -421l-137 421h-85zM249 640h68l81 103l83 -103h68l-114 144h-74z" />
    <glyph glyph-name="Ycircumflex" unicode="&#x176;" horiz-adv-x="623" 
d="M272 0h80v346l260 399h-89l-211 -323l-212 323h-89l261 -399v-346zM162 849h68l81 103l83 -103h68l-114 144h-74z" />
    <glyph glyph-name="ycircumflex" unicode="&#x177;" horiz-adv-x="536" 
d="M88 -220q53 0 90 21.5t61.5 56.5t40.5 74l245 605h-83l-175 -443l-175 443h-81l214 -537l-19 -46q-25 -58 -51 -78.5t-75 -20.5q-16 0 -31.5 2.5t-25.5 3.5v-70q16 -6 32.5 -8.5t32.5 -2.5zM118 640h68l81 103l83 -103h68l-114 144h-74z" />
    <glyph glyph-name="Ydieresis" unicode="&#x178;" horiz-adv-x="623" 
d="M272 0h80v346l260 399h-89l-211 -323l-212 323h-89l261 -399v-346zM230 869q24 0 40.5 16.5t16.5 41.5q0 24 -16.5 40.5t-40.5 16.5q-25 0 -41.5 -16.5t-16.5 -40.5q0 -25 16.5 -41.5t41.5 -16.5zM395 869q24 0 40.5 16.5t16.5 41.5q0 24 -16.5 40.5t-40.5 16.5
q-25 0 -41.5 -16.5t-16.5 -40.5q0 -25 16.5 -41.5t41.5 -16.5z" />
    <glyph glyph-name="Zacute" unicode="&#x179;" horiz-adv-x="584" 
d="M22 0h540v75h-434l425 616v54h-506v-75h401l-426 -616v-54zM260 849h63l91 144h-76z" />
    <glyph glyph-name="zacute" unicode="&#x17a;" horiz-adv-x="449" 
d="M22 0h405v75h-302l300 396v65h-386v-75h284l-301 -396v-65zM187 640h63l91 144h-76z" />
    <glyph glyph-name="Zdotaccent" unicode="&#x17b;" horiz-adv-x="584" 
d="M22 0h540v75h-434l425 616v54h-506v-75h401l-426 -616v-54zM292 869q24 0 40.5 16.5t16.5 41.5q0 24 -16.5 40.5t-40.5 16.5q-25 0 -41.5 -16.5t-16.5 -40.5q0 -25 16.5 -41.5t41.5 -16.5z" />
    <glyph glyph-name="zdotaccent" unicode="&#x17c;" horiz-adv-x="449" 
d="M22 0h405v75h-302l300 396v65h-386v-75h284l-301 -396v-65zM219 660q24 0 40.5 16.5t16.5 41.5q0 24 -16.5 40.5t-40.5 16.5q-25 0 -41.5 -16.5t-16.5 -40.5q0 -25 16.5 -41.5t41.5 -16.5z" />
    <glyph glyph-name="Zcaron" unicode="&#x17d;" horiz-adv-x="584" 
d="M22 0h540v75h-434l425 616v54h-506v-75h401l-426 -616v-54zM254 849h74l114 144h-68l-83 -103l-81 103h-68z" />
    <glyph glyph-name="zcaron" unicode="&#x17e;" horiz-adv-x="449" 
d="M22 0h405v75h-302l300 396v65h-386v-75h284l-301 -396v-65zM181 640h74l114 144h-68l-83 -103l-81 103h-68z" />
    <glyph glyph-name="uni018F" unicode="&#x18f;" horiz-adv-x="832" 
d="M412 -12q82 0 147.5 30.5t111.5 83.5t70.5 121.5t24.5 145.5q0 84 -28 154.5t-78.5 123t-118.5 81.5t-147 29q-69 0 -130.5 -22t-108 -61.5t-72.5 -92.5l71 -36q34 64 97.5 100.5t142.5 36.5q81 0 145 -37.5t103 -101t43 -143.5h-613q-3 -16 -4.5 -30t-1.5 -31
q0 -75 25.5 -138.5t72 -111.5t109.5 -74.5t139 -26.5zM155 315v10h529q-8 -81 -44 -140t-94 -90.5t-130 -31.5q-76 0 -135 33t-92.5 90t-33.5 129z" />
    <glyph glyph-name="florin" unicode="&#x192;" horiz-adv-x="487" 
d="M102 -12q47 0 88 20.5t66 61t25 101.5v169h131v65h-131v169q0 65 32 89t80 24q5 0 17 -0.5t19 -2.5v68q-8 2 -21 3.5t-23 1.5q-47 0 -88 -20.5t-66 -61t-25 -101.5v-169h-131v-65h131v-169q0 -64 -32 -88.5t-80 -24.5q-5 0 -17 1t-19 2v-68q8 -2 21 -3.5t23 -1.5z" />
    <glyph glyph-name="Ohorn" unicode="&#x1a0;" horiz-adv-x="878" 
d="M439 -12q78 0 145.5 28.5t118.5 80t80 122t29 154.5q0 99 -40.5 179t-107.5 131h2q59 0 94.5 28.5t35.5 89.5q0 26 -7 47.5t-18 40.5h-92q10 -20 16.5 -39.5t6.5 -40.5q0 -34 -16.5 -43t-33.5 -9h-213q-78 0 -145.5 -28t-118.5 -79.5t-80 -122t-29 -154.5t29 -154.5
t80 -122t118.5 -80t145.5 -28.5zM439 63q-86 0 -152 42t-103.5 112.5t-37.5 155.5q0 63 21.5 119t60.5 99t92.5 67t118.5 24t118.5 -24t92.5 -67t60.5 -99t21.5 -119q0 -85 -37.5 -155.5t-103.5 -112.5t-152 -42z" />
    <glyph glyph-name="ohorn" unicode="&#x1a1;" horiz-adv-x="655" 
d="M328 -12q75 0 136.5 36t98.5 99.5t37 145.5q0 71 -28 128.5t-77 95.5q33 9 52.5 34t19.5 67q0 25 -7 46t-16 41h-74q9 -20 15.5 -39.5t6.5 -40.5q0 -32 -15.5 -42.5t-35.5 -10.5h-113q-78 0 -139.5 -36.5t-97.5 -99.5t-36 -143q0 -81 36.5 -144.5t98.5 -100t138 -36.5z
M328 63q-54 0 -97.5 27t-69.5 74t-26 105t26 104t69.5 73t97.5 27t97.5 -27t69 -73t25.5 -104t-25.5 -105t-69 -74t-97.5 -27z" />
    <glyph glyph-name="Uhorn" unicode="&#x1af;" horiz-adv-x="700" 
d="M350 -12q80 0 139.5 33t92.5 90.5t33 131.5v428h7q59 0 94.5 28.5t35.5 89.5q0 26 -7 47.5t-18 40.5h-92q10 -20 16.5 -39.5t6.5 -40.5q0 -34 -16.5 -43t-33.5 -9h-73v-502q0 -81 -51 -130.5t-134 -49.5q-82 0 -133.5 49.5t-51.5 130.5v502h-80v-502q0 -74 33 -131.5
t93 -90.5t139 -33z" />
    <glyph glyph-name="uhorn" unicode="&#x1b0;" horiz-adv-x="595" 
d="M267 -12q50 0 90 21t64 57v-66h75v477q40 6 64.5 32t24.5 73q0 25 -7 46t-16 41h-74q9 -20 15.5 -39.5t6.5 -40.5q0 -32 -15.5 -42.5t-35.5 -10.5h-38v-319q0 -72 -39.5 -113t-101.5 -41q-61 0 -100 39.5t-39 104.5v329h-75v-338q0 -62 26.5 -109.5t72.5 -74t102 -26.5z
" />
    <glyph glyph-name="uni01C4" unicode="&#x1c4;" horiz-adv-x="1326" 
d="M996 849h74l114 144h-68l-83 -103l-81 103h-68zM88 0h245q111 0 193 46t127 130t45 197q0 114 -45 197.5t-127 129t-193 45.5h-245v-745zM764 0h540v75h-434l425 616v54h-506v-75h401l-426 -616v-54zM168 75v595h165q85 0 148 -36.5t98 -103t35 -157.5t-34.5 -158
t-97.5 -103.5t-149 -36.5h-165z" />
    <glyph glyph-name="uni01C5" unicode="&#x1c5;" horiz-adv-x="1191" 
d="M923 640h74l114 144h-68l-83 -103l-81 103h-68zM88 0h245q111 0 193 46t127 130t45 197q0 114 -45 197.5t-127 129t-193 45.5h-245v-745zM168 75v595h165q85 0 148 -36.5t98 -103t35 -157.5t-34.5 -158t-97.5 -103.5t-149 -36.5h-165zM764 0h405v75h-302l300 396v65h-386
v-75h284l-301 -396v-65z" />
    <glyph glyph-name="uni01C6" unicode="&#x1c6;" horiz-adv-x="1116" 
d="M848 640h74l114 144h-68l-83 -103l-81 103h-68zM319 -12q62 0 114 26t82 73v-87h75v745h-75v-290q-33 43 -83 68t-113 25q-76 0 -135.5 -36.5t-94 -99.5t-34.5 -144q0 -80 34.5 -143.5t94.5 -100t135 -36.5zM689 0h405v75h-302l300 396v65h-386v-75h284l-301 -396v-65z
M323 63q-54 0 -96.5 27t-67 73.5t-24.5 104.5q0 59 24.5 105t67.5 73t96 27q54 0 97.5 -27t69 -73.5t25.5 -104.5t-25.5 -104.5t-69 -73.5t-97.5 -27z" />
    <glyph glyph-name="uni01C7" unicode="&#x1c7;" horiz-adv-x="1109" 
d="M88 0h410v75h-330v670h-80v-745zM808 -12q66 0 113.5 27t73.5 74t26 106v550h-80v-550q0 -58 -35.5 -95t-97.5 -37q-56 0 -98.5 32.5t-59.5 89.5l-74 -22q20 -79 82 -127t150 -48z" />
    <glyph glyph-name="uni01C8" unicode="&#x1c8;" horiz-adv-x="760" 
d="M88 0h410v75h-330v670h-80v-745zM608 635h75v110h-75v-110zM508 -220q48 0 87.5 19.5t63.5 57.5t24 93v586h-75v-586q0 -50 -28.5 -75t-69.5 -25q-21 0 -42 3v-69q8 -2 20.5 -3t19.5 -1z" />
    <glyph glyph-name="uni01C9" unicode="&#x1c9;" horiz-adv-x="458" 
d="M77 0h75v757h-75v-757zM306 635h75v110h-75v-110zM206 -220q48 0 87.5 19.5t63.5 57.5t24 93v586h-75v-586q0 -50 -28.5 -75t-69.5 -25q-21 0 -42 3v-69q8 -2 20.5 -3t19.5 -1z" />
    <glyph glyph-name="uni01CA" unicode="&#x1ca;" horiz-adv-x="1119" 
d="M88 0h80v592l410 -592h70v745h-80v-588l-410 588h-70v-745zM791 0h40q92 0 146 55.5t54 149.5v540h-80v-540q0 -58 -32 -91.5t-88 -33.5h-40v-80z" />
    <glyph glyph-name="uni01CB" unicode="&#x1cb;" horiz-adv-x="965" 
d="M88 0h80v592l410 -592h70v745h-80v-588l-410 588h-70v-745zM813 635h75v110h-75v-110zM713 -220q48 0 87.5 19.5t63.5 57.5t24 93v586h-75v-586q0 -50 -28.5 -75t-69.5 -25q-21 0 -42 3v-69q8 -2 20.5 -3t19.5 -1z" />
    <glyph glyph-name="uni01CC" unicode="&#x1cc;" horiz-adv-x="802" 
d="M77 0h75v319q0 72 40 113t101 41q62 0 100.5 -40.5t38.5 -113.5v-319h75v348q0 57 -26.5 102.5t-72 71.5t-102.5 26q-50 0 -90 -21t-64 -57v66h-75v-536zM650 635h75v110h-75v-110zM550 -220q48 0 87.5 19.5t63.5 57.5t24 93v586h-75v-586q0 -50 -28.5 -75t-69.5 -25
q-21 0 -42 3v-69q8 -2 20.5 -3t19.5 -1z" />
    <glyph glyph-name="Gcaron" unicode="&#x1e6;" horiz-adv-x="821" 
d="M428 -12q71 0 132.5 24.5t107.5 69.5t72 106.5t26 134.5v62h-338v-70h258v-5q0 -72 -34 -127.5t-92.5 -87.5t-131.5 -32q-82 0 -146 38.5t-100 108.5t-36 162q0 93 36 162.5t100 108.5t146 39t140 -39t86 -107l72 35q-18 47 -59.5 89.5t-102 69.5t-136.5 27
q-79 0 -145 -28.5t-114.5 -80.5t-75.5 -122t-27 -154t27 -154t75.5 -121.5t114.5 -80t145 -28.5zM373 849h74l114 144h-68l-83 -103l-81 103h-68z" />
    <glyph glyph-name="gcaron" unicode="&#x1e7;" horiz-adv-x="662" 
d="M331 -220q74 0 131.5 31.5t90 86t32.5 123.5v515h-75v-81q-32 43 -82 68t-109 25q-76 0 -135.5 -36t-94 -97t-34.5 -137q0 -75 34.5 -136.5t94.5 -97.5t135 -36q59 0 110 26t81 73v-86q0 -54 -25 -91t-66 -56t-90 -19q-64 0 -105 28t-57 66l-69 -37q27 -58 88.5 -95
t144.5 -37zM323 83q-54 0 -96.5 26.5t-67 71t-24.5 97.5q0 54 24.5 98t67.5 70.5t96 26.5q52 0 94 -26.5t67.5 -71t25.5 -97.5t-25.5 -97.5t-67.5 -71t-94 -26.5zM293 640h74l114 144h-68l-83 -103l-81 103h-68z" />
    <glyph glyph-name="uni01EA" unicode="&#x1ea;" horiz-adv-x="878" 
d="M439 -12q78 0 145.5 28.5t118.5 80t80 122t29 154.5t-29 154t-80 121.5t-118.5 80t-145.5 28.5t-145.5 -28t-118.5 -79.5t-80 -122t-29 -154.5t29 -154.5t80 -122t118.5 -80t145.5 -28.5zM439 63q-86 0 -152 42t-103.5 112.5t-37.5 155.5q0 63 21.5 119t60.5 99t92.5 67
t118.5 24t118.5 -24t92.5 -67t60.5 -99t21.5 -119q0 -85 -37.5 -155.5t-103.5 -112.5t-152 -42zM468 -170q26 0 51.5 9.5t47.5 28.5l-25 37q-16 -12 -34 -19.5t-36 -7.5q-23 0 -37 12.5t-14 34.5q0 54 83 90v15h-31q-51 -18 -77.5 -48.5t-26.5 -67.5q0 -38 28 -61t71 -23z
" />
    <glyph glyph-name="uni01EB" unicode="&#x1eb;" horiz-adv-x="655" 
d="M328 -12q75 0 136.5 36t98.5 99.5t37 145.5q0 81 -35.5 144t-97 99t-139.5 36t-139.5 -36.5t-97.5 -99.5t-36 -143q0 -81 36.5 -144.5t98.5 -100t138 -36.5zM328 63q-54 0 -97.5 27t-69.5 74t-26 105t26 104t69.5 73t97.5 27t97.5 -27t69 -73t25.5 -104t-25.5 -105
t-69 -74t-97.5 -27zM357 -160q26 0 51.5 9.5t47.5 28.5l-25 37q-16 -12 -34 -19.5t-36 -7.5q-23 0 -37 12.5t-14 34.5q0 54 83 90v15h-31q-51 -18 -77.5 -48.5t-26.5 -67.5q0 -38 28 -61t71 -23z" />
    <glyph glyph-name="Aringacute" unicode="&#x1fa;" horiz-adv-x="652" 
d="M11 0h84l65 182h333l64 -182h84l-272 745h-86zM186 257l140 394l139 -394h-279zM291 1058h67l53 85h-75zM326 799q51 0 85.5 34.5t34.5 84.5q0 51 -34.5 85.5t-85.5 34.5q-52 0 -86.5 -34.5t-34.5 -85.5q0 -50 34.5 -84.5t86.5 -34.5zM325 852q-28 0 -47 18.5t-19 47.5
q0 30 19 48.5t47 18.5q27 0 46.5 -18.5t19.5 -48.5q0 -29 -19.5 -47.5t-46.5 -18.5z" />
    <glyph glyph-name="aringacute" unicode="&#x1fb;" horiz-adv-x="572" 
d="M232 -12q62 0 112 25t76 64v-77h75v368q0 53 -25.5 93.5t-71 63.5t-104.5 23q-45 0 -87 -16.5t-74.5 -44.5t-47.5 -62l68 -37q18 39 55 63.5t86 24.5q56 0 91 -30t35 -78v-28l-194 -32q-89 -15 -130 -61t-41 -108q0 -44 23 -78t63 -53.5t91 -19.5zM135 142q0 37 25.5 64
t83.5 37l176 29v-40q0 -49 -23 -89t-64 -63.5t-96 -23.5q-45 0 -73.5 25t-28.5 61zM251 849h67l53 85h-75zM286 590q51 0 85.5 34.5t34.5 84.5q0 51 -34.5 85.5t-85.5 34.5q-52 0 -86.5 -34.5t-34.5 -85.5q0 -50 34.5 -84.5t86.5 -34.5zM285 643q-28 0 -47 18.5t-19 47.5
q0 30 19 48.5t47 18.5q27 0 46.5 -18.5t19.5 -48.5q0 -29 -19.5 -47.5t-46.5 -18.5z" />
    <glyph glyph-name="AEacute" unicode="&#x1fc;" horiz-adv-x="985" 
d="M11 0h84l65 182h301v-182h480v75h-400v261h380v75h-380v259h400v75h-658zM186 257l147 413h128v-413h-275zM461 849h63l91 144h-76z" />
    <glyph glyph-name="aeacute" unicode="&#x1fd;" horiz-adv-x="983" 
d="M232 -12q62 0 112 25.5t76 64.5v-78h75v76q36 -42 85.5 -65t108.5 -23q55 0 100.5 18.5t78.5 49t49 66.5l-64 34q-25 -42 -65 -70t-99 -28q-48 0 -90 23t-68.5 65t-28.5 99h422q2 13 3 25.5t1 22.5q0 48 -17 93.5t-49 82t-77.5 58t-103.5 21.5q-63 0 -116 -27t-87 -75
q-23 47 -71.5 74.5t-112.5 27.5q-45 0 -87 -16.5t-74.5 -44.5t-47.5 -62l68 -37q18 39 55 63.5t86 24.5q56 0 91 -30t35 -78v-28l-194 -32q-89 -15 -130 -61t-41 -108q0 -44 23 -78t63 -53.5t91 -19.5zM504 315q6 50 31.5 86.5t64 56.5t81.5 20q45 0 83 -21t60.5 -57.5
t22.5 -84.5h-343zM237 56q-45 0 -73.5 25t-28.5 61q0 37 25.5 64t83.5 37l176 29v-40q0 -49 -23 -89t-64 -63.5t-96 -23.5zM460 640h63l91 144h-76z" />
    <glyph glyph-name="Oslashacute" unicode="&#x1fe;" horiz-adv-x="878" 
d="M83 0h91l47 57q46 -33 101.5 -51t116.5 -18q78 0 145.5 28.5t118.5 80t80 122t29 154.5q0 81 -27.5 150t-75.5 120l85 102h-91l-47 -56q-46 32 -101 50t-116 18q-78 0 -145.5 -28t-118.5 -79.5t-80 -122t-29 -154.5q0 -82 27.5 -151t75.5 -119zM146 373q0 63 21.5 119
t60.5 99t92.5 67t118.5 24q48 0 90.5 -14t77.5 -39l-388 -465q-35 41 -54 95t-19 114zM439 63q-48 0 -91 14t-77 39l387 466q35 -42 54.5 -95.5t19.5 -113.5q0 -86 -37.5 -156t-103.5 -112t-152 -42zM407 849h63l91 144h-76z" />
    <glyph glyph-name="oslashacute" unicode="&#x1ff;" horiz-adv-x="655" 
d="M62 0h85l28 34q33 -22 71.5 -34t81.5 -12q75 0 136.5 36t98.5 99.5t37 145.5q0 57 -18.5 106t-51.5 85l63 76h-85l-27 -33q-33 22 -71.5 33.5t-81.5 11.5q-78 0 -139.5 -36.5t-97.5 -99.5t-36 -143q0 -57 19 -106t52 -86zM135 269q0 58 26 104t69.5 73t97.5 27
q56 0 102 -30l-253 -305q-20 27 -31 60t-11 71zM328 63q-57 0 -103 31l253 304q20 -26 31 -59t11 -70q0 -58 -25.5 -105t-69 -74t-97.5 -27zM296 640h63l91 144h-76z" />
    <glyph glyph-name="uni0200" unicode="&#x200;" horiz-adv-x="652" 
d="M11 0h84l65 182h333l64 -182h84l-272 745h-86zM186 257l140 394l139 -394h-279zM364 849h63l-78 144h-76zM224 849h63l-78 144h-76z" />
    <glyph glyph-name="uni0201" unicode="&#x201;" horiz-adv-x="572" 
d="M232 -12q62 0 112 25t76 64v-77h75v368q0 53 -25.5 93.5t-71 63.5t-104.5 23q-45 0 -87 -16.5t-74.5 -44.5t-47.5 -62l68 -37q18 39 55 63.5t86 24.5q56 0 91 -30t35 -78v-28l-194 -32q-89 -15 -130 -61t-41 -108q0 -44 23 -78t63 -53.5t91 -19.5zM135 142q0 37 25.5 64
t83.5 37l176 29v-40q0 -49 -23 -89t-64 -63.5t-96 -23.5q-45 0 -73.5 25t-28.5 61zM324 640h63l-78 144h-76zM184 640h63l-78 144h-76z" />
    <glyph glyph-name="uni0202" unicode="&#x202;" horiz-adv-x="652" 
d="M11 0h84l65 182h333l64 -182h84l-272 745h-86zM186 257l140 394l139 -394h-279zM188 849h55q0 34 24 59t58 25t59 -25t25 -59h54q0 38 -18.5 68.5t-50 49t-69.5 18.5t-69 -18.5t-49.5 -49.5t-18.5 -68z" />
    <glyph glyph-name="uni0203" unicode="&#x203;" horiz-adv-x="572" 
d="M232 -12q62 0 112 25t76 64v-77h75v368q0 53 -25.5 93.5t-71 63.5t-104.5 23q-45 0 -87 -16.5t-74.5 -44.5t-47.5 -62l68 -37q18 39 55 63.5t86 24.5q56 0 91 -30t35 -78v-28l-194 -32q-89 -15 -130 -61t-41 -108q0 -44 23 -78t63 -53.5t91 -19.5zM135 142q0 37 25.5 64
t83.5 37l176 29v-40q0 -49 -23 -89t-64 -63.5t-96 -23.5q-45 0 -73.5 25t-28.5 61zM148 640h55q0 34 24 59t58 25t59 -25t25 -59h54q0 38 -18.5 68.5t-50 49t-69.5 18.5t-69 -18.5t-49.5 -49.5t-18.5 -68z" />
    <glyph glyph-name="uni0204" unicode="&#x204;" horiz-adv-x="612" 
d="M88 0h480v75h-400v261h380v75h-380v259h400v75h-480v-745zM366 849h63l-78 144h-76zM226 849h63l-78 144h-76z" />
    <glyph glyph-name="uni0205" unicode="&#x205;" horiz-adv-x="615" 
d="M321 -12q55 0 100.5 18.5t78.5 49t49 66.5l-64 34q-25 -42 -65 -70t-99 -28q-48 0 -90 23t-68.5 64.5t-28.5 99.5h422q2 13 3 25.5t1 22.5q0 48 -17 93.5t-49 82t-77.5 58t-103.5 21.5q-73 0 -131.5 -36t-92.5 -98.5t-34 -143.5t35 -145t95.5 -100.5t135.5 -36.5z
M313 478q45 0 82.5 -21t60 -57.5t23.5 -84.5h-343q6 50 31.5 86.5t63.5 56.5t82 20zM346 640h63l-78 144h-76zM206 640h63l-78 144h-76z" />
    <glyph glyph-name="uni0206" unicode="&#x206;" horiz-adv-x="612" 
d="M88 0h480v75h-400v261h380v75h-380v259h400v75h-480v-745zM190 849h55q0 34 24 59t58 25t59 -25t25 -59h54q0 38 -18.5 68.5t-50 49t-69.5 18.5t-69 -18.5t-49.5 -49.5t-18.5 -68z" />
    <glyph glyph-name="uni0207" unicode="&#x207;" horiz-adv-x="615" 
d="M321 -12q55 0 100.5 18.5t78.5 49t49 66.5l-64 34q-25 -42 -65 -70t-99 -28q-48 0 -90 23t-68.5 64.5t-28.5 99.5h422q2 13 3 25.5t1 22.5q0 48 -17 93.5t-49 82t-77.5 58t-103.5 21.5q-73 0 -131.5 -36t-92.5 -98.5t-34 -143.5t35 -145t95.5 -100.5t135.5 -36.5z
M313 478q45 0 82.5 -21t60 -57.5t23.5 -84.5h-343q6 50 31.5 86.5t63.5 56.5t82 20zM170 640h55q0 34 24 59t58 25t59 -25t25 -59h54q0 38 -18.5 68.5t-50 49t-69.5 18.5t-69 -18.5t-49.5 -49.5t-18.5 -68z" />
    <glyph glyph-name="uni0208" unicode="&#x208;" horiz-adv-x="256" 
d="M88 0h80v745h-80v-745zM166 849h63l-78 144h-76zM26 849h63l-78 144h-76z" />
    <glyph glyph-name="uni0209" unicode="&#x209;" horiz-adv-x="199" 
d="M62 0h75v536h-75v-536zM137 640h63l-78 144h-76zM-3 640h63l-78 144h-76z" />
    <glyph glyph-name="uni020A" unicode="&#x20a;" horiz-adv-x="256" 
d="M88 0h80v745h-80v-745zM-10 849h55q0 34 24 59t58 25t59 -25t25 -59h54q0 38 -18.5 68.5t-50 49t-69.5 18.5t-69 -18.5t-49.5 -49.5t-18.5 -68z" />
    <glyph glyph-name="uni020B" unicode="&#x20b;" horiz-adv-x="199" 
d="M62 0h75v536h-75v-536zM-39 640h55q0 34 24 59t58 25t59 -25t25 -59h54q0 38 -18.5 68.5t-50 49t-69.5 18.5t-69 -18.5t-49.5 -49.5t-18.5 -68z" />
    <glyph glyph-name="uni020C" unicode="&#x20c;" horiz-adv-x="878" 
d="M439 -12q78 0 145.5 28.5t118.5 80t80 122t29 154.5t-29 154t-80 121.5t-118.5 80t-145.5 28.5t-145.5 -28t-118.5 -79.5t-80 -122t-29 -154.5t29 -154.5t80 -122t118.5 -80t145.5 -28.5zM439 63q-86 0 -152 42t-103.5 112.5t-37.5 155.5q0 63 21.5 119t60.5 99t92.5 67
t118.5 24t118.5 -24t92.5 -67t60.5 -99t21.5 -119q0 -85 -37.5 -155.5t-103.5 -112.5t-152 -42zM477 849h63l-78 144h-76zM337 849h63l-78 144h-76z" />
    <glyph glyph-name="uni020D" unicode="&#x20d;" horiz-adv-x="655" 
d="M328 -12q75 0 136.5 36t98.5 99.5t37 145.5q0 81 -35.5 144t-97 99t-139.5 36t-139.5 -36.5t-97.5 -99.5t-36 -143q0 -81 36.5 -144.5t98.5 -100t138 -36.5zM328 63q-54 0 -97.5 27t-69.5 74t-26 105t26 104t69.5 73t97.5 27t97.5 -27t69 -73t25.5 -104t-25.5 -105
t-69 -74t-97.5 -27zM366 640h63l-78 144h-76zM226 640h63l-78 144h-76z" />
    <glyph glyph-name="uni020E" unicode="&#x20e;" horiz-adv-x="878" 
d="M439 -12q78 0 145.5 28.5t118.5 80t80 122t29 154.5t-29 154t-80 121.5t-118.5 80t-145.5 28.5t-145.5 -28t-118.5 -79.5t-80 -122t-29 -154.5t29 -154.5t80 -122t118.5 -80t145.5 -28.5zM439 63q-86 0 -152 42t-103.5 112.5t-37.5 155.5q0 63 21.5 119t60.5 99t92.5 67
t118.5 24t118.5 -24t92.5 -67t60.5 -99t21.5 -119q0 -85 -37.5 -155.5t-103.5 -112.5t-152 -42zM301 849h55q0 34 24 59t58 25t59 -25t25 -59h54q0 38 -18.5 68.5t-50 49t-69.5 18.5t-69 -18.5t-49.5 -49.5t-18.5 -68z" />
    <glyph glyph-name="uni020F" unicode="&#x20f;" horiz-adv-x="655" 
d="M328 -12q75 0 136.5 36t98.5 99.5t37 145.5q0 81 -35.5 144t-97 99t-139.5 36t-139.5 -36.5t-97.5 -99.5t-36 -143q0 -81 36.5 -144.5t98.5 -100t138 -36.5zM328 63q-54 0 -97.5 27t-69.5 74t-26 105t26 104t69.5 73t97.5 27t97.5 -27t69 -73t25.5 -104t-25.5 -105
t-69 -74t-97.5 -27zM190 640h55q0 34 24 59t58 25t59 -25t25 -59h54q0 38 -18.5 68.5t-50 49t-69.5 18.5t-69 -18.5t-49.5 -49.5t-18.5 -68z" />
    <glyph glyph-name="uni0210" unicode="&#x210;" horiz-adv-x="641" 
d="M88 0h80v290h182l164 -290h94l-174 303q71 23 112.5 79t41.5 135q0 68 -30.5 119.5t-85.5 80t-128 28.5h-256v-745zM168 365v305h180q72 0 116 -40.5t44 -111.5t-44 -112t-116 -41h-180zM353 849h63l-78 144h-76zM213 849h63l-78 144h-76z" />
    <glyph glyph-name="uni0211" unicode="&#x211;" horiz-adv-x="338" 
d="M77 0h75v330q0 66 35 102t93 36h47v75h-34q-49 0 -84.5 -17t-56.5 -48v58h-75v-536zM240 640h63l-78 144h-76zM100 640h63l-78 144h-76z" />
    <glyph glyph-name="uni0212" unicode="&#x212;" horiz-adv-x="641" 
d="M88 0h80v290h182l164 -290h94l-174 303q71 23 112.5 79t41.5 135q0 68 -30.5 119.5t-85.5 80t-128 28.5h-256v-745zM168 365v305h180q72 0 116 -40.5t44 -111.5t-44 -112t-116 -41h-180zM177 849h55q0 34 24 59t58 25t59 -25t25 -59h54q0 38 -18.5 68.5t-50 49
t-69.5 18.5t-69 -18.5t-49.5 -49.5t-18.5 -68z" />
    <glyph glyph-name="uni0213" unicode="&#x213;" horiz-adv-x="338" 
d="M77 0h75v330q0 66 35 102t93 36h47v75h-34q-49 0 -84.5 -17t-56.5 -48v58h-75v-536zM64 640h55q0 34 24 59t58 25t59 -25t25 -59h54q0 38 -18.5 68.5t-50 49t-69.5 18.5t-69 -18.5t-49.5 -49.5t-18.5 -68z" />
    <glyph glyph-name="uni0214" unicode="&#x214;" horiz-adv-x="700" 
d="M350 -12q80 0 139.5 33t92.5 90.5t33 131.5v502h-80v-502q0 -81 -51 -130.5t-134 -49.5q-82 0 -133.5 49.5t-51.5 130.5v502h-80v-502q0 -74 33 -131.5t93 -90.5t139 -33zM388 849h63l-78 144h-76zM248 849h63l-78 144h-76z" />
    <glyph glyph-name="uni0215" unicode="&#x215;" 
d="M267 -12q50 0 90 21t64 57v-66h75v536h-75v-319q0 -72 -39.5 -113t-101.5 -41q-61 0 -100 39.5t-39 104.5v329h-75v-338q0 -62 26.5 -109.5t72.5 -74t102 -26.5zM325 640h63l-78 144h-76zM185 640h63l-78 144h-76z" />
    <glyph glyph-name="uni0216" unicode="&#x216;" horiz-adv-x="700" 
d="M350 -12q80 0 139.5 33t92.5 90.5t33 131.5v502h-80v-502q0 -81 -51 -130.5t-134 -49.5q-82 0 -133.5 49.5t-51.5 130.5v502h-80v-502q0 -74 33 -131.5t93 -90.5t139 -33zM212 849h55q0 34 24 59t58 25t59 -25t25 -59h54q0 38 -18.5 68.5t-50 49t-69.5 18.5t-69 -18.5
t-49.5 -49.5t-18.5 -68z" />
    <glyph glyph-name="uni0217" unicode="&#x217;" 
d="M267 -12q50 0 90 21t64 57v-66h75v536h-75v-319q0 -72 -39.5 -113t-101.5 -41q-61 0 -100 39.5t-39 104.5v329h-75v-338q0 -62 26.5 -109.5t72.5 -74t102 -26.5zM149 640h55q0 34 24 59t58 25t59 -25t25 -59h54q0 38 -18.5 68.5t-50 49t-69.5 18.5t-69 -18.5t-49.5 -49.5
t-18.5 -68z" />
    <glyph glyph-name="uni0218" unicode="&#x218;" horiz-adv-x="646" 
d="M339 -12q71 0 125.5 26t85 71.5t30.5 105.5q0 74 -45 123t-133 75l-118 35q-60 18 -89 54.5t-29 82.5q0 57 40 90.5t104 33.5q68 0 118.5 -34t74.5 -100l70 28q-16 49 -53 89t-90.5 64.5t-120.5 24.5q-64 0 -114.5 -26t-79.5 -71.5t-29 -104.5q0 -69 42.5 -123t121.5 -77
l134 -40q56 -16 86 -46t30 -85q0 -56 -44.5 -90t-116.5 -34q-76 0 -131 39.5t-81 115.5l-72 -27q17 -55 57 -100.5t98 -72.5t129 -27zM273 -320q100 24 100 156v84h-80v-110h43q-3 -84 -63 -100v-30z" />
    <glyph glyph-name="uni0219" unicode="&#x219;" horiz-adv-x="509" 
d="M263 -12q56 0 99 19.5t67.5 54.5t24.5 79q0 54 -36.5 94t-101.5 59l-89 26q-14 4 -32.5 12t-32.5 24t-14 43q0 35 27 58t72 23q46 0 83.5 -25.5t57.5 -70.5l64 30q-23 63 -78.5 98.5t-123.5 35.5q-50 0 -91 -19t-65 -54t-24 -82q0 -50 33 -88t107 -59l77 -22
q16 -4 37 -13t37 -25.5t16 -44.5q0 -38 -33 -61.5t-81 -23.5q-50 0 -91.5 29t-64.5 78l-63 -30q26 -67 84 -106t135 -39zM205 -320q100 24 100 156v84h-80v-110h43q-3 -84 -63 -100v-30z" />
    <glyph glyph-name="uni021A" unicode="&#x21a;" horiz-adv-x="512" 
d="M217 0h80v670h204v75h-490v-75h206v-670zM206 -320q100 24 100 156v84h-80v-110h43q-3 -84 -63 -100v-30z" />
    <glyph glyph-name="uni021B" unicode="&#x21b;" horiz-adv-x="388" 
d="M282 -6q9 0 24 1t27 4v68q-8 -1 -19 -2t-19 -1q-50 0 -69 26t-19 66v305h118v75h-118v124h-75v-45q0 -34 -20 -56.5t-54 -22.5h-25v-75h99v-305q0 -78 39 -120t111 -42zM224 -320q100 24 100 156v84h-80v-110h43q-3 -84 -63 -100v-30z" />
    <glyph glyph-name="uni022A" unicode="&#x22a;" horiz-adv-x="878" 
d="M439 -12q78 0 145.5 28.5t118.5 80t80 122t29 154.5t-29 154t-80 121.5t-118.5 80t-145.5 28.5t-145.5 -28t-118.5 -79.5t-80 -122t-29 -154.5t29 -154.5t80 -122t118.5 -80t145.5 -28.5zM439 63q-86 0 -152 42t-103.5 112.5t-37.5 155.5q0 63 21.5 119t60.5 99t92.5 67
t118.5 24t118.5 -24t92.5 -67t60.5 -99t21.5 -119q0 -85 -37.5 -155.5t-103.5 -112.5t-152 -42zM315 1014h250v60h-250v-60zM357 869q24 0 40.5 16.5t16.5 41.5q0 24 -16.5 40.5t-40.5 16.5q-25 0 -41.5 -16.5t-16.5 -40.5q0 -25 16.5 -41.5t41.5 -16.5zM522 869
q24 0 40.5 16.5t16.5 41.5q0 24 -16.5 40.5t-40.5 16.5q-25 0 -41.5 -16.5t-16.5 -40.5q0 -25 16.5 -41.5t41.5 -16.5z" />
    <glyph glyph-name="uni022B" unicode="&#x22b;" horiz-adv-x="655" 
d="M328 -12q75 0 136.5 36t98.5 99.5t37 145.5q0 81 -35.5 144t-97 99t-139.5 36t-139.5 -36.5t-97.5 -99.5t-36 -143q0 -81 36.5 -144.5t98.5 -100t138 -36.5zM328 63q-54 0 -97.5 27t-69.5 74t-26 105t26 104t69.5 73t97.5 27t97.5 -27t69 -73t25.5 -104t-25.5 -105
t-69 -74t-97.5 -27zM204 805h250v60h-250v-60zM246 660q24 0 40.5 16.5t16.5 41.5q0 24 -16.5 40.5t-40.5 16.5q-25 0 -41.5 -16.5t-16.5 -40.5q0 -25 16.5 -41.5t41.5 -16.5zM411 660q24 0 40.5 16.5t16.5 41.5q0 24 -16.5 40.5t-40.5 16.5q-25 0 -41.5 -16.5t-16.5 -40.5
q0 -25 16.5 -41.5t41.5 -16.5z" />
    <glyph glyph-name="uni022C" unicode="&#x22c;" horiz-adv-x="878" 
d="M439 -12q78 0 145.5 28.5t118.5 80t80 122t29 154.5t-29 154t-80 121.5t-118.5 80t-145.5 28.5t-145.5 -28t-118.5 -79.5t-80 -122t-29 -154.5t29 -154.5t80 -122t118.5 -80t145.5 -28.5zM439 63q-86 0 -152 42t-103.5 112.5t-37.5 155.5q0 63 21.5 119t60.5 99t92.5 67
t118.5 24t118.5 -24t92.5 -67t60.5 -99t21.5 -119q0 -85 -37.5 -155.5t-103.5 -112.5t-152 -42zM316 1044h250v60h-250v-60zM501 889q35 0 57 26t23 71h-54q-1 -18 -9 -29t-24 -11q-18 0 -32 11t-32 22.5t-48 11.5q-34 0 -56.5 -26t-24.5 -71h54q2 22 11 31t22 9
q19 0 33 -11.5t32 -22.5t48 -11z" />
    <glyph glyph-name="uni022D" unicode="&#x22d;" horiz-adv-x="655" 
d="M328 -12q75 0 136.5 36t98.5 99.5t37 145.5q0 81 -35.5 144t-97 99t-139.5 36t-139.5 -36.5t-97.5 -99.5t-36 -143q0 -81 36.5 -144.5t98.5 -100t138 -36.5zM328 63q-54 0 -97.5 27t-69.5 74t-26 105t26 104t69.5 73t97.5 27t97.5 -27t69 -73t25.5 -104t-25.5 -105
t-69 -74t-97.5 -27zM205 835h250v60h-250v-60zM390 680q35 0 57 26t23 71h-54q-1 -18 -9 -29t-24 -11q-18 0 -32 11t-32 22.5t-48 11.5q-34 0 -56.5 -26t-24.5 -71h54q2 22 11 31t22 9q19 0 33 -11.5t32 -22.5t48 -11z" />
    <glyph glyph-name="uni0230" unicode="&#x230;" horiz-adv-x="878" 
d="M439 -12q78 0 145.5 28.5t118.5 80t80 122t29 154.5t-29 154t-80 121.5t-118.5 80t-145.5 28.5t-145.5 -28t-118.5 -79.5t-80 -122t-29 -154.5t29 -154.5t80 -122t118.5 -80t145.5 -28.5zM439 63q-86 0 -152 42t-103.5 112.5t-37.5 155.5q0 63 21.5 119t60.5 99t92.5 67
t118.5 24t118.5 -24t92.5 -67t60.5 -99t21.5 -119q0 -85 -37.5 -155.5t-103.5 -112.5t-152 -42zM314 1014h250v60h-250v-60zM440 869q24 0 40.5 16.5t16.5 41.5q0 24 -16.5 40.5t-40.5 16.5q-25 0 -41.5 -16.5t-16.5 -40.5q0 -25 16.5 -41.5t41.5 -16.5z" />
    <glyph glyph-name="uni0231" unicode="&#x231;" horiz-adv-x="655" 
d="M328 -12q75 0 136.5 36t98.5 99.5t37 145.5q0 81 -35.5 144t-97 99t-139.5 36t-139.5 -36.5t-97.5 -99.5t-36 -143q0 -81 36.5 -144.5t98.5 -100t138 -36.5zM328 63q-54 0 -97.5 27t-69.5 74t-26 105t26 104t69.5 73t97.5 27t97.5 -27t69 -73t25.5 -104t-25.5 -105
t-69 -74t-97.5 -27zM203 805h250v60h-250v-60zM329 660q24 0 40.5 16.5t16.5 41.5q0 24 -16.5 40.5t-40.5 16.5q-25 0 -41.5 -16.5t-16.5 -40.5q0 -25 16.5 -41.5t41.5 -16.5z" />
    <glyph glyph-name="uni0232" unicode="&#x232;" horiz-adv-x="623" 
d="M272 0h80v346l260 399h-89l-211 -323l-212 323h-89l261 -399v-346zM182 879h260v60h-260v-60z" />
    <glyph glyph-name="uni0233" unicode="&#x233;" horiz-adv-x="536" 
d="M88 -220q53 0 90 21.5t61.5 56.5t40.5 74l245 605h-83l-175 -443l-175 443h-81l214 -537l-19 -46q-25 -58 -51 -78.5t-75 -20.5q-16 0 -31.5 2.5t-25.5 3.5v-70q16 -6 32.5 -8.5t32.5 -2.5zM138 670h260v60h-260v-60z" />
    <glyph glyph-name="uni0237" unicode="&#x237;" horiz-adv-x="229" 
d="M-23 -220q48 0 87.5 19.5t63.5 57.5t24 93v586h-75v-586q0 -50 -28.5 -75t-69.5 -25q-21 0 -42 3v-69q8 -2 20.5 -3t19.5 -1z" />
    <glyph glyph-name="uni0259" unicode="&#x259;" horiz-adv-x="615" 
d="M302 -12q74 0 132 36t92 99t34 143q0 82 -35.5 145.5t-95.5 100t-135 36.5q-54 0 -100 -18.5t-78.5 -48.5t-49.5 -67l64 -34q26 42 66 70t98 28q48 0 90 -23t68.5 -64.5t28.5 -99.5h-422q-2 -13 -3 -25.5t-1 -22.5q0 -48 17 -93.5t49 -82t77.5 -58t103.5 -21.5zM302 58
q-45 0 -82.5 21t-60 57.5t-23.5 84.5h343q-6 -50 -31.5 -86.5t-63.5 -56.5t-82 -20z" />
    <glyph glyph-name="uni02BB" unicode="&#x2bb;" horiz-adv-x="306" 
d="M203 757q-100 -24 -100 -156v-84h80v110h-43q3 84 63 100v30z" />
    <glyph glyph-name="uni02BC" unicode="&#x2bc;" horiz-adv-x="286" 
d="M116 527h55l12 218h-80z" />
    <glyph glyph-name="uni02BE" unicode="&#x2be;" horiz-adv-x="327" 
d="M103 590q52 0 86.5 34.5t34.5 84.5q0 51 -34.5 85.5t-86.5 34.5v-53q29 0 48 -18.5t19 -48.5q0 -29 -19 -47.5t-48 -18.5v-53z" />
    <glyph glyph-name="uni02BF" unicode="&#x2bf;" horiz-adv-x="327" 
d="M224 590v53q-28 0 -47.5 18.5t-19.5 47.5q0 30 19.5 48.5t47.5 18.5v53q-52 0 -86.5 -34.5t-34.5 -85.5q0 -50 34.5 -84.5t86.5 -34.5z" />
    <glyph glyph-name="circumflex" unicode="&#x2c6;" horiz-adv-x="506" 
d="M103 640h68l81 103l83 -103h68l-114 144h-74z" />
    <glyph glyph-name="caron" unicode="&#x2c7;" horiz-adv-x="506" 
d="M215 640h74l114 144h-68l-83 -103l-81 103h-68z" />
    <glyph glyph-name="uni02C8" unicode="&#x2c8;" horiz-adv-x="286" 
d="M103 550h80v195h-80v-195z" />
    <glyph glyph-name="uni02C9" unicode="&#x2c9;" horiz-adv-x="466" 
d="M103 670h260v60h-260v-60z" />
    <glyph glyph-name="uni02CA" unicode="&#x2ca;" horiz-adv-x="360" 
d="M103 640h63l91 144h-76z" />
    <glyph glyph-name="uni02CB" unicode="&#x2cb;" horiz-adv-x="360" 
d="M194 640h63l-78 144h-76z" />
    <glyph glyph-name="uni02CC" unicode="&#x2cc;" horiz-adv-x="286" 
d="M103 -195h80v195h-80v-195z" />
    <glyph glyph-name="breve" unicode="&#x2d8;" horiz-adv-x="481" 
d="M240 640q38 0 69.5 18.5t50 49.5t18.5 68h-54q0 -34 -25 -59t-59 -25t-58 25t-24 59h-55q0 -37 18.5 -68t49.5 -49.5t69 -18.5z" />
    <glyph glyph-name="dotaccent" unicode="&#x2d9;" horiz-adv-x="321" 
d="M161 660q24 0 40.5 16.5t16.5 41.5q0 24 -16.5 40.5t-40.5 16.5q-25 0 -41.5 -16.5t-16.5 -40.5q0 -25 16.5 -41.5t41.5 -16.5z" />
    <glyph glyph-name="ring" unicode="&#x2da;" horiz-adv-x="447" 
d="M224 590q51 0 85.5 34.5t34.5 84.5q0 51 -34.5 85.5t-85.5 34.5q-52 0 -86.5 -34.5t-34.5 -85.5q0 -50 34.5 -84.5t86.5 -34.5zM223 643q-28 0 -47 18.5t-19 47.5q0 30 19 48.5t47 18.5q27 0 46.5 -18.5t19.5 -48.5q0 -29 -19.5 -47.5t-46.5 -18.5z" />
    <glyph glyph-name="ogonek" unicode="&#x2db;" horiz-adv-x="404" 
d="M202 -180q26 0 51.5 9.5t47.5 28.5l-25 37q-16 -12 -34 -19.5t-36 -7.5q-23 0 -37 12.5t-14 34.5q0 54 83 90v15h-31q-51 -18 -77.5 -48.5t-26.5 -67.5q0 -38 28 -61t71 -23z" />
    <glyph glyph-name="tilde" unicode="&#x2dc;" horiz-adv-x="486" 
d="M303 650q35 0 57 26t23 71h-54q-1 -18 -9 -29t-24 -11q-18 0 -32 11t-32 22.5t-48 11.5q-34 0 -56.5 -26t-24.5 -71h54q2 22 11 31t22 9q19 0 33 -11.5t32 -22.5t48 -11z" />
    <glyph glyph-name="hungarumlaut" unicode="&#x2dd;" horiz-adv-x="500" 
d="M103 640h63l91 144h-76zM243 640h63l91 144h-76z" />
    <glyph glyph-name="gravecomb" unicode="&#x300;" horiz-adv-x="0" 
d="M194 640h63l-78 144h-76z" />
    <glyph glyph-name="acutecomb" unicode="&#x301;" horiz-adv-x="0" 
d="M103 640h63l91 144h-76z" />
    <glyph glyph-name="uni0302" unicode="&#x302;" horiz-adv-x="0" 
d="M103 640h68l81 103l83 -103h68l-114 144h-74z" />
    <glyph glyph-name="tildecomb" unicode="&#x303;" horiz-adv-x="0" 
d="M303 650q35 0 57 26t23 71h-54q-1 -18 -9 -29t-24 -11q-18 0 -32 11t-32 22.5t-48 11.5q-34 0 -56.5 -26t-24.5 -71h54q2 22 11 31t22 9q19 0 33 -11.5t32 -22.5t48 -11z" />
    <glyph glyph-name="uni0304" unicode="&#x304;" horiz-adv-x="0" 
d="M103 670h260v60h-260v-60z" />
    <glyph glyph-name="uni0306" unicode="&#x306;" horiz-adv-x="0" 
d="M240 640q38 0 69.5 18.5t50 49.5t18.5 68h-54q0 -34 -25 -59t-59 -25t-58 25t-24 59h-55q0 -37 18.5 -68t49.5 -49.5t69 -18.5z" />
    <glyph glyph-name="uni0307" unicode="&#x307;" horiz-adv-x="0" 
d="M161 660q24 0 40.5 16.5t16.5 41.5q0 24 -16.5 40.5t-40.5 16.5q-25 0 -41.5 -16.5t-16.5 -40.5q0 -25 16.5 -41.5t41.5 -16.5z" />
    <glyph glyph-name="uni0308" unicode="&#x308;" horiz-adv-x="0" 
d="M161 660q24 0 40.5 16.5t16.5 41.5q0 24 -16.5 40.5t-40.5 16.5q-25 0 -41.5 -16.5t-16.5 -40.5q0 -25 16.5 -41.5t41.5 -16.5zM326 660q24 0 40.5 16.5t16.5 41.5q0 24 -16.5 40.5t-40.5 16.5q-25 0 -41.5 -16.5t-16.5 -40.5q0 -25 16.5 -41.5t41.5 -16.5z" />
    <glyph glyph-name="hookabovecomb" unicode="&#x309;" horiz-adv-x="0" 
d="M162 590q53 22 77.5 51.5t24.5 63.5q0 39 -30 63.5t-79 24.5q-12 0 -26.5 -2t-25.5 -7v-43q9 3 19 5t21 2q32 0 47 -15t15 -36q0 -22 -16 -40.5t-45 -32.5z" />
    <glyph glyph-name="uni030A" unicode="&#x30a;" horiz-adv-x="0" 
d="M224 590q51 0 85.5 34.5t34.5 84.5q0 51 -34.5 85.5t-85.5 34.5q-52 0 -86.5 -34.5t-34.5 -85.5q0 -50 34.5 -84.5t86.5 -34.5zM223 643q-28 0 -47 18.5t-19 47.5q0 30 19 48.5t47 18.5q27 0 46.5 -18.5t19.5 -48.5q0 -29 -19.5 -47.5t-46.5 -18.5z" />
    <glyph glyph-name="uni030B" unicode="&#x30b;" horiz-adv-x="0" 
d="M103 640h63l91 144h-76zM243 640h63l91 144h-76z" />
    <glyph glyph-name="uni030C" unicode="&#x30c;" horiz-adv-x="0" 
d="M215 640h74l114 144h-68l-83 -103l-81 103h-68z" />
    <glyph glyph-name="uni030F" unicode="&#x30f;" horiz-adv-x="0" 
d="M334 640h63l-78 144h-76zM194 640h63l-78 144h-76z" />
    <glyph glyph-name="uni0311" unicode="&#x311;" horiz-adv-x="0" 
d="M103 640h55q0 34 24 59t58 25t59 -25t25 -59h54q0 38 -18.5 68.5t-50 49t-69.5 18.5t-69 -18.5t-49.5 -49.5t-18.5 -68z" />
    <glyph glyph-name="uni0312" unicode="&#x312;" horiz-adv-x="0" 
d="M103 577h80v110h-43q2 34 17.5 58t45.5 32v30q-49 -12 -74.5 -50t-25.5 -96v-84z" />
    <glyph glyph-name="uni031B" unicode="&#x31b;" horiz-adv-x="0" 
d="M103 643h23q52 0 84 26t32 81q0 25 -7 46t-16 41h-74q9 -20 15.5 -39.5t6.5 -40.5q0 -32 -15.5 -42.5t-35.5 -10.5h-13v-61z" />
    <glyph glyph-name="dotbelowcomb" unicode="&#x323;" horiz-adv-x="0" 
d="M161 -195q24 0 40.5 16.5t16.5 41.5q0 24 -16.5 40.5t-40.5 16.5q-25 0 -41.5 -16.5t-16.5 -40.5q0 -25 16.5 -41.5t41.5 -16.5z" />
    <glyph glyph-name="uni0324" unicode="&#x324;" horiz-adv-x="0" 
d="M161 -195q24 0 40.5 16.5t16.5 41.5q0 24 -16.5 40.5t-40.5 16.5q-25 0 -41.5 -16.5t-16.5 -40.5q0 -25 16.5 -41.5t41.5 -16.5zM326 -195q24 0 40.5 16.5t16.5 41.5q0 24 -16.5 40.5t-40.5 16.5q-25 0 -41.5 -16.5t-16.5 -40.5q0 -25 16.5 -41.5t41.5 -16.5z" />
    <glyph glyph-name="uni0326" unicode="&#x326;" horiz-adv-x="0" 
d="M103 -320q100 24 100 156v84h-80v-110h43q-3 -84 -63 -100v-30z" />
    <glyph glyph-name="uni0327" unicode="&#x327;" horiz-adv-x="0" 
d="M178 -200q50 0 77.5 25.5t27.5 62.5q0 32 -22.5 52t-56.5 20q-11 0 -21 -2l6 62h-51l-12 -104l20 -8q20 10 41 10q36 0 36 -33q0 -39 -49 -39q-12 0 -28 2.5t-31 8.5l-12 -42q14 -7 35 -11t40 -4z" />
    <glyph glyph-name="uni0328" unicode="&#x328;" horiz-adv-x="0" 
d="M202 -180q26 0 51.5 9.5t47.5 28.5l-25 37q-16 -12 -34 -19.5t-36 -7.5q-23 0 -37 12.5t-14 34.5q0 54 83 90v15h-31q-51 -18 -77.5 -48.5t-26.5 -67.5q0 -38 28 -61t71 -23z" />
    <glyph glyph-name="uni032E" unicode="&#x32e;" horiz-adv-x="0" 
d="M240 -216q38 0 69.5 18.5t50 49.5t18.5 68h-54q0 -34 -25 -59t-59 -25t-58 25t-24 59h-55q0 -37 18.5 -68t49.5 -49.5t69 -18.5z" />
    <glyph glyph-name="uni0331" unicode="&#x331;" horiz-adv-x="0" 
d="M103 -160h260v60h-260v-60z" />
    <glyph glyph-name="uni0394" unicode="&#x394;" horiz-adv-x="598" 
d="M11 0h576v75l-245 670h-86l-245 -670v-75zM95 75l204 576l204 -576h-408z" />
    <glyph glyph-name="uni03A9" unicode="&#x3a9;" horiz-adv-x="878" 
d="M66 0h292v75q-64 18 -111.5 61t-74 104.5t-26.5 132.5q0 63 21.5 119t60.5 99t92.5 67t118.5 24t118.5 -24t92.5 -67t60.5 -99t21.5 -119q0 -71 -26.5 -132.5t-74 -104.5t-111.5 -61v-75h292v75h-145q66 48 105.5 125t39.5 173q0 84 -29 154.5t-80 122t-118.5 79.5
t-145.5 28t-145.5 -28t-118.5 -79.5t-80 -122t-29 -154.5q0 -96 39.5 -173t105.5 -125h-145v-75z" />
    <glyph glyph-name="pi" unicode="&#x3c0;" horiz-adv-x="646" 
d="M133 0h75v461h230v-461h75v461h100v75h-580v-75h100v-461z" />
    <glyph glyph-name="uni0E3F" unicode="&#xe3f;" horiz-adv-x="693" 
d="M88 0h211v-100h70v100h33q109 0 172.5 58.5t63.5 158.5q0 59 -30.5 108t-84.5 76q85 51 85 157q0 84 -56 135.5t-151 51.5h-32v100h-70v-100h-211v-745zM168 430v240h131v-240h-131zM395 670q60 0 96.5 -29.5t36.5 -85.5q0 -55 -36.5 -90t-96.5 -35h-26v240h26zM168 75
v283h131v-283h-131zM402 358q71 0 113.5 -38.5t42.5 -103.5q0 -66 -42.5 -103.5t-113.5 -37.5h-33v283h33z" />
    <glyph glyph-name="uni1E08" unicode="&#x1e08;" horiz-adv-x="781" 
d="M428 -12q76 0 136.5 27t102 69.5t59.5 88.5l-75 33q-28 -65 -85.5 -104t-137.5 -39q-82 0 -146 38.5t-100 108.5t-36 162q0 93 36 162.5t100 108.5t146 39q80 0 137.5 -39.5t85.5 -104.5l75 33q-18 47 -59.5 89.5t-102 69.5t-136.5 27q-79 0 -145 -28.5t-114.5 -80.5
t-75.5 -122t-27 -154t27 -154t75.5 -121.5t114.5 -80t145 -28.5zM405 -220q50 0 77.5 25.5t27.5 62.5q0 32 -22.5 52t-56.5 20q-11 0 -21 -2l6 62h-51l-12 -104l20 -8q20 10 41 10q36 0 36 -33q0 -39 -49 -39q-12 0 -28 2.5t-31 8.5l-12 -42q14 -7 35 -11t40 -4zM359 849h63
l91 144h-76z" />
    <glyph glyph-name="uni1E09" unicode="&#x1e09;" horiz-adv-x="600" 
d="M322 -12q50 0 94 18t78 49t51 70l-68 37q-21 -45 -61.5 -72t-93.5 -27t-95.5 27t-67 73.5t-24.5 104.5q0 59 24.5 105.5t67 73t95.5 26.5t94 -27t61 -70l68 35q-17 40 -51 70.5t-78 48.5t-94 18q-79 0 -139 -36.5t-94 -99.5t-34 -143t34 -143.5t94 -100.5t139 -37z
M336 -220q50 0 77.5 25.5t27.5 62.5q0 32 -22.5 52t-56.5 20q-11 0 -21 -2l6 62h-51l-12 -104l20 -8q20 10 41 10q36 0 36 -33q0 -39 -49 -39q-12 0 -28 2.5t-31 8.5l-12 -42q14 -7 35 -11t40 -4zM290 640h63l91 144h-76z" />
    <glyph glyph-name="uni1E0C" unicode="&#x1e0c;" horiz-adv-x="742" 
d="M88 0h245q111 0 193 46t127 130t45 197q0 114 -45 197.5t-127 129t-193 45.5h-245v-745zM168 75v595h165q85 0 148 -36.5t98 -103t35 -157.5t-34.5 -158t-97.5 -103.5t-149 -36.5h-165zM382 -195q24 0 40.5 16.5t16.5 41.5q0 24 -16.5 40.5t-40.5 16.5q-25 0 -41.5 -16.5
t-16.5 -40.5q0 -25 16.5 -41.5t41.5 -16.5z" />
    <glyph glyph-name="uni1E0D" unicode="&#x1e0d;" horiz-adv-x="667" 
d="M319 -12q62 0 114 26t82 73v-87h75v757h-75v-302q-33 43 -83 68t-113 25q-76 0 -135.5 -36.5t-94 -99.5t-34.5 -144q0 -80 34.5 -143.5t94.5 -100t135 -36.5zM323 63q-54 0 -96.5 27t-67 73.5t-24.5 104.5q0 59 24.5 105t67.5 73t96 27q54 0 97.5 -27t69 -73.5
t25.5 -104.5t-25.5 -104.5t-69 -73.5t-97.5 -27zM334 -195q24 0 40.5 16.5t16.5 41.5q0 24 -16.5 40.5t-40.5 16.5q-25 0 -41.5 -16.5t-16.5 -40.5q0 -25 16.5 -41.5t41.5 -16.5z" />
    <glyph glyph-name="uni1E0E" unicode="&#x1e0e;" horiz-adv-x="742" 
d="M88 0h245q111 0 193 46t127 130t45 197q0 114 -45 197.5t-127 129t-193 45.5h-245v-745zM168 75v595h165q85 0 148 -36.5t98 -103t35 -157.5t-34.5 -158t-97.5 -103.5t-149 -36.5h-165zM252 -160h260v60h-260v-60z" />
    <glyph glyph-name="uni1E0F" unicode="&#x1e0f;" horiz-adv-x="667" 
d="M319 -12q62 0 114 26t82 73v-87h75v757h-75v-302q-33 43 -83 68t-113 25q-76 0 -135.5 -36.5t-94 -99.5t-34.5 -144q0 -80 34.5 -143.5t94.5 -100t135 -36.5zM323 63q-54 0 -96.5 27t-67 73.5t-24.5 104.5q0 59 24.5 105t67.5 73t96 27q54 0 97.5 -27t69 -73.5
t25.5 -104.5t-25.5 -104.5t-69 -73.5t-97.5 -27zM204 -160h260v60h-260v-60z" />
    <glyph glyph-name="uni1E14" unicode="&#x1e14;" horiz-adv-x="612" 
d="M88 0h480v75h-400v261h380v75h-380v259h400v75h-480v-745zM301 984h67l-45 85h-75zM198 879h260v60h-260v-60z" />
    <glyph glyph-name="uni1E15" unicode="&#x1e15;" horiz-adv-x="615" 
d="M321 -12q55 0 100.5 18.5t78.5 49t49 66.5l-64 34q-25 -42 -65 -70t-99 -28q-48 0 -90 23t-68.5 64.5t-28.5 99.5h422q2 13 3 25.5t1 22.5q0 48 -17 93.5t-49 82t-77.5 58t-103.5 21.5q-73 0 -131.5 -36t-92.5 -98.5t-34 -143.5t35 -145t95.5 -100.5t135.5 -36.5z
M313 478q45 0 82.5 -21t60 -57.5t23.5 -84.5h-343q6 50 31.5 86.5t63.5 56.5t82 20zM281 775h67l-45 85h-75zM178 670h260v60h-260v-60z" />
    <glyph glyph-name="uni1E16" unicode="&#x1e16;" horiz-adv-x="612" 
d="M88 0h480v75h-400v261h380v75h-380v259h400v75h-480v-745zM288 984h67l53 85h-75zM198 879h260v60h-260v-60z" />
    <glyph glyph-name="uni1E17" unicode="&#x1e17;" horiz-adv-x="615" 
d="M321 -12q55 0 100.5 18.5t78.5 49t49 66.5l-64 34q-25 -42 -65 -70t-99 -28q-48 0 -90 23t-68.5 64.5t-28.5 99.5h422q2 13 3 25.5t1 22.5q0 48 -17 93.5t-49 82t-77.5 58t-103.5 21.5q-73 0 -131.5 -36t-92.5 -98.5t-34 -143.5t35 -145t95.5 -100.5t135.5 -36.5z
M313 478q45 0 82.5 -21t60 -57.5t23.5 -84.5h-343q6 50 31.5 86.5t63.5 56.5t82 20zM268 775h67l53 85h-75zM178 670h260v60h-260v-60z" />
    <glyph glyph-name="uni1E1C" unicode="&#x1e1c;" horiz-adv-x="612" 
d="M88 0h480v75h-400v261h380v75h-380v259h400v75h-480v-745zM342 -220q50 0 77.5 25.5t27.5 62.5q0 32 -22.5 52t-56.5 20q-11 0 -21 -2l6 62h-51l-12 -104l20 -8q20 10 41 10q36 0 36 -33q0 -39 -49 -39q-12 0 -28 2.5t-31 8.5l-12 -42q14 -7 35 -11t40 -4zM327 849
q38 0 69.5 18.5t50 49.5t18.5 68h-54q0 -34 -25 -59t-59 -25t-58 25t-24 59h-55q0 -37 18.5 -68t49.5 -49.5t69 -18.5z" />
    <glyph glyph-name="uni1E1D" unicode="&#x1e1d;" horiz-adv-x="615" 
d="M321 -12q55 0 100.5 18.5t78.5 49t49 66.5l-64 34q-25 -42 -65 -70t-99 -28q-48 0 -90 23t-68.5 64.5t-28.5 99.5h422q2 13 3 25.5t1 22.5q0 48 -17 93.5t-49 82t-77.5 58t-103.5 21.5q-73 0 -131.5 -36t-92.5 -98.5t-34 -143.5t35 -145t95.5 -100.5t135.5 -36.5z
M313 478q45 0 82.5 -21t60 -57.5t23.5 -84.5h-343q6 50 31.5 86.5t63.5 56.5t82 20zM322 -220q50 0 77.5 25.5t27.5 62.5q0 32 -22.5 52t-56.5 20q-11 0 -21 -2l6 62h-51l-12 -104l20 -8q20 10 41 10q36 0 36 -33q0 -39 -49 -39q-12 0 -28 2.5t-31 8.5l-12 -42q14 -7 35 -11
t40 -4zM307 640q38 0 69.5 18.5t50 49.5t18.5 68h-54q0 -34 -25 -59t-59 -25t-58 25t-24 59h-55q0 -37 18.5 -68t49.5 -49.5t69 -18.5z" />
    <glyph glyph-name="uni1E20" unicode="&#x1e20;" horiz-adv-x="821" 
d="M428 -12q71 0 132.5 24.5t107.5 69.5t72 106.5t26 134.5v62h-338v-70h258v-5q0 -72 -34 -127.5t-92.5 -87.5t-131.5 -32q-82 0 -146 38.5t-100 108.5t-36 162q0 93 36 162.5t100 108.5t146 39t140 -39t86 -107l72 35q-18 47 -59.5 89.5t-102 69.5t-136.5 27
q-79 0 -145 -28.5t-114.5 -80.5t-75.5 -122t-27 -154t27 -154t75.5 -121.5t114.5 -80t145 -28.5zM281 879h260v60h-260v-60z" />
    <glyph glyph-name="uni1E21" unicode="&#x1e21;" horiz-adv-x="662" 
d="M331 -220q74 0 131.5 31.5t90 86t32.5 123.5v515h-75v-81q-32 43 -82 68t-109 25q-76 0 -135.5 -36t-94 -97t-34.5 -137q0 -75 34.5 -136.5t94.5 -97.5t135 -36q59 0 110 26t81 73v-86q0 -54 -25 -91t-66 -56t-90 -19q-64 0 -105 28t-57 66l-69 -37q27 -58 88.5 -95
t144.5 -37zM323 83q-54 0 -96.5 26.5t-67 71t-24.5 97.5q0 54 24.5 98t67.5 70.5t96 26.5q52 0 94 -26.5t67.5 -71t25.5 -97.5t-25.5 -97.5t-67.5 -71t-94 -26.5zM201 670h260v60h-260v-60z" />
    <glyph glyph-name="uni1E24" unicode="&#x1e24;" horiz-adv-x="736" 
d="M88 0h80v335h400v-335h80v745h-80v-335h-400v335h-80v-745zM368 -195q24 0 40.5 16.5t16.5 41.5q0 24 -16.5 40.5t-40.5 16.5q-25 0 -41.5 -16.5t-16.5 -40.5q0 -25 16.5 -41.5t41.5 -16.5z" />
    <glyph glyph-name="uni1E25" unicode="&#x1e25;" 
d="M77 0h75v319q0 72 40.5 113t100.5 41t99.5 -40.5t39.5 -113.5v-319h75v348q0 57 -26.5 102.5t-72 71.5t-102.5 26q-50 0 -90 -21t-64 -57v287h-75v-757zM287 -195q24 0 40.5 16.5t16.5 41.5q0 24 -16.5 40.5t-40.5 16.5q-25 0 -41.5 -16.5t-16.5 -40.5q0 -25 16.5 -41.5
t41.5 -16.5z" />
    <glyph glyph-name="uni1E2A" unicode="&#x1e2a;" horiz-adv-x="736" 
d="M88 0h80v335h400v-335h80v745h-80v-335h-400v335h-80v-745zM367 -216q38 0 69.5 18.5t50 49.5t18.5 68h-54q0 -34 -25 -59t-59 -25t-58 25t-24 59h-55q0 -37 18.5 -68t49.5 -49.5t69 -18.5z" />
    <glyph glyph-name="uni1E2B" unicode="&#x1e2b;" 
d="M77 0h75v319q0 72 40.5 113t100.5 41t99.5 -40.5t39.5 -113.5v-319h75v348q0 57 -26.5 102.5t-72 71.5t-102.5 26q-50 0 -90 -21t-64 -57v287h-75v-757zM286 -216q38 0 69.5 18.5t50 49.5t18.5 68h-54q0 -34 -25 -59t-59 -25t-58 25t-24 59h-55q0 -37 18.5 -68
t49.5 -49.5t69 -18.5z" />
    <glyph glyph-name="uni1E2E" unicode="&#x1e2e;" horiz-adv-x="256" 
d="M88 0h80v745h-80v-745zM94 1014h67l53 85h-75zM211 869q24 0 40.5 16.5t16.5 41.5q0 24 -16.5 40.5t-40.5 16.5q-25 0 -41.5 -16.5t-16.5 -40.5q0 -25 16.5 -41.5t41.5 -16.5zM46 869q24 0 40.5 16.5t16.5 41.5q0 24 -16.5 40.5t-40.5 16.5q-25 0 -41.5 -16.5
t-16.5 -40.5q0 -25 16.5 -41.5t41.5 -16.5z" />
    <glyph glyph-name="uni1E2F" unicode="&#x1e2f;" horiz-adv-x="199" 
d="M62 0h75v536h-75v-536zM65 805h67l53 85h-75zM182 660q24 0 40.5 16.5t16.5 41.5q0 24 -16.5 40.5t-40.5 16.5q-25 0 -41.5 -16.5t-16.5 -40.5q0 -25 16.5 -41.5t41.5 -16.5zM17 660q24 0 40.5 16.5t16.5 41.5q0 24 -16.5 40.5t-40.5 16.5q-25 0 -41.5 -16.5t-16.5 -40.5
q0 -25 16.5 -41.5t41.5 -16.5z" />
    <glyph glyph-name="uni1E36" unicode="&#x1e36;" horiz-adv-x="531" 
d="M88 0h410v75h-330v670h-80v-745zM293 -195q24 0 40.5 16.5t16.5 41.5q0 24 -16.5 40.5t-40.5 16.5q-25 0 -41.5 -16.5t-16.5 -40.5q0 -25 16.5 -41.5t41.5 -16.5z" />
    <glyph glyph-name="uni1E37" unicode="&#x1e37;" horiz-adv-x="229" 
d="M77 0h75v757h-75v-757zM115 -195q24 0 40.5 16.5t16.5 41.5q0 24 -16.5 40.5t-40.5 16.5q-25 0 -41.5 -16.5t-16.5 -40.5q0 -25 16.5 -41.5t41.5 -16.5z" />
    <glyph glyph-name="uni1E3A" unicode="&#x1e3a;" horiz-adv-x="531" 
d="M88 0h410v75h-330v670h-80v-745zM163 -160h260v60h-260v-60z" />
    <glyph glyph-name="uni1E3B" unicode="&#x1e3b;" horiz-adv-x="229" 
d="M77 0h75v757h-75v-757zM-15 -160h260v60h-260v-60z" />
    <glyph glyph-name="uni1E42" unicode="&#x1e42;" horiz-adv-x="836" 
d="M88 0h80v591l248 -361h4l248 359v-589h80v745h-70l-260 -378l-260 378h-70v-745zM418 -195q24 0 40.5 16.5t16.5 41.5q0 24 -16.5 40.5t-40.5 16.5q-25 0 -41.5 -16.5t-16.5 -40.5q0 -25 16.5 -41.5t41.5 -16.5z" />
    <glyph glyph-name="uni1E43" unicode="&#x1e43;" horiz-adv-x="908" 
d="M77 0h75v319q0 72 39 113t97 41t96 -40.5t38 -113.5v-319h75v319q0 72 39 113t97 41t96 -40.5t38 -113.5v-319h75v348q0 57 -27.5 102.5t-73 71.5t-99.5 26t-99.5 -26t-69.5 -76q-25 46 -71 74t-101 28q-46 0 -85.5 -20.5t-63.5 -57.5v66h-75v-536zM454 -195
q24 0 40.5 16.5t16.5 41.5q0 24 -16.5 40.5t-40.5 16.5q-25 0 -41.5 -16.5t-16.5 -40.5q0 -25 16.5 -41.5t41.5 -16.5z" />
    <glyph glyph-name="uni1E44" unicode="&#x1e44;" horiz-adv-x="736" 
d="M88 0h80v592l410 -592h70v745h-80v-588l-410 588h-70v-745zM368 869q24 0 40.5 16.5t16.5 41.5q0 24 -16.5 40.5t-40.5 16.5q-25 0 -41.5 -16.5t-16.5 -40.5q0 -25 16.5 -41.5t41.5 -16.5z" />
    <glyph glyph-name="uni1E45" unicode="&#x1e45;" 
d="M77 0h75v319q0 72 40 113t101 41q62 0 100.5 -40.5t38.5 -113.5v-319h75v348q0 57 -26.5 102.5t-72 71.5t-102.5 26q-50 0 -90 -21t-64 -57v66h-75v-536zM287 660q24 0 40.5 16.5t16.5 41.5q0 24 -16.5 40.5t-40.5 16.5q-25 0 -41.5 -16.5t-16.5 -40.5q0 -25 16.5 -41.5
t41.5 -16.5z" />
    <glyph glyph-name="uni1E46" unicode="&#x1e46;" horiz-adv-x="736" 
d="M88 0h80v592l410 -592h70v745h-80v-588l-410 588h-70v-745zM368 -195q24 0 40.5 16.5t16.5 41.5q0 24 -16.5 40.5t-40.5 16.5q-25 0 -41.5 -16.5t-16.5 -40.5q0 -25 16.5 -41.5t41.5 -16.5z" />
    <glyph glyph-name="uni1E47" unicode="&#x1e47;" 
d="M77 0h75v319q0 72 40 113t101 41q62 0 100.5 -40.5t38.5 -113.5v-319h75v348q0 57 -26.5 102.5t-72 71.5t-102.5 26q-50 0 -90 -21t-64 -57v66h-75v-536zM287 -195q24 0 40.5 16.5t16.5 41.5q0 24 -16.5 40.5t-40.5 16.5q-25 0 -41.5 -16.5t-16.5 -40.5q0 -25 16.5 -41.5
t41.5 -16.5z" />
    <glyph glyph-name="uni1E48" unicode="&#x1e48;" horiz-adv-x="736" 
d="M88 0h80v592l410 -592h70v745h-80v-588l-410 588h-70v-745zM238 -160h260v60h-260v-60z" />
    <glyph glyph-name="uni1E49" unicode="&#x1e49;" 
d="M77 0h75v319q0 72 40 113t101 41q62 0 100.5 -40.5t38.5 -113.5v-319h75v348q0 57 -26.5 102.5t-72 71.5t-102.5 26q-50 0 -90 -21t-64 -57v66h-75v-536zM157 -160h260v60h-260v-60z" />
    <glyph glyph-name="uni1E4C" unicode="&#x1e4c;" horiz-adv-x="878" 
d="M439 -12q78 0 145.5 28.5t118.5 80t80 122t29 154.5t-29 154t-80 121.5t-118.5 80t-145.5 28.5t-145.5 -28t-118.5 -79.5t-80 -122t-29 -154.5t29 -154.5t80 -122t118.5 -80t145.5 -28.5zM439 63q-86 0 -152 42t-103.5 112.5t-37.5 155.5q0 63 21.5 119t60.5 99t92.5 67
t118.5 24t118.5 -24t92.5 -67t60.5 -99t21.5 -119q0 -85 -37.5 -155.5t-103.5 -112.5t-152 -42zM417 1014h67l53 85h-75zM499 889q35 0 57 26t23 71h-54q-1 -18 -9 -29t-24 -11q-18 0 -32 11t-32 22.5t-48 11.5q-34 0 -56.5 -26t-24.5 -71h54q2 22 11 31t22 9q19 0 33 -11.5
t32 -22.5t48 -11z" />
    <glyph glyph-name="uni1E4D" unicode="&#x1e4d;" horiz-adv-x="655" 
d="M328 -12q75 0 136.5 36t98.5 99.5t37 145.5q0 81 -35.5 144t-97 99t-139.5 36t-139.5 -36.5t-97.5 -99.5t-36 -143q0 -81 36.5 -144.5t98.5 -100t138 -36.5zM328 63q-54 0 -97.5 27t-69.5 74t-26 105t26 104t69.5 73t97.5 27t97.5 -27t69 -73t25.5 -104t-25.5 -105
t-69 -74t-97.5 -27zM306 805h67l53 85h-75zM388 680q35 0 57 26t23 71h-54q-1 -18 -9 -29t-24 -11q-18 0 -32 11t-32 22.5t-48 11.5q-34 0 -56.5 -26t-24.5 -71h54q2 22 11 31t22 9q19 0 33 -11.5t32 -22.5t48 -11z" />
    <glyph glyph-name="uni1E4E" unicode="&#x1e4e;" horiz-adv-x="878" 
d="M439 -12q78 0 145.5 28.5t118.5 80t80 122t29 154.5t-29 154t-80 121.5t-118.5 80t-145.5 28.5t-145.5 -28t-118.5 -79.5t-80 -122t-29 -154.5t29 -154.5t80 -122t118.5 -80t145.5 -28.5zM439 63q-86 0 -152 42t-103.5 112.5t-37.5 155.5q0 63 21.5 119t60.5 99t92.5 67
t118.5 24t118.5 -24t92.5 -67t60.5 -99t21.5 -119q0 -85 -37.5 -155.5t-103.5 -112.5t-152 -42zM357 1029q24 0 40.5 16.5t16.5 41.5q0 24 -16.5 40.5t-40.5 16.5q-25 0 -41.5 -16.5t-16.5 -40.5q0 -25 16.5 -41.5t41.5 -16.5zM522 1029q24 0 40.5 16.5t16.5 41.5
q0 24 -16.5 40.5t-40.5 16.5q-25 0 -41.5 -16.5t-16.5 -40.5q0 -25 16.5 -41.5t41.5 -16.5zM499 889q35 0 57 26t23 71h-54q-1 -18 -9 -29t-24 -11q-18 0 -32 11t-32 22.5t-48 11.5q-34 0 -56.5 -26t-24.5 -71h54q2 22 11 31t22 9q19 0 33 -11.5t32 -22.5t48 -11z" />
    <glyph glyph-name="uni1E4F" unicode="&#x1e4f;" horiz-adv-x="655" 
d="M328 -12q75 0 136.5 36t98.5 99.5t37 145.5q0 81 -35.5 144t-97 99t-139.5 36t-139.5 -36.5t-97.5 -99.5t-36 -143q0 -81 36.5 -144.5t98.5 -100t138 -36.5zM328 63q-54 0 -97.5 27t-69.5 74t-26 105t26 104t69.5 73t97.5 27t97.5 -27t69 -73t25.5 -104t-25.5 -105
t-69 -74t-97.5 -27zM246 820q24 0 40.5 16.5t16.5 41.5q0 24 -16.5 40.5t-40.5 16.5q-25 0 -41.5 -16.5t-16.5 -40.5q0 -25 16.5 -41.5t41.5 -16.5zM411 820q24 0 40.5 16.5t16.5 41.5q0 24 -16.5 40.5t-40.5 16.5q-25 0 -41.5 -16.5t-16.5 -40.5q0 -25 16.5 -41.5
t41.5 -16.5zM388 680q35 0 57 26t23 71h-54q-1 -18 -9 -29t-24 -11q-18 0 -32 11t-32 22.5t-48 11.5q-34 0 -56.5 -26t-24.5 -71h54q2 22 11 31t22 9q19 0 33 -11.5t32 -22.5t48 -11z" />
    <glyph glyph-name="uni1E50" unicode="&#x1e50;" horiz-adv-x="878" 
d="M439 -12q78 0 145.5 28.5t118.5 80t80 122t29 154.5t-29 154t-80 121.5t-118.5 80t-145.5 28.5t-145.5 -28t-118.5 -79.5t-80 -122t-29 -154.5t29 -154.5t80 -122t118.5 -80t145.5 -28.5zM439 63q-86 0 -152 42t-103.5 112.5t-37.5 155.5q0 63 21.5 119t60.5 99t92.5 67
t118.5 24t118.5 -24t92.5 -67t60.5 -99t21.5 -119q0 -85 -37.5 -155.5t-103.5 -112.5t-152 -42zM412 984h67l-45 85h-75zM309 879h260v60h-260v-60z" />
    <glyph glyph-name="uni1E51" unicode="&#x1e51;" horiz-adv-x="655" 
d="M328 -12q75 0 136.5 36t98.5 99.5t37 145.5q0 81 -35.5 144t-97 99t-139.5 36t-139.5 -36.5t-97.5 -99.5t-36 -143q0 -81 36.5 -144.5t98.5 -100t138 -36.5zM328 63q-54 0 -97.5 27t-69.5 74t-26 105t26 104t69.5 73t97.5 27t97.5 -27t69 -73t25.5 -104t-25.5 -105
t-69 -74t-97.5 -27zM301 775h67l-45 85h-75zM198 670h260v60h-260v-60z" />
    <glyph glyph-name="uni1E52" unicode="&#x1e52;" horiz-adv-x="878" 
d="M439 -12q78 0 145.5 28.5t118.5 80t80 122t29 154.5t-29 154t-80 121.5t-118.5 80t-145.5 28.5t-145.5 -28t-118.5 -79.5t-80 -122t-29 -154.5t29 -154.5t80 -122t118.5 -80t145.5 -28.5zM439 63q-86 0 -152 42t-103.5 112.5t-37.5 155.5q0 63 21.5 119t60.5 99t92.5 67
t118.5 24t118.5 -24t92.5 -67t60.5 -99t21.5 -119q0 -85 -37.5 -155.5t-103.5 -112.5t-152 -42zM399 984h67l53 85h-75zM309 879h260v60h-260v-60z" />
    <glyph glyph-name="uni1E53" unicode="&#x1e53;" horiz-adv-x="655" 
d="M328 -12q75 0 136.5 36t98.5 99.5t37 145.5q0 81 -35.5 144t-97 99t-139.5 36t-139.5 -36.5t-97.5 -99.5t-36 -143q0 -81 36.5 -144.5t98.5 -100t138 -36.5zM328 63q-54 0 -97.5 27t-69.5 74t-26 105t26 104t69.5 73t97.5 27t97.5 -27t69 -73t25.5 -104t-25.5 -105
t-69 -74t-97.5 -27zM288 775h67l53 85h-75zM198 670h260v60h-260v-60z" />
    <glyph glyph-name="uni1E5A" unicode="&#x1e5a;" horiz-adv-x="641" 
d="M88 0h80v290h182l164 -290h94l-174 303q71 23 112.5 79t41.5 135q0 68 -30.5 119.5t-85.5 80t-128 28.5h-256v-745zM168 365v305h180q72 0 116 -40.5t44 -111.5t-44 -112t-116 -41h-180zM315 -195q24 0 40.5 16.5t16.5 41.5q0 24 -16.5 40.5t-40.5 16.5
q-25 0 -41.5 -16.5t-16.5 -40.5q0 -25 16.5 -41.5t41.5 -16.5z" />
    <glyph glyph-name="uni1E5B" unicode="&#x1e5b;" horiz-adv-x="338" 
d="M77 0h75v330q0 66 35 102t93 36h47v75h-34q-49 0 -84.5 -17t-56.5 -48v58h-75v-536zM115 -195q24 0 40.5 16.5t16.5 41.5q0 24 -16.5 40.5t-40.5 16.5q-25 0 -41.5 -16.5t-16.5 -40.5q0 -25 16.5 -41.5t41.5 -16.5z" />
    <glyph glyph-name="uni1E5E" unicode="&#x1e5e;" horiz-adv-x="641" 
d="M88 0h80v290h182l164 -290h94l-174 303q71 23 112.5 79t41.5 135q0 68 -30.5 119.5t-85.5 80t-128 28.5h-256v-745zM168 365v305h180q72 0 116 -40.5t44 -111.5t-44 -112t-116 -41h-180zM185 -160h260v60h-260v-60z" />
    <glyph glyph-name="uni1E5F" unicode="&#x1e5f;" horiz-adv-x="338" 
d="M77 0h75v330q0 66 35 102t93 36h47v75h-34q-49 0 -84.5 -17t-56.5 -48v58h-75v-536zM-15 -160h260v60h-260v-60z" />
    <glyph glyph-name="uni1E60" unicode="&#x1e60;" horiz-adv-x="646" 
d="M339 -12q71 0 125.5 26t85 71.5t30.5 105.5q0 74 -45 123t-133 75l-118 35q-60 18 -89 54.5t-29 82.5q0 57 40 90.5t104 33.5q68 0 118.5 -34t74.5 -100l70 28q-16 49 -53 89t-90.5 64.5t-120.5 24.5q-64 0 -114.5 -26t-79.5 -71.5t-29 -104.5q0 -69 42.5 -123t121.5 -77
l134 -40q56 -16 86 -46t30 -85q0 -56 -44.5 -90t-116.5 -34q-76 0 -131 39.5t-81 115.5l-72 -27q17 -55 57 -100.5t98 -72.5t129 -27zM323 869q24 0 40.5 16.5t16.5 41.5q0 24 -16.5 40.5t-40.5 16.5q-25 0 -41.5 -16.5t-16.5 -40.5q0 -25 16.5 -41.5t41.5 -16.5z" />
    <glyph glyph-name="uni1E61" unicode="&#x1e61;" horiz-adv-x="509" 
d="M263 -12q56 0 99 19.5t67.5 54.5t24.5 79q0 54 -36.5 94t-101.5 59l-89 26q-14 4 -32.5 12t-32.5 24t-14 43q0 35 27 58t72 23q46 0 83.5 -25.5t57.5 -70.5l64 30q-23 63 -78.5 98.5t-123.5 35.5q-50 0 -91 -19t-65 -54t-24 -82q0 -50 33 -88t107 -59l77 -22
q16 -4 37 -13t37 -25.5t16 -44.5q0 -38 -33 -61.5t-81 -23.5q-50 0 -91.5 29t-64.5 78l-63 -30q26 -67 84 -106t135 -39zM255 660q24 0 40.5 16.5t16.5 41.5q0 24 -16.5 40.5t-40.5 16.5q-25 0 -41.5 -16.5t-16.5 -40.5q0 -25 16.5 -41.5t41.5 -16.5z" />
    <glyph glyph-name="uni1E62" unicode="&#x1e62;" horiz-adv-x="646" 
d="M339 -12q71 0 125.5 26t85 71.5t30.5 105.5q0 74 -45 123t-133 75l-118 35q-60 18 -89 54.5t-29 82.5q0 57 40 90.5t104 33.5q68 0 118.5 -34t74.5 -100l70 28q-16 49 -53 89t-90.5 64.5t-120.5 24.5q-64 0 -114.5 -26t-79.5 -71.5t-29 -104.5q0 -69 42.5 -123t121.5 -77
l134 -40q56 -16 86 -46t30 -85q0 -56 -44.5 -90t-116.5 -34q-76 0 -131 39.5t-81 115.5l-72 -27q17 -55 57 -100.5t98 -72.5t129 -27zM323 -195q24 0 40.5 16.5t16.5 41.5q0 24 -16.5 40.5t-40.5 16.5q-25 0 -41.5 -16.5t-16.5 -40.5q0 -25 16.5 -41.5t41.5 -16.5z" />
    <glyph glyph-name="uni1E63" unicode="&#x1e63;" horiz-adv-x="509" 
d="M263 -12q56 0 99 19.5t67.5 54.5t24.5 79q0 54 -36.5 94t-101.5 59l-89 26q-14 4 -32.5 12t-32.5 24t-14 43q0 35 27 58t72 23q46 0 83.5 -25.5t57.5 -70.5l64 30q-23 63 -78.5 98.5t-123.5 35.5q-50 0 -91 -19t-65 -54t-24 -82q0 -50 33 -88t107 -59l77 -22
q16 -4 37 -13t37 -25.5t16 -44.5q0 -38 -33 -61.5t-81 -23.5q-50 0 -91.5 29t-64.5 78l-63 -30q26 -67 84 -106t135 -39zM255 -195q24 0 40.5 16.5t16.5 41.5q0 24 -16.5 40.5t-40.5 16.5q-25 0 -41.5 -16.5t-16.5 -40.5q0 -25 16.5 -41.5t41.5 -16.5z" />
    <glyph glyph-name="uni1E64" unicode="&#x1e64;" horiz-adv-x="646" 
d="M339 -12q71 0 125.5 26t85 71.5t30.5 105.5q0 74 -45 123t-133 75l-118 35q-60 18 -89 54.5t-29 82.5q0 57 40 90.5t104 33.5q68 0 118.5 -34t74.5 -100l70 28q-16 49 -53 89t-90.5 64.5t-120.5 24.5q-64 0 -114.5 -26t-79.5 -71.5t-29 -104.5q0 -69 42.5 -123t121.5 -77
l134 -40q56 -16 86 -46t30 -85q0 -56 -44.5 -90t-116.5 -34q-76 0 -131 39.5t-81 115.5l-72 -27q17 -55 57 -100.5t98 -72.5t129 -27zM291 1014h67l53 85h-75zM323 869q24 0 40.5 16.5t16.5 41.5q0 24 -16.5 40.5t-40.5 16.5q-25 0 -41.5 -16.5t-16.5 -40.5
q0 -25 16.5 -41.5t41.5 -16.5z" />
    <glyph glyph-name="uni1E65" unicode="&#x1e65;" horiz-adv-x="509" 
d="M263 -12q56 0 99 19.5t67.5 54.5t24.5 79q0 54 -36.5 94t-101.5 59l-89 26q-14 4 -32.5 12t-32.5 24t-14 43q0 35 27 58t72 23q46 0 83.5 -25.5t57.5 -70.5l64 30q-23 63 -78.5 98.5t-123.5 35.5q-50 0 -91 -19t-65 -54t-24 -82q0 -50 33 -88t107 -59l77 -22
q16 -4 37 -13t37 -25.5t16 -44.5q0 -38 -33 -61.5t-81 -23.5q-50 0 -91.5 29t-64.5 78l-63 -30q26 -67 84 -106t135 -39zM223 805h67l53 85h-75zM255 660q24 0 40.5 16.5t16.5 41.5q0 24 -16.5 40.5t-40.5 16.5q-25 0 -41.5 -16.5t-16.5 -40.5q0 -25 16.5 -41.5t41.5 -16.5z
" />
    <glyph glyph-name="uni1E66" unicode="&#x1e66;" horiz-adv-x="646" 
d="M339 -12q71 0 125.5 26t85 71.5t30.5 105.5q0 74 -45 123t-133 75l-118 35q-60 18 -89 54.5t-29 82.5q0 57 40 90.5t104 33.5q68 0 118.5 -34t74.5 -100l70 28q-16 49 -53 89t-90.5 64.5t-120.5 24.5q-64 0 -114.5 -26t-79.5 -71.5t-29 -104.5q0 -69 42.5 -123t121.5 -77
l134 -40q56 -16 86 -46t30 -85q0 -56 -44.5 -90t-116.5 -34q-76 0 -131 39.5t-81 115.5l-72 -27q17 -55 57 -100.5t98 -72.5t129 -27zM324 993q24 0 40.5 16.5t16.5 41.5q0 24 -16.5 40.5t-40.5 16.5q-25 0 -41.5 -16.5t-16.5 -40.5q0 -25 16.5 -41.5t41.5 -16.5zM285 849
h74l114 144h-68l-83 -103l-81 103h-68z" />
    <glyph glyph-name="uni1E67" unicode="&#x1e67;" horiz-adv-x="509" 
d="M263 -12q56 0 99 19.5t67.5 54.5t24.5 79q0 54 -36.5 94t-101.5 59l-89 26q-14 4 -32.5 12t-32.5 24t-14 43q0 35 27 58t72 23q46 0 83.5 -25.5t57.5 -70.5l64 30q-23 63 -78.5 98.5t-123.5 35.5q-50 0 -91 -19t-65 -54t-24 -82q0 -50 33 -88t107 -59l77 -22
q16 -4 37 -13t37 -25.5t16 -44.5q0 -38 -33 -61.5t-81 -23.5q-50 0 -91.5 29t-64.5 78l-63 -30q26 -67 84 -106t135 -39zM256 784q24 0 40.5 16.5t16.5 41.5q0 24 -16.5 40.5t-40.5 16.5q-25 0 -41.5 -16.5t-16.5 -40.5q0 -25 16.5 -41.5t41.5 -16.5zM217 640h74l114 144
h-68l-83 -103l-81 103h-68z" />
    <glyph glyph-name="uni1E68" unicode="&#x1e68;" horiz-adv-x="646" 
d="M339 -12q71 0 125.5 26t85 71.5t30.5 105.5q0 74 -45 123t-133 75l-118 35q-60 18 -89 54.5t-29 82.5q0 57 40 90.5t104 33.5q68 0 118.5 -34t74.5 -100l70 28q-16 49 -53 89t-90.5 64.5t-120.5 24.5q-64 0 -114.5 -26t-79.5 -71.5t-29 -104.5q0 -69 42.5 -123t121.5 -77
l134 -40q56 -16 86 -46t30 -85q0 -56 -44.5 -90t-116.5 -34q-76 0 -131 39.5t-81 115.5l-72 -27q17 -55 57 -100.5t98 -72.5t129 -27zM323 -195q24 0 40.5 16.5t16.5 41.5q0 24 -16.5 40.5t-40.5 16.5q-25 0 -41.5 -16.5t-16.5 -40.5q0 -25 16.5 -41.5t41.5 -16.5zM323 869
q24 0 40.5 16.5t16.5 41.5q0 24 -16.5 40.5t-40.5 16.5q-25 0 -41.5 -16.5t-16.5 -40.5q0 -25 16.5 -41.5t41.5 -16.5z" />
    <glyph glyph-name="uni1E69" unicode="&#x1e69;" horiz-adv-x="509" 
d="M263 -12q56 0 99 19.5t67.5 54.5t24.5 79q0 54 -36.5 94t-101.5 59l-89 26q-14 4 -32.5 12t-32.5 24t-14 43q0 35 27 58t72 23q46 0 83.5 -25.5t57.5 -70.5l64 30q-23 63 -78.5 98.5t-123.5 35.5q-50 0 -91 -19t-65 -54t-24 -82q0 -50 33 -88t107 -59l77 -22
q16 -4 37 -13t37 -25.5t16 -44.5q0 -38 -33 -61.5t-81 -23.5q-50 0 -91.5 29t-64.5 78l-63 -30q26 -67 84 -106t135 -39zM255 -195q24 0 40.5 16.5t16.5 41.5q0 24 -16.5 40.5t-40.5 16.5q-25 0 -41.5 -16.5t-16.5 -40.5q0 -25 16.5 -41.5t41.5 -16.5zM255 660
q24 0 40.5 16.5t16.5 41.5q0 24 -16.5 40.5t-40.5 16.5q-25 0 -41.5 -16.5t-16.5 -40.5q0 -25 16.5 -41.5t41.5 -16.5z" />
    <glyph glyph-name="uni1E6C" unicode="&#x1e6c;" horiz-adv-x="512" 
d="M217 0h80v670h204v75h-490v-75h206v-670zM256 -195q24 0 40.5 16.5t16.5 41.5q0 24 -16.5 40.5t-40.5 16.5q-25 0 -41.5 -16.5t-16.5 -40.5q0 -25 16.5 -41.5t41.5 -16.5z" />
    <glyph glyph-name="uni1E6D" unicode="&#x1e6d;" horiz-adv-x="388" 
d="M282 -6q9 0 24 1t27 4v68q-8 -1 -19 -2t-19 -1q-50 0 -69 26t-19 66v305h118v75h-118v124h-75v-45q0 -34 -20 -56.5t-54 -22.5h-25v-75h99v-305q0 -78 39 -120t111 -42zM274 -195q24 0 40.5 16.5t16.5 41.5q0 24 -16.5 40.5t-40.5 16.5q-25 0 -41.5 -16.5t-16.5 -40.5
q0 -25 16.5 -41.5t41.5 -16.5z" />
    <glyph glyph-name="uni1E6E" unicode="&#x1e6e;" horiz-adv-x="512" 
d="M217 0h80v670h204v75h-490v-75h206v-670zM126 -160h260v60h-260v-60z" />
    <glyph glyph-name="uni1E6F" unicode="&#x1e6f;" horiz-adv-x="388" 
d="M282 -6q9 0 24 1t27 4v68q-8 -1 -19 -2t-19 -1q-50 0 -69 26t-19 66v305h118v75h-118v124h-75v-45q0 -34 -20 -56.5t-54 -22.5h-25v-75h99v-305q0 -78 39 -120t111 -42zM144 -160h260v60h-260v-60z" />
    <glyph glyph-name="uni1E78" unicode="&#x1e78;" horiz-adv-x="700" 
d="M350 -12q80 0 139.5 33t92.5 90.5t33 131.5v502h-80v-502q0 -81 -51 -130.5t-134 -49.5q-82 0 -133.5 49.5t-51.5 130.5v502h-80v-502q0 -74 33 -131.5t93 -90.5t139 -33zM328 1014h67l53 85h-75zM410 889q35 0 57 26t23 71h-54q-1 -18 -9 -29t-24 -11q-18 0 -32 11
t-32 22.5t-48 11.5q-34 0 -56.5 -26t-24.5 -71h54q2 22 11 31t22 9q19 0 33 -11.5t32 -22.5t48 -11z" />
    <glyph glyph-name="uni1E79" unicode="&#x1e79;" 
d="M267 -12q50 0 90 21t64 57v-66h75v536h-75v-319q0 -72 -39.5 -113t-101.5 -41q-61 0 -100 39.5t-39 104.5v329h-75v-338q0 -62 26.5 -109.5t72.5 -74t102 -26.5zM265 805h67l53 85h-75zM347 680q35 0 57 26t23 71h-54q-1 -18 -9 -29t-24 -11q-18 0 -32 11t-32 22.5
t-48 11.5q-34 0 -56.5 -26t-24.5 -71h54q2 22 11 31t22 9q19 0 33 -11.5t32 -22.5t48 -11z" />
    <glyph glyph-name="uni1E7A" unicode="&#x1e7a;" horiz-adv-x="700" 
d="M350 -12q80 0 139.5 33t92.5 90.5t33 131.5v502h-80v-502q0 -81 -51 -130.5t-134 -49.5q-82 0 -133.5 49.5t-51.5 130.5v502h-80v-502q0 -74 33 -131.5t93 -90.5t139 -33zM268 989q24 0 40.5 16.5t16.5 41.5q0 24 -16.5 40.5t-40.5 16.5q-25 0 -41.5 -16.5t-16.5 -40.5
q0 -25 16.5 -41.5t41.5 -16.5zM433 989q24 0 40.5 16.5t16.5 41.5q0 24 -16.5 40.5t-40.5 16.5q-25 0 -41.5 -16.5t-16.5 -40.5q0 -25 16.5 -41.5t41.5 -16.5zM220 879h260v60h-260v-60z" />
    <glyph glyph-name="uni1E7B" unicode="&#x1e7b;" 
d="M267 -12q50 0 90 21t64 57v-66h75v536h-75v-319q0 -72 -39.5 -113t-101.5 -41q-61 0 -100 39.5t-39 104.5v329h-75v-338q0 -62 26.5 -109.5t72.5 -74t102 -26.5zM205 780q24 0 40.5 16.5t16.5 41.5q0 24 -16.5 40.5t-40.5 16.5q-25 0 -41.5 -16.5t-16.5 -40.5
q0 -25 16.5 -41.5t41.5 -16.5zM370 780q24 0 40.5 16.5t16.5 41.5q0 24 -16.5 40.5t-40.5 16.5q-25 0 -41.5 -16.5t-16.5 -40.5q0 -25 16.5 -41.5t41.5 -16.5zM157 670h260v60h-260v-60z" />
    <glyph glyph-name="Wgrave" unicode="&#x1e80;" horiz-adv-x="984" 
d="M225 0h85l182 638l182 -638h85l214 745h-81l-177 -635l-180 635h-85l-181 -637l-177 637h-81zM460 849h63l-78 144h-76z" />
    <glyph glyph-name="wgrave" unicode="&#x1e81;" horiz-adv-x="797" 
d="M195 0h75l129 424l128 -424h75l184 536h-84l-137 -421l-129 421h-75l-128 -421l-137 421h-85zM367 640h63l-78 144h-76z" />
    <glyph glyph-name="Wacute" unicode="&#x1e82;" horiz-adv-x="984" 
d="M225 0h85l182 638l182 -638h85l214 745h-81l-177 -635l-180 635h-85l-181 -637l-177 637h-81zM460 849h63l91 144h-76z" />
    <glyph glyph-name="wacute" unicode="&#x1e83;" horiz-adv-x="797" 
d="M195 0h75l129 424l128 -424h75l184 536h-84l-137 -421l-129 421h-75l-128 -421l-137 421h-85zM367 640h63l91 144h-76z" />
    <glyph glyph-name="Wdieresis" unicode="&#x1e84;" horiz-adv-x="984" 
d="M225 0h85l182 638l182 -638h85l214 745h-81l-177 -635l-180 635h-85l-181 -637l-177 637h-81zM410 869q24 0 40.5 16.5t16.5 41.5q0 24 -16.5 40.5t-40.5 16.5q-25 0 -41.5 -16.5t-16.5 -40.5q0 -25 16.5 -41.5t41.5 -16.5zM575 869q24 0 40.5 16.5t16.5 41.5
q0 24 -16.5 40.5t-40.5 16.5q-25 0 -41.5 -16.5t-16.5 -40.5q0 -25 16.5 -41.5t41.5 -16.5z" />
    <glyph glyph-name="wdieresis" unicode="&#x1e85;" horiz-adv-x="797" 
d="M195 0h75l129 424l128 -424h75l184 536h-84l-137 -421l-129 421h-75l-128 -421l-137 421h-85zM317 660q24 0 40.5 16.5t16.5 41.5q0 24 -16.5 40.5t-40.5 16.5q-25 0 -41.5 -16.5t-16.5 -40.5q0 -25 16.5 -41.5t41.5 -16.5zM482 660q24 0 40.5 16.5t16.5 41.5
q0 24 -16.5 40.5t-40.5 16.5q-25 0 -41.5 -16.5t-16.5 -40.5q0 -25 16.5 -41.5t41.5 -16.5z" />
    <glyph glyph-name="uni1E8E" unicode="&#x1e8e;" horiz-adv-x="623" 
d="M272 0h80v346l260 399h-89l-211 -323l-212 323h-89l261 -399v-346zM312 869q24 0 40.5 16.5t16.5 41.5q0 24 -16.5 40.5t-40.5 16.5q-25 0 -41.5 -16.5t-16.5 -40.5q0 -25 16.5 -41.5t41.5 -16.5z" />
    <glyph glyph-name="uni1E8F" unicode="&#x1e8f;" horiz-adv-x="536" 
d="M88 -220q53 0 90 21.5t61.5 56.5t40.5 74l245 605h-83l-175 -443l-175 443h-81l214 -537l-19 -46q-25 -58 -51 -78.5t-75 -20.5q-16 0 -31.5 2.5t-25.5 3.5v-70q16 -6 32.5 -8.5t32.5 -2.5zM268 660q24 0 40.5 16.5t16.5 41.5q0 24 -16.5 40.5t-40.5 16.5
q-25 0 -41.5 -16.5t-16.5 -40.5q0 -25 16.5 -41.5t41.5 -16.5z" />
    <glyph glyph-name="uni1E92" unicode="&#x1e92;" horiz-adv-x="584" 
d="M22 0h540v75h-434l425 616v54h-506v-75h401l-426 -616v-54zM292 -195q24 0 40.5 16.5t16.5 41.5q0 24 -16.5 40.5t-40.5 16.5q-25 0 -41.5 -16.5t-16.5 -40.5q0 -25 16.5 -41.5t41.5 -16.5z" />
    <glyph glyph-name="uni1E93" unicode="&#x1e93;" horiz-adv-x="449" 
d="M22 0h405v75h-302l300 396v65h-386v-75h284l-301 -396v-65zM219 -195q24 0 40.5 16.5t16.5 41.5q0 24 -16.5 40.5t-40.5 16.5q-25 0 -41.5 -16.5t-16.5 -40.5q0 -25 16.5 -41.5t41.5 -16.5z" />
    <glyph glyph-name="uni1E97" unicode="&#x1e97;" horiz-adv-x="388" 
d="M282 -6q9 0 24 1t27 4v68q-8 -1 -19 -2t-19 -1q-50 0 -69 26t-19 66v305h118v75h-118v124h-75v-45q0 -34 -20 -56.5t-54 -22.5h-25v-75h99v-305q0 -78 39 -120t111 -42zM88 784q24 0 40.5 16.5t16.5 41.5q0 24 -16.5 40.5t-40.5 16.5q-25 0 -41.5 -16.5t-16.5 -40.5
q0 -25 16.5 -41.5t41.5 -16.5zM253 784q24 0 40.5 16.5t16.5 41.5q0 24 -16.5 40.5t-40.5 16.5q-25 0 -41.5 -16.5t-16.5 -40.5q0 -25 16.5 -41.5t41.5 -16.5z" />
    <glyph glyph-name="uni1E9E" unicode="&#x1e9e;" horiz-adv-x="1292" 
d="M339 -12q71 0 125.5 26t85 71.5t30.5 105.5q0 74 -45 123t-133 75l-118 35q-60 18 -89 54.5t-29 82.5q0 57 40 90.5t104 33.5q68 0 118.5 -34t74.5 -100l70 28q-16 49 -53 89t-90.5 64.5t-120.5 24.5q-64 0 -114.5 -26t-79.5 -71.5t-29 -104.5q0 -69 42.5 -123t121.5 -77
l134 -40q56 -16 86 -46t30 -85q0 -56 -44.5 -90t-116.5 -34q-76 0 -131 39.5t-81 115.5l-72 -27q17 -55 57 -100.5t98 -72.5t129 -27zM985 -12q71 0 125.5 26t85 71.5t30.5 105.5q0 74 -45 123t-133 75l-118 35q-60 18 -89 54.5t-29 82.5q0 57 40 90.5t104 33.5
q68 0 118.5 -34t74.5 -100l70 28q-16 49 -53 89t-90.5 64.5t-120.5 24.5q-64 0 -114.5 -26t-79.5 -71.5t-29 -104.5q0 -69 42.5 -123t121.5 -77l134 -40q56 -16 86 -46t30 -85q0 -56 -44.5 -90t-116.5 -34q-76 0 -131 39.5t-81 115.5l-72 -27q17 -55 57 -100.5t98 -72.5
t129 -27z" />
    <glyph glyph-name="uni1EA0" unicode="&#x1ea0;" horiz-adv-x="652" 
d="M11 0h84l65 182h333l64 -182h84l-272 745h-86zM186 257l140 394l139 -394h-279zM326 -195q24 0 40.5 16.5t16.5 41.5q0 24 -16.5 40.5t-40.5 16.5q-25 0 -41.5 -16.5t-16.5 -40.5q0 -25 16.5 -41.5t41.5 -16.5z" />
    <glyph glyph-name="uni1EA1" unicode="&#x1ea1;" horiz-adv-x="572" 
d="M232 -12q62 0 112 25t76 64v-77h75v368q0 53 -25.5 93.5t-71 63.5t-104.5 23q-45 0 -87 -16.5t-74.5 -44.5t-47.5 -62l68 -37q18 39 55 63.5t86 24.5q56 0 91 -30t35 -78v-28l-194 -32q-89 -15 -130 -61t-41 -108q0 -44 23 -78t63 -53.5t91 -19.5zM135 142q0 37 25.5 64
t83.5 37l176 29v-40q0 -49 -23 -89t-64 -63.5t-96 -23.5q-45 0 -73.5 25t-28.5 61zM286 -195q24 0 40.5 16.5t16.5 41.5q0 24 -16.5 40.5t-40.5 16.5q-25 0 -41.5 -16.5t-16.5 -40.5q0 -25 16.5 -41.5t41.5 -16.5z" />
    <glyph glyph-name="uni1EA2" unicode="&#x1ea2;" horiz-adv-x="652" 
d="M11 0h84l65 182h333l64 -182h84l-272 745h-86zM186 257l140 394l139 -394h-279zM304 799q53 22 77.5 51.5t24.5 63.5q0 39 -30 63.5t-79 24.5q-12 0 -26.5 -2t-25.5 -7v-43q9 3 19 5t21 2q32 0 47 -15t15 -36q0 -22 -16 -40.5t-45 -32.5z" />
    <glyph glyph-name="uni1EA3" unicode="&#x1ea3;" horiz-adv-x="572" 
d="M232 -12q62 0 112 25t76 64v-77h75v368q0 53 -25.5 93.5t-71 63.5t-104.5 23q-45 0 -87 -16.5t-74.5 -44.5t-47.5 -62l68 -37q18 39 55 63.5t86 24.5q56 0 91 -30t35 -78v-28l-194 -32q-89 -15 -130 -61t-41 -108q0 -44 23 -78t63 -53.5t91 -19.5zM135 142q0 37 25.5 64
t83.5 37l176 29v-40q0 -49 -23 -89t-64 -63.5t-96 -23.5q-45 0 -73.5 25t-28.5 61zM264 590q53 22 77.5 51.5t24.5 63.5q0 39 -30 63.5t-79 24.5q-12 0 -26.5 -2t-25.5 -7v-43q9 3 19 5t21 2q32 0 47 -15t15 -36q0 -22 -16 -40.5t-45 -32.5z" />
    <glyph glyph-name="uni1EA4" unicode="&#x1ea4;" horiz-adv-x="652" 
d="M11 0h84l65 182h333l64 -182h84l-272 745h-86zM186 257l140 394l139 -394h-279zM402 963h67l53 85h-75zM176 849h68l81 103l83 -103h68l-114 144h-74z" />
    <glyph glyph-name="uni1EA5" unicode="&#x1ea5;" horiz-adv-x="572" 
d="M232 -12q62 0 112 25t76 64v-77h75v368q0 53 -25.5 93.5t-71 63.5t-104.5 23q-45 0 -87 -16.5t-74.5 -44.5t-47.5 -62l68 -37q18 39 55 63.5t86 24.5q56 0 91 -30t35 -78v-28l-194 -32q-89 -15 -130 -61t-41 -108q0 -44 23 -78t63 -53.5t91 -19.5zM135 142q0 37 25.5 64
t83.5 37l176 29v-40q0 -49 -23 -89t-64 -63.5t-96 -23.5q-45 0 -73.5 25t-28.5 61zM362 754h67l53 85h-75zM136 640h68l81 103l83 -103h68l-114 144h-74z" />
    <glyph glyph-name="uni1EA6" unicode="&#x1ea6;" horiz-adv-x="652" 
d="M11 0h84l65 182h333l64 -182h84l-272 745h-86zM186 257l140 394l139 -394h-279zM425 963h67l-45 85h-75zM176 849h68l81 103l83 -103h68l-114 144h-74z" />
    <glyph glyph-name="uni1EA7" unicode="&#x1ea7;" horiz-adv-x="572" 
d="M232 -12q62 0 112 25t76 64v-77h75v368q0 53 -25.5 93.5t-71 63.5t-104.5 23q-45 0 -87 -16.5t-74.5 -44.5t-47.5 -62l68 -37q18 39 55 63.5t86 24.5q56 0 91 -30t35 -78v-28l-194 -32q-89 -15 -130 -61t-41 -108q0 -44 23 -78t63 -53.5t91 -19.5zM135 142q0 37 25.5 64
t83.5 37l176 29v-40q0 -49 -23 -89t-64 -63.5t-96 -23.5q-45 0 -73.5 25t-28.5 61zM385 754h67l-45 85h-75zM136 640h68l81 103l83 -103h68l-114 144h-74z" />
    <glyph glyph-name="uni1EA8" unicode="&#x1ea8;" horiz-adv-x="652" 
d="M11 0h84l65 182h333l64 -182h84l-272 745h-86zM186 257l140 394l139 -394h-279zM440 939q53 22 77.5 51.5t24.5 63.5q0 39 -30 63.5t-79 24.5q-12 0 -26.5 -2t-25.5 -7v-43q9 3 19 5t21 2q32 0 47 -15t15 -36q0 -22 -16 -40.5t-45 -32.5zM176 849h68l81 103l83 -103h68
l-114 144h-74z" />
    <glyph glyph-name="uni1EA9" unicode="&#x1ea9;" horiz-adv-x="572" 
d="M232 -12q62 0 112 25t76 64v-77h75v368q0 53 -25.5 93.5t-71 63.5t-104.5 23q-45 0 -87 -16.5t-74.5 -44.5t-47.5 -62l68 -37q18 39 55 63.5t86 24.5q56 0 91 -30t35 -78v-28l-194 -32q-89 -15 -130 -61t-41 -108q0 -44 23 -78t63 -53.5t91 -19.5zM135 142q0 37 25.5 64
t83.5 37l176 29v-40q0 -49 -23 -89t-64 -63.5t-96 -23.5q-45 0 -73.5 25t-28.5 61zM400 730q53 22 77.5 51.5t24.5 63.5q0 39 -30 63.5t-79 24.5q-12 0 -26.5 -2t-25.5 -7v-43q9 3 19 5t21 2q32 0 47 -15t15 -36q0 -22 -16 -40.5t-45 -32.5zM136 640h68l81 103l83 -103h68
l-114 144h-74z" />
    <glyph glyph-name="uni1EAA" unicode="&#x1eaa;" horiz-adv-x="652" 
d="M11 0h84l65 182h333l64 -182h84l-272 745h-86zM186 257l140 394l139 -394h-279zM386 1027q35 0 57 26t23 71h-54q-1 -18 -9 -29t-24 -11q-18 0 -32 11t-32 22.5t-48 11.5q-34 0 -56.5 -26t-24.5 -71h54q2 22 11 31t22 9q19 0 33 -11.5t32 -22.5t48 -11zM176 849h68
l81 103l83 -103h68l-114 144h-74z" />
    <glyph glyph-name="uni1EAB" unicode="&#x1eab;" horiz-adv-x="572" 
d="M232 -12q62 0 112 25t76 64v-77h75v368q0 53 -25.5 93.5t-71 63.5t-104.5 23q-45 0 -87 -16.5t-74.5 -44.5t-47.5 -62l68 -37q18 39 55 63.5t86 24.5q56 0 91 -30t35 -78v-28l-194 -32q-89 -15 -130 -61t-41 -108q0 -44 23 -78t63 -53.5t91 -19.5zM135 142q0 37 25.5 64
t83.5 37l176 29v-40q0 -49 -23 -89t-64 -63.5t-96 -23.5q-45 0 -73.5 25t-28.5 61zM346 818q35 0 57 26t23 71h-54q-1 -18 -9 -29t-24 -11q-18 0 -32 11t-32 22.5t-48 11.5q-34 0 -56.5 -26t-24.5 -71h54q2 22 11 31t22 9q19 0 33 -11.5t32 -22.5t48 -11zM136 640h68l81 103
l83 -103h68l-114 144h-74z" />
    <glyph glyph-name="uni1EAC" unicode="&#x1eac;" horiz-adv-x="652" 
d="M11 0h84l65 182h333l64 -182h84l-272 745h-86zM186 257l140 394l139 -394h-279zM326 -195q24 0 40.5 16.5t16.5 41.5q0 24 -16.5 40.5t-40.5 16.5q-25 0 -41.5 -16.5t-16.5 -40.5q0 -25 16.5 -41.5t41.5 -16.5zM176 849h68l81 103l83 -103h68l-114 144h-74z" />
    <glyph glyph-name="uni1EAD" unicode="&#x1ead;" horiz-adv-x="572" 
d="M232 -12q62 0 112 25t76 64v-77h75v368q0 53 -25.5 93.5t-71 63.5t-104.5 23q-45 0 -87 -16.5t-74.5 -44.5t-47.5 -62l68 -37q18 39 55 63.5t86 24.5q56 0 91 -30t35 -78v-28l-194 -32q-89 -15 -130 -61t-41 -108q0 -44 23 -78t63 -53.5t91 -19.5zM135 142q0 37 25.5 64
t83.5 37l176 29v-40q0 -49 -23 -89t-64 -63.5t-96 -23.5q-45 0 -73.5 25t-28.5 61zM286 -195q24 0 40.5 16.5t16.5 41.5q0 24 -16.5 40.5t-40.5 16.5q-25 0 -41.5 -16.5t-16.5 -40.5q0 -25 16.5 -41.5t41.5 -16.5zM136 640h68l81 103l83 -103h68l-114 144h-74z" />
    <glyph glyph-name="uni1EAE" unicode="&#x1eae;" horiz-adv-x="652" 
d="M11 0h84l65 182h333l64 -182h84l-272 745h-86zM186 257l140 394l139 -394h-279zM291 1014h67l53 85h-75zM325 849q38 0 69.5 18.5t50 49.5t18.5 68h-54q0 -34 -25 -59t-59 -25t-58 25t-24 59h-55q0 -37 18.5 -68t49.5 -49.5t69 -18.5z" />
    <glyph glyph-name="uni1EAF" unicode="&#x1eaf;" horiz-adv-x="572" 
d="M232 -12q62 0 112 25t76 64v-77h75v368q0 53 -25.5 93.5t-71 63.5t-104.5 23q-45 0 -87 -16.5t-74.5 -44.5t-47.5 -62l68 -37q18 39 55 63.5t86 24.5q56 0 91 -30t35 -78v-28l-194 -32q-89 -15 -130 -61t-41 -108q0 -44 23 -78t63 -53.5t91 -19.5zM135 142q0 37 25.5 64
t83.5 37l176 29v-40q0 -49 -23 -89t-64 -63.5t-96 -23.5q-45 0 -73.5 25t-28.5 61zM251 805h67l53 85h-75zM285 640q38 0 69.5 18.5t50 49.5t18.5 68h-54q0 -34 -25 -59t-59 -25t-58 25t-24 59h-55q0 -37 18.5 -68t49.5 -49.5t69 -18.5z" />
    <glyph glyph-name="uni1EB0" unicode="&#x1eb0;" horiz-adv-x="652" 
d="M11 0h84l65 182h333l64 -182h84l-272 745h-86zM186 257l140 394l139 -394h-279zM293 1014h67l-45 85h-75zM326 849q38 0 69 18.5t49.5 49.5t18.5 68h-55q0 -34 -24 -59t-58 -25t-59 25t-25 59h-54q0 -37 18.5 -68t50 -49.5t69.5 -18.5z" />
    <glyph glyph-name="uni1EB1" unicode="&#x1eb1;" horiz-adv-x="572" 
d="M232 -12q62 0 112 25t76 64v-77h75v368q0 53 -25.5 93.5t-71 63.5t-104.5 23q-45 0 -87 -16.5t-74.5 -44.5t-47.5 -62l68 -37q18 39 55 63.5t86 24.5q56 0 91 -30t35 -78v-28l-194 -32q-89 -15 -130 -61t-41 -108q0 -44 23 -78t63 -53.5t91 -19.5zM135 142q0 37 25.5 64
t83.5 37l176 29v-40q0 -49 -23 -89t-64 -63.5t-96 -23.5q-45 0 -73.5 25t-28.5 61zM253 805h67l-45 85h-75zM286 640q38 0 69 18.5t49.5 49.5t18.5 68h-55q0 -34 -24 -59t-58 -25t-59 25t-25 59h-54q0 -37 18.5 -68t50 -49.5t69.5 -18.5z" />
    <glyph glyph-name="uni1EB2" unicode="&#x1eb2;" horiz-adv-x="652" 
d="M11 0h84l65 182h333l64 -182h84l-272 745h-86zM186 257l140 394l139 -394h-279zM307 981q53 22 77.5 51.5t24.5 63.5q0 39 -30 63.5t-79 24.5q-12 0 -26.5 -2t-25.5 -7v-43q9 3 19 5t21 2q32 0 47 -15t15 -36q0 -22 -16 -40.5t-45 -32.5zM325 849q38 0 69.5 18.5t50 49.5
t18.5 68h-54q0 -34 -25 -59t-59 -25t-58 25t-24 59h-55q0 -37 18.5 -68t49.5 -49.5t69 -18.5z" />
    <glyph glyph-name="uni1EB3" unicode="&#x1eb3;" horiz-adv-x="572" 
d="M232 -12q62 0 112 25t76 64v-77h75v368q0 53 -25.5 93.5t-71 63.5t-104.5 23q-45 0 -87 -16.5t-74.5 -44.5t-47.5 -62l68 -37q18 39 55 63.5t86 24.5q56 0 91 -30t35 -78v-28l-194 -32q-89 -15 -130 -61t-41 -108q0 -44 23 -78t63 -53.5t91 -19.5zM135 142q0 37 25.5 64
t83.5 37l176 29v-40q0 -49 -23 -89t-64 -63.5t-96 -23.5q-45 0 -73.5 25t-28.5 61zM267 772q53 22 77.5 51.5t24.5 63.5q0 39 -30 63.5t-79 24.5q-12 0 -26.5 -2t-25.5 -7v-43q9 3 19 5t21 2q32 0 47 -15t15 -36q0 -22 -16 -40.5t-45 -32.5zM285 640q38 0 69.5 18.5t50 49.5
t18.5 68h-54q0 -34 -25 -59t-59 -25t-58 25t-24 59h-55q0 -37 18.5 -68t49.5 -49.5t69 -18.5z" />
    <glyph glyph-name="uni1EB4" unicode="&#x1eb4;" horiz-adv-x="652" 
d="M11 0h84l65 182h333l64 -182h84l-272 745h-86zM186 257l140 394l139 -394h-279zM386 1027q35 0 57 26t23 71h-54q-1 -18 -9 -29t-24 -11q-18 0 -32 11t-32 22.5t-48 11.5q-34 0 -56.5 -26t-24.5 -71h54q2 22 11 31t22 9q19 0 33 -11.5t32 -22.5t48 -11zM326 849
q38 0 69.5 18.5t50 49.5t18.5 68h-54q0 -34 -25 -59t-59 -25t-58 25t-24 59h-55q0 -37 18.5 -68t49.5 -49.5t69 -18.5z" />
    <glyph glyph-name="uni1EB5" unicode="&#x1eb5;" horiz-adv-x="572" 
d="M232 -12q62 0 112 25t76 64v-77h75v368q0 53 -25.5 93.5t-71 63.5t-104.5 23q-45 0 -87 -16.5t-74.5 -44.5t-47.5 -62l68 -37q18 39 55 63.5t86 24.5q56 0 91 -30t35 -78v-28l-194 -32q-89 -15 -130 -61t-41 -108q0 -44 23 -78t63 -53.5t91 -19.5zM135 142q0 37 25.5 64
t83.5 37l176 29v-40q0 -49 -23 -89t-64 -63.5t-96 -23.5q-45 0 -73.5 25t-28.5 61zM346 818q35 0 57 26t23 71h-54q-1 -18 -9 -29t-24 -11q-18 0 -32 11t-32 22.5t-48 11.5q-34 0 -56.5 -26t-24.5 -71h54q2 22 11 31t22 9q19 0 33 -11.5t32 -22.5t48 -11zM286 640
q38 0 69.5 18.5t50 49.5t18.5 68h-54q0 -34 -25 -59t-59 -25t-58 25t-24 59h-55q0 -37 18.5 -68t49.5 -49.5t69 -18.5z" />
    <glyph glyph-name="uni1EB6" unicode="&#x1eb6;" horiz-adv-x="652" 
d="M11 0h84l65 182h333l64 -182h84l-272 745h-86zM186 257l140 394l139 -394h-279zM326 -195q24 0 40.5 16.5t16.5 41.5q0 24 -16.5 40.5t-40.5 16.5q-25 0 -41.5 -16.5t-16.5 -40.5q0 -25 16.5 -41.5t41.5 -16.5zM325 849q38 0 69.5 18.5t50 49.5t18.5 68h-54
q0 -34 -25 -59t-59 -25t-58 25t-24 59h-55q0 -37 18.5 -68t49.5 -49.5t69 -18.5z" />
    <glyph glyph-name="uni1EB7" unicode="&#x1eb7;" horiz-adv-x="572" 
d="M232 -12q62 0 112 25t76 64v-77h75v368q0 53 -25.5 93.5t-71 63.5t-104.5 23q-45 0 -87 -16.5t-74.5 -44.5t-47.5 -62l68 -37q18 39 55 63.5t86 24.5q56 0 91 -30t35 -78v-28l-194 -32q-89 -15 -130 -61t-41 -108q0 -44 23 -78t63 -53.5t91 -19.5zM135 142q0 37 25.5 64
t83.5 37l176 29v-40q0 -49 -23 -89t-64 -63.5t-96 -23.5q-45 0 -73.5 25t-28.5 61zM286 -195q24 0 40.5 16.5t16.5 41.5q0 24 -16.5 40.5t-40.5 16.5q-25 0 -41.5 -16.5t-16.5 -40.5q0 -25 16.5 -41.5t41.5 -16.5zM285 640q38 0 69.5 18.5t50 49.5t18.5 68h-54
q0 -34 -25 -59t-59 -25t-58 25t-24 59h-55q0 -37 18.5 -68t49.5 -49.5t69 -18.5z" />
    <glyph glyph-name="uni1EB8" unicode="&#x1eb8;" horiz-adv-x="612" 
d="M88 0h480v75h-400v261h380v75h-380v259h400v75h-480v-745zM328 -195q24 0 40.5 16.5t16.5 41.5q0 24 -16.5 40.5t-40.5 16.5q-25 0 -41.5 -16.5t-16.5 -40.5q0 -25 16.5 -41.5t41.5 -16.5z" />
    <glyph glyph-name="uni1EB9" unicode="&#x1eb9;" horiz-adv-x="615" 
d="M321 -12q55 0 100.5 18.5t78.5 49t49 66.5l-64 34q-25 -42 -65 -70t-99 -28q-48 0 -90 23t-68.5 64.5t-28.5 99.5h422q2 13 3 25.5t1 22.5q0 48 -17 93.5t-49 82t-77.5 58t-103.5 21.5q-73 0 -131.5 -36t-92.5 -98.5t-34 -143.5t35 -145t95.5 -100.5t135.5 -36.5z
M313 478q45 0 82.5 -21t60 -57.5t23.5 -84.5h-343q6 50 31.5 86.5t63.5 56.5t82 20zM308 -195q24 0 40.5 16.5t16.5 41.5q0 24 -16.5 40.5t-40.5 16.5q-25 0 -41.5 -16.5t-16.5 -40.5q0 -25 16.5 -41.5t41.5 -16.5z" />
    <glyph glyph-name="uni1EBA" unicode="&#x1eba;" horiz-adv-x="612" 
d="M88 0h480v75h-400v261h380v75h-380v259h400v75h-480v-745zM306 799q53 22 77.5 51.5t24.5 63.5q0 39 -30 63.5t-79 24.5q-12 0 -26.5 -2t-25.5 -7v-43q9 3 19 5t21 2q32 0 47 -15t15 -36q0 -22 -16 -40.5t-45 -32.5z" />
    <glyph glyph-name="uni1EBB" unicode="&#x1ebb;" horiz-adv-x="615" 
d="M321 -12q55 0 100.5 18.5t78.5 49t49 66.5l-64 34q-25 -42 -65 -70t-99 -28q-48 0 -90 23t-68.5 64.5t-28.5 99.5h422q2 13 3 25.5t1 22.5q0 48 -17 93.5t-49 82t-77.5 58t-103.5 21.5q-73 0 -131.5 -36t-92.5 -98.5t-34 -143.5t35 -145t95.5 -100.5t135.5 -36.5z
M313 478q45 0 82.5 -21t60 -57.5t23.5 -84.5h-343q6 50 31.5 86.5t63.5 56.5t82 20zM286 590q53 22 77.5 51.5t24.5 63.5q0 39 -30 63.5t-79 24.5q-12 0 -26.5 -2t-25.5 -7v-43q9 3 19 5t21 2q32 0 47 -15t15 -36q0 -22 -16 -40.5t-45 -32.5z" />
    <glyph glyph-name="uni1EBC" unicode="&#x1ebc;" horiz-adv-x="612" 
d="M88 0h480v75h-400v261h380v75h-380v259h400v75h-480v-745zM388 889q35 0 57 26t23 71h-54q-1 -18 -9 -29t-24 -11q-18 0 -32 11t-32 22.5t-48 11.5q-34 0 -56.5 -26t-24.5 -71h54q2 22 11 31t22 9q19 0 33 -11.5t32 -22.5t48 -11z" />
    <glyph glyph-name="uni1EBD" unicode="&#x1ebd;" horiz-adv-x="615" 
d="M321 -12q55 0 100.5 18.5t78.5 49t49 66.5l-64 34q-25 -42 -65 -70t-99 -28q-48 0 -90 23t-68.5 64.5t-28.5 99.5h422q2 13 3 25.5t1 22.5q0 48 -17 93.5t-49 82t-77.5 58t-103.5 21.5q-73 0 -131.5 -36t-92.5 -98.5t-34 -143.5t35 -145t95.5 -100.5t135.5 -36.5z
M313 478q45 0 82.5 -21t60 -57.5t23.5 -84.5h-343q6 50 31.5 86.5t63.5 56.5t82 20zM368 680q35 0 57 26t23 71h-54q-1 -18 -9 -29t-24 -11q-18 0 -32 11t-32 22.5t-48 11.5q-34 0 -56.5 -26t-24.5 -71h54q2 22 11 31t22 9q19 0 33 -11.5t32 -22.5t48 -11z" />
    <glyph glyph-name="uni1EBE" unicode="&#x1ebe;" horiz-adv-x="612" 
d="M88 0h480v75h-400v261h380v75h-380v259h400v75h-480v-745zM404 963h67l53 85h-75zM178 849h68l81 103l83 -103h68l-114 144h-74z" />
    <glyph glyph-name="uni1EBF" unicode="&#x1ebf;" horiz-adv-x="615" 
d="M321 -12q55 0 100.5 18.5t78.5 49t49 66.5l-64 34q-25 -42 -65 -70t-99 -28q-48 0 -90 23t-68.5 64.5t-28.5 99.5h422q2 13 3 25.5t1 22.5q0 48 -17 93.5t-49 82t-77.5 58t-103.5 21.5q-73 0 -131.5 -36t-92.5 -98.5t-34 -143.5t35 -145t95.5 -100.5t135.5 -36.5z
M313 478q45 0 82.5 -21t60 -57.5t23.5 -84.5h-343q6 50 31.5 86.5t63.5 56.5t82 20zM384 754h67l53 85h-75zM158 640h68l81 103l83 -103h68l-114 144h-74z" />
    <glyph glyph-name="uni1EC0" unicode="&#x1ec0;" horiz-adv-x="612" 
d="M88 0h480v75h-400v261h380v75h-380v259h400v75h-480v-745zM427 963h67l-45 85h-75zM178 849h68l81 103l83 -103h68l-114 144h-74z" />
    <glyph glyph-name="uni1EC1" unicode="&#x1ec1;" horiz-adv-x="615" 
d="M321 -12q55 0 100.5 18.5t78.5 49t49 66.5l-64 34q-25 -42 -65 -70t-99 -28q-48 0 -90 23t-68.5 64.5t-28.5 99.5h422q2 13 3 25.5t1 22.5q0 48 -17 93.5t-49 82t-77.5 58t-103.5 21.5q-73 0 -131.5 -36t-92.5 -98.5t-34 -143.5t35 -145t95.5 -100.5t135.5 -36.5z
M313 478q45 0 82.5 -21t60 -57.5t23.5 -84.5h-343q6 50 31.5 86.5t63.5 56.5t82 20zM407 754h67l-45 85h-75zM158 640h68l81 103l83 -103h68l-114 144h-74z" />
    <glyph glyph-name="uni1EC2" unicode="&#x1ec2;" horiz-adv-x="612" 
d="M88 0h480v75h-400v261h380v75h-380v259h400v75h-480v-745zM442 939q53 22 77.5 51.5t24.5 63.5q0 39 -30 63.5t-79 24.5q-12 0 -26.5 -2t-25.5 -7v-43q9 3 19 5t21 2q32 0 47 -15t15 -36q0 -22 -16 -40.5t-45 -32.5zM178 849h68l81 103l83 -103h68l-114 144h-74z" />
    <glyph glyph-name="uni1EC3" unicode="&#x1ec3;" horiz-adv-x="615" 
d="M321 -12q55 0 100.5 18.5t78.5 49t49 66.5l-64 34q-25 -42 -65 -70t-99 -28q-48 0 -90 23t-68.5 64.5t-28.5 99.5h422q2 13 3 25.5t1 22.5q0 48 -17 93.5t-49 82t-77.5 58t-103.5 21.5q-73 0 -131.5 -36t-92.5 -98.5t-34 -143.5t35 -145t95.5 -100.5t135.5 -36.5z
M313 478q45 0 82.5 -21t60 -57.5t23.5 -84.5h-343q6 50 31.5 86.5t63.5 56.5t82 20zM422 730q53 22 77.5 51.5t24.5 63.5q0 39 -30 63.5t-79 24.5q-12 0 -26.5 -2t-25.5 -7v-43q9 3 19 5t21 2q32 0 47 -15t15 -36q0 -22 -16 -40.5t-45 -32.5zM158 640h68l81 103l83 -103h68
l-114 144h-74z" />
    <glyph glyph-name="uni1EC4" unicode="&#x1ec4;" horiz-adv-x="612" 
d="M88 0h480v75h-400v261h380v75h-380v259h400v75h-480v-745zM388 1027q35 0 57 26t23 71h-54q-1 -18 -9 -29t-24 -11q-18 0 -32 11t-32 22.5t-48 11.5q-34 0 -56.5 -26t-24.5 -71h54q2 22 11 31t22 9q19 0 33 -11.5t32 -22.5t48 -11zM178 849h68l81 103l83 -103h68
l-114 144h-74z" />
    <glyph glyph-name="uni1EC5" unicode="&#x1ec5;" horiz-adv-x="615" 
d="M321 -12q55 0 100.5 18.5t78.5 49t49 66.5l-64 34q-25 -42 -65 -70t-99 -28q-48 0 -90 23t-68.5 64.5t-28.5 99.5h422q2 13 3 25.5t1 22.5q0 48 -17 93.5t-49 82t-77.5 58t-103.5 21.5q-73 0 -131.5 -36t-92.5 -98.5t-34 -143.5t35 -145t95.5 -100.5t135.5 -36.5z
M313 478q45 0 82.5 -21t60 -57.5t23.5 -84.5h-343q6 50 31.5 86.5t63.5 56.5t82 20zM368 818q35 0 57 26t23 71h-54q-1 -18 -9 -29t-24 -11q-18 0 -32 11t-32 22.5t-48 11.5q-34 0 -56.5 -26t-24.5 -71h54q2 22 11 31t22 9q19 0 33 -11.5t32 -22.5t48 -11zM158 640h68
l81 103l83 -103h68l-114 144h-74z" />
    <glyph glyph-name="uni1EC6" unicode="&#x1ec6;" horiz-adv-x="612" 
d="M88 0h480v75h-400v261h380v75h-380v259h400v75h-480v-745zM328 -195q24 0 40.5 16.5t16.5 41.5q0 24 -16.5 40.5t-40.5 16.5q-25 0 -41.5 -16.5t-16.5 -40.5q0 -25 16.5 -41.5t41.5 -16.5zM178 849h68l81 103l83 -103h68l-114 144h-74z" />
    <glyph glyph-name="uni1EC7" unicode="&#x1ec7;" horiz-adv-x="615" 
d="M321 -12q55 0 100.5 18.5t78.5 49t49 66.5l-64 34q-25 -42 -65 -70t-99 -28q-48 0 -90 23t-68.5 64.5t-28.5 99.5h422q2 13 3 25.5t1 22.5q0 48 -17 93.5t-49 82t-77.5 58t-103.5 21.5q-73 0 -131.5 -36t-92.5 -98.5t-34 -143.5t35 -145t95.5 -100.5t135.5 -36.5z
M313 478q45 0 82.5 -21t60 -57.5t23.5 -84.5h-343q6 50 31.5 86.5t63.5 56.5t82 20zM308 -195q24 0 40.5 16.5t16.5 41.5q0 24 -16.5 40.5t-40.5 16.5q-25 0 -41.5 -16.5t-16.5 -40.5q0 -25 16.5 -41.5t41.5 -16.5zM158 640h68l81 103l83 -103h68l-114 144h-74z" />
    <glyph glyph-name="uni1EC8" unicode="&#x1ec8;" horiz-adv-x="256" 
d="M88 0h80v745h-80v-745zM106 799q53 22 77.5 51.5t24.5 63.5q0 39 -30 63.5t-79 24.5q-12 0 -26.5 -2t-25.5 -7v-43q9 3 19 5t21 2q32 0 47 -15t15 -36q0 -22 -16 -40.5t-45 -32.5z" />
    <glyph glyph-name="uni1EC9" unicode="&#x1ec9;" horiz-adv-x="199" 
d="M62 0h75v536h-75v-536zM77 590q53 22 77.5 51.5t24.5 63.5q0 39 -30 63.5t-79 24.5q-12 0 -26.5 -2t-25.5 -7v-43q9 3 19 5t21 2q32 0 47 -15t15 -36q0 -22 -16 -40.5t-45 -32.5z" />
    <glyph glyph-name="uni1ECA" unicode="&#x1eca;" horiz-adv-x="256" 
d="M88 0h80v745h-80v-745zM128 -195q24 0 40.5 16.5t16.5 41.5q0 24 -16.5 40.5t-40.5 16.5q-25 0 -41.5 -16.5t-16.5 -40.5q0 -25 16.5 -41.5t41.5 -16.5z" />
    <glyph glyph-name="uni1ECB" unicode="&#x1ecb;" horiz-adv-x="229" 
d="M77 635h75v110h-75v-110zM77 0h75v536h-75v-536zM115 -195q24 0 40.5 16.5t16.5 41.5q0 24 -16.5 40.5t-40.5 16.5q-25 0 -41.5 -16.5t-16.5 -40.5q0 -25 16.5 -41.5t41.5 -16.5z" />
    <glyph glyph-name="uni1ECC" unicode="&#x1ecc;" horiz-adv-x="878" 
d="M439 -12q78 0 145.5 28.5t118.5 80t80 122t29 154.5t-29 154t-80 121.5t-118.5 80t-145.5 28.5t-145.5 -28t-118.5 -79.5t-80 -122t-29 -154.5t29 -154.5t80 -122t118.5 -80t145.5 -28.5zM439 63q-86 0 -152 42t-103.5 112.5t-37.5 155.5q0 63 21.5 119t60.5 99t92.5 67
t118.5 24t118.5 -24t92.5 -67t60.5 -99t21.5 -119q0 -85 -37.5 -155.5t-103.5 -112.5t-152 -42zM439 -195q24 0 40.5 16.5t16.5 41.5q0 24 -16.5 40.5t-40.5 16.5q-25 0 -41.5 -16.5t-16.5 -40.5q0 -25 16.5 -41.5t41.5 -16.5z" />
    <glyph glyph-name="uni1ECD" unicode="&#x1ecd;" horiz-adv-x="655" 
d="M328 -12q75 0 136.5 36t98.5 99.5t37 145.5q0 81 -35.5 144t-97 99t-139.5 36t-139.5 -36.5t-97.5 -99.5t-36 -143q0 -81 36.5 -144.5t98.5 -100t138 -36.5zM328 63q-54 0 -97.5 27t-69.5 74t-26 105t26 104t69.5 73t97.5 27t97.5 -27t69 -73t25.5 -104t-25.5 -105
t-69 -74t-97.5 -27zM328 -195q24 0 40.5 16.5t16.5 41.5q0 24 -16.5 40.5t-40.5 16.5q-25 0 -41.5 -16.5t-16.5 -40.5q0 -25 16.5 -41.5t41.5 -16.5z" />
    <glyph glyph-name="uni1ECE" unicode="&#x1ece;" horiz-adv-x="878" 
d="M439 -12q78 0 145.5 28.5t118.5 80t80 122t29 154.5t-29 154t-80 121.5t-118.5 80t-145.5 28.5t-145.5 -28t-118.5 -79.5t-80 -122t-29 -154.5t29 -154.5t80 -122t118.5 -80t145.5 -28.5zM439 63q-86 0 -152 42t-103.5 112.5t-37.5 155.5q0 63 21.5 119t60.5 99t92.5 67
t118.5 24t118.5 -24t92.5 -67t60.5 -99t21.5 -119q0 -85 -37.5 -155.5t-103.5 -112.5t-152 -42zM417 799q53 22 77.5 51.5t24.5 63.5q0 39 -30 63.5t-79 24.5q-12 0 -26.5 -2t-25.5 -7v-43q9 3 19 5t21 2q32 0 47 -15t15 -36q0 -22 -16 -40.5t-45 -32.5z" />
    <glyph glyph-name="uni1ECF" unicode="&#x1ecf;" horiz-adv-x="655" 
d="M328 -12q75 0 136.5 36t98.5 99.5t37 145.5q0 81 -35.5 144t-97 99t-139.5 36t-139.5 -36.5t-97.5 -99.5t-36 -143q0 -81 36.5 -144.5t98.5 -100t138 -36.5zM328 63q-54 0 -97.5 27t-69.5 74t-26 105t26 104t69.5 73t97.5 27t97.5 -27t69 -73t25.5 -104t-25.5 -105
t-69 -74t-97.5 -27zM306 590q53 22 77.5 51.5t24.5 63.5q0 39 -30 63.5t-79 24.5q-12 0 -26.5 -2t-25.5 -7v-43q9 3 19 5t21 2q32 0 47 -15t15 -36q0 -22 -16 -40.5t-45 -32.5z" />
    <glyph glyph-name="uni1ED0" unicode="&#x1ed0;" horiz-adv-x="878" 
d="M439 -12q78 0 145.5 28.5t118.5 80t80 122t29 154.5t-29 154t-80 121.5t-118.5 80t-145.5 28.5t-145.5 -28t-118.5 -79.5t-80 -122t-29 -154.5t29 -154.5t80 -122t118.5 -80t145.5 -28.5zM439 63q-86 0 -152 42t-103.5 112.5t-37.5 155.5q0 63 21.5 119t60.5 99t92.5 67
t118.5 24t118.5 -24t92.5 -67t60.5 -99t21.5 -119q0 -85 -37.5 -155.5t-103.5 -112.5t-152 -42zM515 963h67l53 85h-75zM289 849h68l81 103l83 -103h68l-114 144h-74z" />
    <glyph glyph-name="uni1ED1" unicode="&#x1ed1;" horiz-adv-x="655" 
d="M328 -12q75 0 136.5 36t98.5 99.5t37 145.5q0 81 -35.5 144t-97 99t-139.5 36t-139.5 -36.5t-97.5 -99.5t-36 -143q0 -81 36.5 -144.5t98.5 -100t138 -36.5zM328 63q-54 0 -97.5 27t-69.5 74t-26 105t26 104t69.5 73t97.5 27t97.5 -27t69 -73t25.5 -104t-25.5 -105
t-69 -74t-97.5 -27zM404 754h67l53 85h-75zM178 640h68l81 103l83 -103h68l-114 144h-74z" />
    <glyph glyph-name="uni1ED2" unicode="&#x1ed2;" horiz-adv-x="878" 
d="M439 -12q78 0 145.5 28.5t118.5 80t80 122t29 154.5t-29 154t-80 121.5t-118.5 80t-145.5 28.5t-145.5 -28t-118.5 -79.5t-80 -122t-29 -154.5t29 -154.5t80 -122t118.5 -80t145.5 -28.5zM439 63q-86 0 -152 42t-103.5 112.5t-37.5 155.5q0 63 21.5 119t60.5 99t92.5 67
t118.5 24t118.5 -24t92.5 -67t60.5 -99t21.5 -119q0 -85 -37.5 -155.5t-103.5 -112.5t-152 -42zM538 963h67l-45 85h-75zM289 849h68l81 103l83 -103h68l-114 144h-74z" />
    <glyph glyph-name="uni1ED3" unicode="&#x1ed3;" horiz-adv-x="655" 
d="M328 -12q75 0 136.5 36t98.5 99.5t37 145.5q0 81 -35.5 144t-97 99t-139.5 36t-139.5 -36.5t-97.5 -99.5t-36 -143q0 -81 36.5 -144.5t98.5 -100t138 -36.5zM328 63q-54 0 -97.5 27t-69.5 74t-26 105t26 104t69.5 73t97.5 27t97.5 -27t69 -73t25.5 -104t-25.5 -105
t-69 -74t-97.5 -27zM427 754h67l-45 85h-75zM178 640h68l81 103l83 -103h68l-114 144h-74z" />
    <glyph glyph-name="uni1ED4" unicode="&#x1ed4;" horiz-adv-x="878" 
d="M439 -12q78 0 145.5 28.5t118.5 80t80 122t29 154.5t-29 154t-80 121.5t-118.5 80t-145.5 28.5t-145.5 -28t-118.5 -79.5t-80 -122t-29 -154.5t29 -154.5t80 -122t118.5 -80t145.5 -28.5zM439 63q-86 0 -152 42t-103.5 112.5t-37.5 155.5q0 63 21.5 119t60.5 99t92.5 67
t118.5 24t118.5 -24t92.5 -67t60.5 -99t21.5 -119q0 -85 -37.5 -155.5t-103.5 -112.5t-152 -42zM553 939q53 22 77.5 51.5t24.5 63.5q0 39 -30 63.5t-79 24.5q-12 0 -26.5 -2t-25.5 -7v-43q9 3 19 5t21 2q32 0 47 -15t15 -36q0 -22 -16 -40.5t-45 -32.5zM289 849h68l81 103
l83 -103h68l-114 144h-74z" />
    <glyph glyph-name="uni1ED5" unicode="&#x1ed5;" horiz-adv-x="655" 
d="M328 -12q75 0 136.5 36t98.5 99.5t37 145.5q0 81 -35.5 144t-97 99t-139.5 36t-139.5 -36.5t-97.5 -99.5t-36 -143q0 -81 36.5 -144.5t98.5 -100t138 -36.5zM328 63q-54 0 -97.5 27t-69.5 74t-26 105t26 104t69.5 73t97.5 27t97.5 -27t69 -73t25.5 -104t-25.5 -105
t-69 -74t-97.5 -27zM442 730q53 22 77.5 51.5t24.5 63.5q0 39 -30 63.5t-79 24.5q-12 0 -26.5 -2t-25.5 -7v-43q9 3 19 5t21 2q32 0 47 -15t15 -36q0 -22 -16 -40.5t-45 -32.5zM178 640h68l81 103l83 -103h68l-114 144h-74z" />
    <glyph glyph-name="uni1ED6" unicode="&#x1ed6;" horiz-adv-x="878" 
d="M439 -12q78 0 145.5 28.5t118.5 80t80 122t29 154.5t-29 154t-80 121.5t-118.5 80t-145.5 28.5t-145.5 -28t-118.5 -79.5t-80 -122t-29 -154.5t29 -154.5t80 -122t118.5 -80t145.5 -28.5zM439 63q-86 0 -152 42t-103.5 112.5t-37.5 155.5q0 63 21.5 119t60.5 99t92.5 67
t118.5 24t118.5 -24t92.5 -67t60.5 -99t21.5 -119q0 -85 -37.5 -155.5t-103.5 -112.5t-152 -42zM499 1027q35 0 57 26t23 71h-54q-1 -18 -9 -29t-24 -11q-18 0 -32 11t-32 22.5t-48 11.5q-34 0 -56.5 -26t-24.5 -71h54q2 22 11 31t22 9q19 0 33 -11.5t32 -22.5t48 -11z
M289 849h68l81 103l83 -103h68l-114 144h-74z" />
    <glyph glyph-name="uni1ED7" unicode="&#x1ed7;" horiz-adv-x="655" 
d="M328 -12q75 0 136.5 36t98.5 99.5t37 145.5q0 81 -35.5 144t-97 99t-139.5 36t-139.5 -36.5t-97.5 -99.5t-36 -143q0 -81 36.5 -144.5t98.5 -100t138 -36.5zM328 63q-54 0 -97.5 27t-69.5 74t-26 105t26 104t69.5 73t97.5 27t97.5 -27t69 -73t25.5 -104t-25.5 -105
t-69 -74t-97.5 -27zM388 818q35 0 57 26t23 71h-54q-1 -18 -9 -29t-24 -11q-18 0 -32 11t-32 22.5t-48 11.5q-34 0 -56.5 -26t-24.5 -71h54q2 22 11 31t22 9q19 0 33 -11.5t32 -22.5t48 -11zM178 640h68l81 103l83 -103h68l-114 144h-74z" />
    <glyph glyph-name="uni1ED8" unicode="&#x1ed8;" horiz-adv-x="878" 
d="M439 -12q78 0 145.5 28.5t118.5 80t80 122t29 154.5t-29 154t-80 121.5t-118.5 80t-145.5 28.5t-145.5 -28t-118.5 -79.5t-80 -122t-29 -154.5t29 -154.5t80 -122t118.5 -80t145.5 -28.5zM439 63q-86 0 -152 42t-103.5 112.5t-37.5 155.5q0 63 21.5 119t60.5 99t92.5 67
t118.5 24t118.5 -24t92.5 -67t60.5 -99t21.5 -119q0 -85 -37.5 -155.5t-103.5 -112.5t-152 -42zM439 -195q24 0 40.5 16.5t16.5 41.5q0 24 -16.5 40.5t-40.5 16.5q-25 0 -41.5 -16.5t-16.5 -40.5q0 -25 16.5 -41.5t41.5 -16.5zM289 849h68l81 103l83 -103h68l-114 144h-74z
" />
    <glyph glyph-name="uni1ED9" unicode="&#x1ed9;" horiz-adv-x="655" 
d="M328 -12q75 0 136.5 36t98.5 99.5t37 145.5q0 81 -35.5 144t-97 99t-139.5 36t-139.5 -36.5t-97.5 -99.5t-36 -143q0 -81 36.5 -144.5t98.5 -100t138 -36.5zM328 63q-54 0 -97.5 27t-69.5 74t-26 105t26 104t69.5 73t97.5 27t97.5 -27t69 -73t25.5 -104t-25.5 -105
t-69 -74t-97.5 -27zM328 -195q24 0 40.5 16.5t16.5 41.5q0 24 -16.5 40.5t-40.5 16.5q-25 0 -41.5 -16.5t-16.5 -40.5q0 -25 16.5 -41.5t41.5 -16.5zM178 640h68l81 103l83 -103h68l-114 144h-74z" />
    <glyph glyph-name="uni1EDA" unicode="&#x1eda;" horiz-adv-x="878" 
d="M439 -12q78 0 145.5 28.5t118.5 80t80 122t29 154.5q0 99 -40.5 179t-107.5 131h2q59 0 94.5 28.5t35.5 89.5q0 26 -7 47.5t-18 40.5h-92q10 -20 16.5 -39.5t6.5 -40.5q0 -34 -16.5 -43t-33.5 -9h-213q-78 0 -145.5 -28t-118.5 -79.5t-80 -122t-29 -154.5t29 -154.5
t80 -122t118.5 -80t145.5 -28.5zM439 63q-86 0 -152 42t-103.5 112.5t-37.5 155.5q0 63 21.5 119t60.5 99t92.5 67t118.5 24t118.5 -24t92.5 -67t60.5 -99t21.5 -119q0 -85 -37.5 -155.5t-103.5 -112.5t-152 -42zM407 849h63l91 144h-76z" />
    <glyph glyph-name="uni1EDB" unicode="&#x1edb;" horiz-adv-x="655" 
d="M328 -12q75 0 136.5 36t98.5 99.5t37 145.5q0 71 -28 128.5t-77 95.5q33 9 52.5 34t19.5 67q0 25 -7 46t-16 41h-74q9 -20 15.5 -39.5t6.5 -40.5q0 -32 -15.5 -42.5t-35.5 -10.5h-113q-78 0 -139.5 -36.5t-97.5 -99.5t-36 -143q0 -81 36.5 -144.5t98.5 -100t138 -36.5z
M328 63q-54 0 -97.5 27t-69.5 74t-26 105t26 104t69.5 73t97.5 27t97.5 -27t69 -73t25.5 -104t-25.5 -105t-69 -74t-97.5 -27zM296 640h63l91 144h-76z" />
    <glyph glyph-name="uni1EDC" unicode="&#x1edc;" horiz-adv-x="878" 
d="M439 -12q78 0 145.5 28.5t118.5 80t80 122t29 154.5q0 99 -40.5 179t-107.5 131h2q59 0 94.5 28.5t35.5 89.5q0 26 -7 47.5t-18 40.5h-92q10 -20 16.5 -39.5t6.5 -40.5q0 -34 -16.5 -43t-33.5 -9h-213q-78 0 -145.5 -28t-118.5 -79.5t-80 -122t-29 -154.5t29 -154.5
t80 -122t118.5 -80t145.5 -28.5zM439 63q-86 0 -152 42t-103.5 112.5t-37.5 155.5q0 63 21.5 119t60.5 99t92.5 67t118.5 24t118.5 -24t92.5 -67t60.5 -99t21.5 -119q0 -85 -37.5 -155.5t-103.5 -112.5t-152 -42zM407 849h63l-78 144h-76z" />
    <glyph glyph-name="uni1EDD" unicode="&#x1edd;" horiz-adv-x="655" 
d="M328 -12q75 0 136.5 36t98.5 99.5t37 145.5q0 71 -28 128.5t-77 95.5q33 9 52.5 34t19.5 67q0 25 -7 46t-16 41h-74q9 -20 15.5 -39.5t6.5 -40.5q0 -32 -15.5 -42.5t-35.5 -10.5h-113q-78 0 -139.5 -36.5t-97.5 -99.5t-36 -143q0 -81 36.5 -144.5t98.5 -100t138 -36.5z
M328 63q-54 0 -97.5 27t-69.5 74t-26 105t26 104t69.5 73t97.5 27t97.5 -27t69 -73t25.5 -104t-25.5 -105t-69 -74t-97.5 -27zM296 640h63l-78 144h-76z" />
    <glyph glyph-name="uni1EDE" unicode="&#x1ede;" horiz-adv-x="878" 
d="M439 -12q78 0 145.5 28.5t118.5 80t80 122t29 154.5q0 99 -40.5 179t-107.5 131h2q59 0 94.5 28.5t35.5 89.5q0 26 -7 47.5t-18 40.5h-92q10 -20 16.5 -39.5t6.5 -40.5q0 -34 -16.5 -43t-33.5 -9h-213q-78 0 -145.5 -28t-118.5 -79.5t-80 -122t-29 -154.5t29 -154.5
t80 -122t118.5 -80t145.5 -28.5zM439 63q-86 0 -152 42t-103.5 112.5t-37.5 155.5q0 63 21.5 119t60.5 99t92.5 67t118.5 24t118.5 -24t92.5 -67t60.5 -99t21.5 -119q0 -85 -37.5 -155.5t-103.5 -112.5t-152 -42zM417 799q53 22 77.5 51.5t24.5 63.5q0 39 -30 63.5t-79 24.5
q-12 0 -26.5 -2t-25.5 -7v-43q9 3 19 5t21 2q32 0 47 -15t15 -36q0 -22 -16 -40.5t-45 -32.5z" />
    <glyph glyph-name="uni1EDF" unicode="&#x1edf;" horiz-adv-x="655" 
d="M328 -12q75 0 136.5 36t98.5 99.5t37 145.5q0 71 -28 128.5t-77 95.5q33 9 52.5 34t19.5 67q0 25 -7 46t-16 41h-74q9 -20 15.5 -39.5t6.5 -40.5q0 -32 -15.5 -42.5t-35.5 -10.5h-113q-78 0 -139.5 -36.5t-97.5 -99.5t-36 -143q0 -81 36.5 -144.5t98.5 -100t138 -36.5z
M328 63q-54 0 -97.5 27t-69.5 74t-26 105t26 104t69.5 73t97.5 27t97.5 -27t69 -73t25.5 -104t-25.5 -105t-69 -74t-97.5 -27zM306 590q53 22 77.5 51.5t24.5 63.5q0 39 -30 63.5t-79 24.5q-12 0 -26.5 -2t-25.5 -7v-43q9 3 19 5t21 2q32 0 47 -15t15 -36q0 -22 -16 -40.5
t-45 -32.5z" />
    <glyph glyph-name="uni1EE0" unicode="&#x1ee0;" horiz-adv-x="878" 
d="M439 -12q78 0 145.5 28.5t118.5 80t80 122t29 154.5q0 99 -40.5 179t-107.5 131h2q59 0 94.5 28.5t35.5 89.5q0 26 -7 47.5t-18 40.5h-92q10 -20 16.5 -39.5t6.5 -40.5q0 -34 -16.5 -43t-33.5 -9h-213q-78 0 -145.5 -28t-118.5 -79.5t-80 -122t-29 -154.5t29 -154.5
t80 -122t118.5 -80t145.5 -28.5zM439 63q-86 0 -152 42t-103.5 112.5t-37.5 155.5q0 63 21.5 119t60.5 99t92.5 67t118.5 24t118.5 -24t92.5 -67t60.5 -99t21.5 -119q0 -85 -37.5 -155.5t-103.5 -112.5t-152 -42zM499 889q35 0 57 26t23 71h-54q-1 -18 -9 -29t-24 -11
q-18 0 -32 11t-32 22.5t-48 11.5q-34 0 -56.5 -26t-24.5 -71h54q2 22 11 31t22 9q19 0 33 -11.5t32 -22.5t48 -11z" />
    <glyph glyph-name="uni1EE1" unicode="&#x1ee1;" horiz-adv-x="655" 
d="M328 -12q75 0 136.5 36t98.5 99.5t37 145.5q0 71 -28 128.5t-77 95.5q33 9 52.5 34t19.5 67q0 25 -7 46t-16 41h-74q9 -20 15.5 -39.5t6.5 -40.5q0 -32 -15.5 -42.5t-35.5 -10.5h-113q-78 0 -139.5 -36.5t-97.5 -99.5t-36 -143q0 -81 36.5 -144.5t98.5 -100t138 -36.5z
M328 63q-54 0 -97.5 27t-69.5 74t-26 105t26 104t69.5 73t97.5 27t97.5 -27t69 -73t25.5 -104t-25.5 -105t-69 -74t-97.5 -27zM388 680q35 0 57 26t23 71h-54q-1 -18 -9 -29t-24 -11q-18 0 -32 11t-32 22.5t-48 11.5q-34 0 -56.5 -26t-24.5 -71h54q2 22 11 31t22 9
q19 0 33 -11.5t32 -22.5t48 -11z" />
    <glyph glyph-name="uni1EE2" unicode="&#x1ee2;" horiz-adv-x="878" 
d="M439 -12q78 0 145.5 28.5t118.5 80t80 122t29 154.5q0 99 -40.5 179t-107.5 131h2q59 0 94.5 28.5t35.5 89.5q0 26 -7 47.5t-18 40.5h-92q10 -20 16.5 -39.5t6.5 -40.5q0 -34 -16.5 -43t-33.5 -9h-213q-78 0 -145.5 -28t-118.5 -79.5t-80 -122t-29 -154.5t29 -154.5
t80 -122t118.5 -80t145.5 -28.5zM439 63q-86 0 -152 42t-103.5 112.5t-37.5 155.5q0 63 21.5 119t60.5 99t92.5 67t118.5 24t118.5 -24t92.5 -67t60.5 -99t21.5 -119q0 -85 -37.5 -155.5t-103.5 -112.5t-152 -42zM439 -195q24 0 40.5 16.5t16.5 41.5q0 24 -16.5 40.5
t-40.5 16.5q-25 0 -41.5 -16.5t-16.5 -40.5q0 -25 16.5 -41.5t41.5 -16.5z" />
    <glyph glyph-name="uni1EE3" unicode="&#x1ee3;" horiz-adv-x="655" 
d="M328 -12q75 0 136.5 36t98.5 99.5t37 145.5q0 71 -28 128.5t-77 95.5q33 9 52.5 34t19.5 67q0 25 -7 46t-16 41h-74q9 -20 15.5 -39.5t6.5 -40.5q0 -32 -15.5 -42.5t-35.5 -10.5h-113q-78 0 -139.5 -36.5t-97.5 -99.5t-36 -143q0 -81 36.5 -144.5t98.5 -100t138 -36.5z
M328 63q-54 0 -97.5 27t-69.5 74t-26 105t26 104t69.5 73t97.5 27t97.5 -27t69 -73t25.5 -104t-25.5 -105t-69 -74t-97.5 -27zM328 -195q24 0 40.5 16.5t16.5 41.5q0 24 -16.5 40.5t-40.5 16.5q-25 0 -41.5 -16.5t-16.5 -40.5q0 -25 16.5 -41.5t41.5 -16.5z" />
    <glyph glyph-name="uni1EE4" unicode="&#x1ee4;" horiz-adv-x="700" 
d="M350 -12q80 0 139.5 33t92.5 90.5t33 131.5v502h-80v-502q0 -81 -51 -130.5t-134 -49.5q-82 0 -133.5 49.5t-51.5 130.5v502h-80v-502q0 -74 33 -131.5t93 -90.5t139 -33zM350 -195q24 0 40.5 16.5t16.5 41.5q0 24 -16.5 40.5t-40.5 16.5q-25 0 -41.5 -16.5t-16.5 -40.5
q0 -25 16.5 -41.5t41.5 -16.5z" />
    <glyph glyph-name="uni1EE5" unicode="&#x1ee5;" 
d="M267 -12q50 0 90 21t64 57v-66h75v536h-75v-319q0 -72 -39.5 -113t-101.5 -41q-61 0 -100 39.5t-39 104.5v329h-75v-338q0 -62 26.5 -109.5t72.5 -74t102 -26.5zM287 -195q24 0 40.5 16.5t16.5 41.5q0 24 -16.5 40.5t-40.5 16.5q-25 0 -41.5 -16.5t-16.5 -40.5
q0 -25 16.5 -41.5t41.5 -16.5z" />
    <glyph glyph-name="uni1EE6" unicode="&#x1ee6;" horiz-adv-x="700" 
d="M350 -12q80 0 139.5 33t92.5 90.5t33 131.5v502h-80v-502q0 -81 -51 -130.5t-134 -49.5q-82 0 -133.5 49.5t-51.5 130.5v502h-80v-502q0 -74 33 -131.5t93 -90.5t139 -33zM328 799q53 22 77.5 51.5t24.5 63.5q0 39 -30 63.5t-79 24.5q-12 0 -26.5 -2t-25.5 -7v-43
q9 3 19 5t21 2q32 0 47 -15t15 -36q0 -22 -16 -40.5t-45 -32.5z" />
    <glyph glyph-name="uni1EE7" unicode="&#x1ee7;" 
d="M267 -12q50 0 90 21t64 57v-66h75v536h-75v-319q0 -72 -39.5 -113t-101.5 -41q-61 0 -100 39.5t-39 104.5v329h-75v-338q0 -62 26.5 -109.5t72.5 -74t102 -26.5zM265 590q53 22 77.5 51.5t24.5 63.5q0 39 -30 63.5t-79 24.5q-12 0 -26.5 -2t-25.5 -7v-43q9 3 19 5t21 2
q32 0 47 -15t15 -36q0 -22 -16 -40.5t-45 -32.5z" />
    <glyph glyph-name="uni1EE8" unicode="&#x1ee8;" horiz-adv-x="700" 
d="M350 -12q80 0 139.5 33t92.5 90.5t33 131.5v428h7q59 0 94.5 28.5t35.5 89.5q0 26 -7 47.5t-18 40.5h-92q10 -20 16.5 -39.5t6.5 -40.5q0 -34 -16.5 -43t-33.5 -9h-73v-502q0 -81 -51 -130.5t-134 -49.5q-82 0 -133.5 49.5t-51.5 130.5v502h-80v-502q0 -74 33 -131.5
t93 -90.5t139 -33zM318 849h63l91 144h-76z" />
    <glyph glyph-name="uni1EE9" unicode="&#x1ee9;" horiz-adv-x="595" 
d="M267 -12q50 0 90 21t64 57v-66h75v477q40 6 64.5 32t24.5 73q0 25 -7 46t-16 41h-74q9 -20 15.5 -39.5t6.5 -40.5q0 -32 -15.5 -42.5t-35.5 -10.5h-38v-319q0 -72 -39.5 -113t-101.5 -41q-61 0 -100 39.5t-39 104.5v329h-75v-338q0 -62 26.5 -109.5t72.5 -74t102 -26.5z
M255 640h63l91 144h-76z" />
    <glyph glyph-name="uni1EEA" unicode="&#x1eea;" horiz-adv-x="700" 
d="M350 -12q80 0 139.5 33t92.5 90.5t33 131.5v428h7q59 0 94.5 28.5t35.5 89.5q0 26 -7 47.5t-18 40.5h-92q10 -20 16.5 -39.5t6.5 -40.5q0 -34 -16.5 -43t-33.5 -9h-73v-502q0 -81 -51 -130.5t-134 -49.5q-82 0 -133.5 49.5t-51.5 130.5v502h-80v-502q0 -74 33 -131.5
t93 -90.5t139 -33zM318 849h63l-78 144h-76z" />
    <glyph glyph-name="uni1EEB" unicode="&#x1eeb;" horiz-adv-x="595" 
d="M267 -12q50 0 90 21t64 57v-66h75v477q40 6 64.5 32t24.5 73q0 25 -7 46t-16 41h-74q9 -20 15.5 -39.5t6.5 -40.5q0 -32 -15.5 -42.5t-35.5 -10.5h-38v-319q0 -72 -39.5 -113t-101.5 -41q-61 0 -100 39.5t-39 104.5v329h-75v-338q0 -62 26.5 -109.5t72.5 -74t102 -26.5z
M255 640h63l-78 144h-76z" />
    <glyph glyph-name="uni1EEC" unicode="&#x1eec;" horiz-adv-x="700" 
d="M350 -12q80 0 139.5 33t92.5 90.5t33 131.5v428h7q59 0 94.5 28.5t35.5 89.5q0 26 -7 47.5t-18 40.5h-92q10 -20 16.5 -39.5t6.5 -40.5q0 -34 -16.5 -43t-33.5 -9h-73v-502q0 -81 -51 -130.5t-134 -49.5q-82 0 -133.5 49.5t-51.5 130.5v502h-80v-502q0 -74 33 -131.5
t93 -90.5t139 -33zM328 799q53 22 77.5 51.5t24.5 63.5q0 39 -30 63.5t-79 24.5q-12 0 -26.5 -2t-25.5 -7v-43q9 3 19 5t21 2q32 0 47 -15t15 -36q0 -22 -16 -40.5t-45 -32.5z" />
    <glyph glyph-name="uni1EED" unicode="&#x1eed;" horiz-adv-x="595" 
d="M267 -12q50 0 90 21t64 57v-66h75v477q40 6 64.5 32t24.5 73q0 25 -7 46t-16 41h-74q9 -20 15.5 -39.5t6.5 -40.5q0 -32 -15.5 -42.5t-35.5 -10.5h-38v-319q0 -72 -39.5 -113t-101.5 -41q-61 0 -100 39.5t-39 104.5v329h-75v-338q0 -62 26.5 -109.5t72.5 -74t102 -26.5z
M265 590q53 22 77.5 51.5t24.5 63.5q0 39 -30 63.5t-79 24.5q-12 0 -26.5 -2t-25.5 -7v-43q9 3 19 5t21 2q32 0 47 -15t15 -36q0 -22 -16 -40.5t-45 -32.5z" />
    <glyph glyph-name="uni1EEE" unicode="&#x1eee;" horiz-adv-x="700" 
d="M350 -12q80 0 139.5 33t92.5 90.5t33 131.5v428h7q59 0 94.5 28.5t35.5 89.5q0 26 -7 47.5t-18 40.5h-92q10 -20 16.5 -39.5t6.5 -40.5q0 -34 -16.5 -43t-33.5 -9h-73v-502q0 -81 -51 -130.5t-134 -49.5q-82 0 -133.5 49.5t-51.5 130.5v502h-80v-502q0 -74 33 -131.5
t93 -90.5t139 -33zM410 889q35 0 57 26t23 71h-54q-1 -18 -9 -29t-24 -11q-18 0 -32 11t-32 22.5t-48 11.5q-34 0 -56.5 -26t-24.5 -71h54q2 22 11 31t22 9q19 0 33 -11.5t32 -22.5t48 -11z" />
    <glyph glyph-name="uni1EEF" unicode="&#x1eef;" horiz-adv-x="595" 
d="M267 -12q50 0 90 21t64 57v-66h75v477q40 6 64.5 32t24.5 73q0 25 -7 46t-16 41h-74q9 -20 15.5 -39.5t6.5 -40.5q0 -32 -15.5 -42.5t-35.5 -10.5h-38v-319q0 -72 -39.5 -113t-101.5 -41q-61 0 -100 39.5t-39 104.5v329h-75v-338q0 -62 26.5 -109.5t72.5 -74t102 -26.5z
M347 680q35 0 57 26t23 71h-54q-1 -18 -9 -29t-24 -11q-18 0 -32 11t-32 22.5t-48 11.5q-34 0 -56.5 -26t-24.5 -71h54q2 22 11 31t22 9q19 0 33 -11.5t32 -22.5t48 -11z" />
    <glyph glyph-name="uni1EF0" unicode="&#x1ef0;" horiz-adv-x="700" 
d="M350 -12q80 0 139.5 33t92.5 90.5t33 131.5v428h7q59 0 94.5 28.5t35.5 89.5q0 26 -7 47.5t-18 40.5h-92q10 -20 16.5 -39.5t6.5 -40.5q0 -34 -16.5 -43t-33.5 -9h-73v-502q0 -81 -51 -130.5t-134 -49.5q-82 0 -133.5 49.5t-51.5 130.5v502h-80v-502q0 -74 33 -131.5
t93 -90.5t139 -33zM350 -195q24 0 40.5 16.5t16.5 41.5q0 24 -16.5 40.5t-40.5 16.5q-25 0 -41.5 -16.5t-16.5 -40.5q0 -25 16.5 -41.5t41.5 -16.5z" />
    <glyph glyph-name="uni1EF1" unicode="&#x1ef1;" horiz-adv-x="595" 
d="M267 -12q50 0 90 21t64 57v-66h75v477q40 6 64.5 32t24.5 73q0 25 -7 46t-16 41h-74q9 -20 15.5 -39.5t6.5 -40.5q0 -32 -15.5 -42.5t-35.5 -10.5h-38v-319q0 -72 -39.5 -113t-101.5 -41q-61 0 -100 39.5t-39 104.5v329h-75v-338q0 -62 26.5 -109.5t72.5 -74t102 -26.5z
M287 -195q24 0 40.5 16.5t16.5 41.5q0 24 -16.5 40.5t-40.5 16.5q-25 0 -41.5 -16.5t-16.5 -40.5q0 -25 16.5 -41.5t41.5 -16.5z" />
    <glyph glyph-name="Ygrave" unicode="&#x1ef2;" horiz-adv-x="623" 
d="M272 0h80v346l260 399h-89l-211 -323l-212 323h-89l261 -399v-346zM280 849h63l-78 144h-76z" />
    <glyph glyph-name="ygrave" unicode="&#x1ef3;" horiz-adv-x="536" 
d="M88 -220q53 0 90 21.5t61.5 56.5t40.5 74l245 605h-83l-175 -443l-175 443h-81l214 -537l-19 -46q-25 -58 -51 -78.5t-75 -20.5q-16 0 -31.5 2.5t-25.5 3.5v-70q16 -6 32.5 -8.5t32.5 -2.5zM236 640h63l-78 144h-76z" />
    <glyph glyph-name="uni1EF4" unicode="&#x1ef4;" horiz-adv-x="623" 
d="M272 0h80v346l260 399h-89l-211 -323l-212 323h-89l261 -399v-346zM312 -195q24 0 40.5 16.5t16.5 41.5q0 24 -16.5 40.5t-40.5 16.5q-25 0 -41.5 -16.5t-16.5 -40.5q0 -25 16.5 -41.5t41.5 -16.5z" />
    <glyph glyph-name="uni1EF5" unicode="&#x1ef5;" horiz-adv-x="536" 
d="M88 -220q53 0 90 21.5t61.5 56.5t40.5 74l245 605h-83l-175 -443l-175 443h-81l214 -537l-19 -46q-25 -58 -51 -78.5t-75 -20.5q-16 0 -31.5 2.5t-25.5 3.5v-70q16 -6 32.5 -8.5t32.5 -2.5zM486 -95q24 0 40.5 16.5t16.5 41.5q0 24 -16.5 40.5t-40.5 16.5
q-25 0 -41.5 -16.5t-16.5 -40.5q0 -25 16.5 -41.5t41.5 -16.5z" />
    <glyph glyph-name="uni1EF6" unicode="&#x1ef6;" horiz-adv-x="623" 
d="M272 0h80v346l260 399h-89l-211 -323l-212 323h-89l261 -399v-346zM290 799q53 22 77.5 51.5t24.5 63.5q0 39 -30 63.5t-79 24.5q-12 0 -26.5 -2t-25.5 -7v-43q9 3 19 5t21 2q32 0 47 -15t15 -36q0 -22 -16 -40.5t-45 -32.5z" />
    <glyph glyph-name="uni1EF7" unicode="&#x1ef7;" horiz-adv-x="536" 
d="M88 -220q53 0 90 21.5t61.5 56.5t40.5 74l245 605h-83l-175 -443l-175 443h-81l214 -537l-19 -46q-25 -58 -51 -78.5t-75 -20.5q-16 0 -31.5 2.5t-25.5 3.5v-70q16 -6 32.5 -8.5t32.5 -2.5zM246 590q53 22 77.5 51.5t24.5 63.5q0 39 -30 63.5t-79 24.5q-12 0 -26.5 -2
t-25.5 -7v-43q9 3 19 5t21 2q32 0 47 -15t15 -36q0 -22 -16 -40.5t-45 -32.5z" />
    <glyph glyph-name="uni1EF8" unicode="&#x1ef8;" horiz-adv-x="623" 
d="M272 0h80v346l260 399h-89l-211 -323l-212 323h-89l261 -399v-346zM372 889q35 0 57 26t23 71h-54q-1 -18 -9 -29t-24 -11q-18 0 -32 11t-32 22.5t-48 11.5q-34 0 -56.5 -26t-24.5 -71h54q2 22 11 31t22 9q19 0 33 -11.5t32 -22.5t48 -11z" />
    <glyph glyph-name="uni1EF9" unicode="&#x1ef9;" horiz-adv-x="536" 
d="M88 -220q53 0 90 21.5t61.5 56.5t40.5 74l245 605h-83l-175 -443l-175 443h-81l214 -537l-19 -46q-25 -58 -51 -78.5t-75 -20.5q-16 0 -31.5 2.5t-25.5 3.5v-70q16 -6 32.5 -8.5t32.5 -2.5zM328 680q35 0 57 26t23 71h-54q-1 -18 -9 -29t-24 -11q-18 0 -32 11t-32 22.5
t-48 11.5q-34 0 -56.5 -26t-24.5 -71h54q2 22 11 31t22 9q19 0 33 -11.5t32 -22.5t48 -11z" />
    <glyph glyph-name="uni2007" unicode="&#x2007;" horiz-adv-x="732" 
 />
    <glyph glyph-name="uni2008" unicode="&#x2008;" horiz-adv-x="286" 
 />
    <glyph glyph-name="uni2009" unicode="&#x2009;" horiz-adv-x="200" 
 />
    <glyph glyph-name="uni200A" unicode="&#x200a;" horiz-adv-x="143" 
 />
    <glyph glyph-name="uni200B" unicode="&#x200b;" horiz-adv-x="0" 
 />
    <glyph glyph-name="uni2010" unicode="&#x2010;" horiz-adv-x="498" 
d="M53 233h350v70h-350v-70z" />
    <glyph glyph-name="figuredash" unicode="&#x2012;" horiz-adv-x="568" 
d="M53 233h420v70h-420v-70z" />
    <glyph glyph-name="endash" unicode="&#x2013;" horiz-adv-x="568" 
d="M74 233h420v70h-420v-70z" />
    <glyph glyph-name="emdash" unicode="&#x2014;" horiz-adv-x="898" 
d="M74 233h750v70h-750v-70z" />
    <glyph glyph-name="uni2015" unicode="&#x2015;" horiz-adv-x="898" 
d="M53 233h750v70h-750v-70z" />
    <glyph glyph-name="quoteleft" unicode="&#x2018;" horiz-adv-x="270" 
d="M80 527h80v110h-43q2 34 17.5 58t45.5 32v30q-49 -12 -74.5 -50t-25.5 -96v-84z" />
    <glyph glyph-name="quoteright" unicode="&#x2019;" horiz-adv-x="270" 
d="M80 515q50 12 75 50t25 96v84h-80v-110h43q-1 -34 -17 -58t-46 -32v-30z" />
    <glyph glyph-name="quotesinglbase" unicode="&#x201a;" horiz-adv-x="270" 
d="M80 -120q50 12 75 50t25 96v84h-80v-110h43q-1 -34 -17 -58t-46 -32v-30z" />
    <glyph glyph-name="quotedblleft" unicode="&#x201c;" horiz-adv-x="420" 
d="M230 527h80v110h-43q2 34 17.5 58t45.5 32v30q-49 -12 -74.5 -50t-25.5 -96v-84zM80 527h80v110h-43q2 34 17.5 58t45.5 32v30q-49 -12 -74.5 -50t-25.5 -96v-84z" />
    <glyph glyph-name="quotedblright" unicode="&#x201d;" horiz-adv-x="420" 
d="M230 515q50 12 75 50t25 96v84h-80v-110h43q-1 -34 -17 -58t-46 -32v-30zM80 515q50 12 75 50t25 96v84h-80v-110h43q-1 -34 -17 -58t-46 -32v-30z" />
    <glyph glyph-name="quotedblbase" unicode="&#x201e;" horiz-adv-x="420" 
d="M80 -120q50 12 75 50t25 96v84h-80v-110h43q-1 -34 -17 -58t-46 -32v-30zM230 -120q50 12 75 50t25 96v84h-80v-110h43q-1 -34 -17 -58t-46 -32v-30z" />
    <glyph glyph-name="dagger" unicode="&#x2020;" horiz-adv-x="624" 
d="M272 -190h80v653h230v75h-230v207h-80v-207h-230v-75h230v-653z" />
    <glyph glyph-name="daggerdbl" unicode="&#x2021;" horiz-adv-x="650" 
d="M285 -190h80v207h230v75h-230v371h230v75h-230v207h-80v-207h-230v-75h230v-371h-230v-75h230v-207z" />
    <glyph glyph-name="bullet" unicode="&#x2022;" horiz-adv-x="410" 
d="M206 166q43 0 72.5 30t28.5 74q-1 42 -29.5 71.5t-71.5 29.5t-73 -29.5t-30 -71.5q0 -44 30 -74t73 -30z" />
    <glyph glyph-name="ellipsis" unicode="&#x2026;" horiz-adv-x="686" 
d="M103 0h80v110h-80v-110zM303 0h80v110h-80v-110zM503 0h80v110h-80v-110z" />
    <glyph glyph-name="perthousand" unicode="&#x2030;" horiz-adv-x="1413" 
d="M247 367q54 0 98 26.5t70 70.5t26 98t-26 98.5t-70 70.5t-98 26t-98 -26t-70.5 -70.5t-26.5 -98.5t26.5 -98t70.5 -70.5t98 -26.5zM138 0h97l610 745h-97zM247 439q-34 0 -61.5 17.5t-43 46t-15.5 59.5q0 32 15.5 60t43 45.5t61.5 17.5q35 0 61.5 -17.5t42 -45.5
t15.5 -60q0 -31 -15.5 -59.5t-42 -46t-61.5 -17.5zM727 -12q54 0 98 26.5t70 70.5t26 98t-26 98.5t-70 70.5t-98 26t-98 -26t-70.5 -70.5t-26.5 -98.5t26.5 -98t70.5 -70.5t98 -26.5zM1166 -12q54 0 98 26.5t70 70.5t26 98t-26 98.5t-70 70.5t-98 26t-98.5 -26t-70.5 -70.5
t-26 -98.5t26 -98t70.5 -70.5t98.5 -26.5zM727 60q-34 0 -61.5 17.5t-43 46t-15.5 59.5q0 32 15.5 60t43 45.5t61.5 17.5q35 0 61.5 -17.5t42 -45.5t15.5 -60q0 -31 -15.5 -59.5t-42 -46t-61.5 -17.5zM1166 60q-34 0 -61.5 17.5t-43 46t-15.5 59.5q0 32 15.5 60t43 45.5
t61.5 17.5q35 0 61.5 -17.5t42 -45.5t15.5 -60q0 -31 -15.5 -59.5t-42 -46t-61.5 -17.5z" />
    <glyph glyph-name="minute" unicode="&#x2032;" horiz-adv-x="295" 
d="M110 527h68l12 218h-80v-218z" />
    <glyph glyph-name="second" unicode="&#x2033;" horiz-adv-x="445" 
d="M110 527h68l12 218h-80v-218zM260 527h68l12 218h-80v-218z" />
    <glyph glyph-name="guilsinglleft" unicode="&#x2039;" horiz-adv-x="300" 
d="M181 79h90l-152 190l152 190h-90l-152 -190z" />
    <glyph glyph-name="guilsinglright" unicode="&#x203a;" horiz-adv-x="300" 
d="M29 79h90l152 190l-152 190h-90l152 -190z" />
    <glyph glyph-name="fraction" unicode="&#x2044;" horiz-adv-x="214" 
d="M-157 0h82l446 745h-82z" />
    </font>
</defs>
</svg>
